<?xml version="1.0" encoding="utf-8"?>
<!-- Generator: Adobe Illustrator 25.3.1, SVG Export Plug-In . SVG Version: 6.00 Build 0)  -->
<svg version="1.1" id="Layer_1" xmlns="http://www.w3.org/2000/svg" xmlns:xlink="http://www.w3.org/1999/xlink" x="0px" y="0px"
	 viewBox="0 0 32 32" style="enable-background:new 0 0 32 32;" xml:space="preserve">
<path d="M24.9,15.1c-0.7,5-4.6,9.5-8.1,14.1c-0.7,0.8-1.3,0.3-1.8-0.3c-2.9-3.8-6.1-7.3-7.5-12c-1.1-3.7-0.2-7.1,2.8-9.6
	C13,5,16.3,4.6,19.6,6C23.1,7.5,24.9,10.2,24.9,15.1z M19.8,14.3c0.1-2.3-1.2-3.7-3.4-3.8c-2.4-0.1-4,1.2-4,3.7
	c0,2.3,1.5,3.4,3.7,3.8C18.2,17.6,19.7,16.7,19.8,14.3z"/>
</svg>
