<?xml version="1.0" encoding="utf-8"?>
<!-- Generator: Adobe Illustrator 25.3.1, SVG Export Plug-In . SVG Version: 6.00 Build 0)  -->
<svg version="1.1" id="Layer_1" xmlns="http://www.w3.org/2000/svg" xmlns:xlink="http://www.w3.org/1999/xlink" x="0px" y="0px"
	 viewBox="0 0 32 32" style="enable-background:new 0 0 32 32;" xml:space="preserve">
<g>
	<path d="M16.3,28c-2.9-0.2-5.1,0.2-7.4-0.4c-2.4-0.7-3.1-2.2-2.3-4.6c1.2-3.4,4.7-5.4,9.5-5.4c4.5,0,8,2,9.1,5.4
		c0.9,2.7,0,4.3-2.9,4.7C20.2,28,17.9,28,16.3,28z"/>
	<path d="M21.7,10.8c0,2.9-2.5,5.4-5.4,5.5c-3.1,0-5.8-2.5-5.8-5.5c0-2.8,2.6-5.4,5.4-5.5C19,5.1,21.7,7.8,21.7,10.8z"/>
</g>
</svg>
