<?xml version="1.0" encoding="utf-8"?>
<!-- Generator: Adobe Illustrator 25.3.1, SVG Export Plug-In . SVG Version: 6.00 Build 0)  -->
<svg version="1.1" id="Layer_1" xmlns="http://www.w3.org/2000/svg" xmlns:xlink="http://www.w3.org/1999/xlink" x="0px" y="0px"
	 viewBox="0 0 32 32" style="enable-background:new 0 0 32 32;" xml:space="preserve">
<g>
	<path d="M19.7,23c-1.9,0-3.8,0-5.7,0c0-0.4,0-0.7,0-1.1c0-2.8-1.9-5.1-4.6-5.8c-1.4-0.3-2.8-0.2-4.1,0.3c0,0-0.1,0-0.1,0
		c0,0,0,0,0,0c0.1-0.2,0.1-0.3,0.2-0.5c0.2-0.4,0.4-0.9,0.6-1.3c0.2-0.3,0.4-0.5,0.8-0.5c0.3,0,0.7,0,1,0C7.8,11.9,7.9,9.7,8,7.5
		c-0.3,0-0.6,0-0.9,0C6.8,7.5,6.6,7.3,6.6,7c0-0.3,0-0.7,0-1c0-0.3,0.2-0.5,0.5-0.5c3.7,0,7.4,0,11.1,0c0.3,0,0.5,0.2,0.5,0.5
		c0,0.4,0,0.8,0,1.1c0,0.2-0.1,0.4-0.4,0.4c-0.3,0-0.6,0-0.9,0c0.2,0.5,0.3,1.1,0.5,1.6c0.5,1.7,1,3.4,1.5,5c0,0.1,0.1,0.2,0.2,0.2
		c0.5,0,1,0.1,1.4,0.1c0-0.1,0-0.2,0-0.2c0-1.6,0-3.1,0-4.7c0-0.3,0.1-0.4,0.4-0.4c0.2,0,0.5,0,0.7,0c0.3,0,0.4,0.1,0.4,0.4
		c0,1.6,0,3.2,0,4.9c0,0.1,0,0.1,0,0.2c0.2,0,0.4,0.1,0.5,0.1c0.6,0,1.1,0.1,1.7,0.1c0.3,0,0.7,0,1,0.1c0.7,0.1,1.3,0.8,1.3,1.5
		c0,0.6,0,1.1,0,1.7c0,0.9,0,1.8,0,2.8c0.2,0,0.4,0,0.6,0c0.3,0,0.4,0.1,0.4,0.4c0,0.4,0,0.8,0,1.2c0,0.3-0.2,0.5-0.5,0.5
		c-0.1,0-0.2,0-0.3,0c0,0.1,0,0.1,0,0.2c0.1,1-0.1,1.9-0.8,2.6c-0.5,0.6-1.2,1-1.9,1.1c-0.8,0.1-1.6,0.1-2.4-0.3
		c-1.1-0.5-1.7-1.4-1.9-2.6c-0.2-1.1,0.2-2,0.9-2.8c0.6-0.6,1.4-1,2.3-1c0.6,0,1.2,0,1.9,0c0-0.2,0-0.5,0-0.8c-0.3,0-0.6,0-0.9,0
		c-0.8,0-1.6,0-2.3,0.2c-1.4,0.5-2.4,1.4-2.7,2.9c0,0.1,0,0.1,0,0.2C19.7,22.9,19.7,22.9,19.7,23z M18.1,14.3c0-0.1,0-0.1,0-0.2
		c-0.6-2.1-1.2-4.3-1.8-6.4c0-0.1-0.1-0.2-0.2-0.2c-2.1,0-4.2,0-6.4,0c-0.1,0-0.1,0-0.2,0c0,2.2,0,4.4,0,6.6c0.2,0,0.3,0,0.5,0
		c0.4,0,0.8,0,1.2,0.1c1.4,0.2,2.6,1,3.5,2.1c0.5,0.6,0.8,1.2,1.1,1.9c0,0.1,0.1,0.1,0.2,0.2c0.1,0,0.3,0,0.5,0
		c0.3-1.1,0.6-2.2,0.9-3.3C17.4,14.4,17.4,14.4,18.1,14.3z M23.9,21.9c-1,0-1.7,0.7-1.7,1.6c0,1,0.8,1.7,1.7,1.7
		c0.9,0,1.7-0.7,1.7-1.6C25.7,22.7,24.9,21.9,23.9,21.9z"/>
	<path d="M7.9,16.8c2.7,0,5.1,2.2,5.1,5.1c0,2.7-2.3,4.9-5,4.9c-2.9,0-5.1-2.3-5.2-5C2.9,19,5.2,16.8,7.9,16.8z M7.9,24.3
		c1.4,0,2.6-1.1,2.6-2.5c0-1.5-1.2-2.6-2.6-2.6c-1.4,0-2.5,1.2-2.5,2.5C5.4,23.1,6.6,24.3,7.9,24.3z"/>
	<path d="M24,24.5c-0.5,0-0.9-0.4-0.9-0.8c0-0.5,0.4-0.9,0.9-0.9c0.5,0,0.9,0.4,0.9,0.9C24.8,24.1,24.5,24.5,24,24.5z"/>
	<path d="M8,23.1c-0.7,0-1.3-0.5-1.3-1.3c0-0.7,0.6-1.3,1.3-1.3c0.7,0,1.4,0.6,1.4,1.3C9.3,22.5,8.7,23.1,8,23.1z"/>
</g>
</svg>
