<?xml version="1.0" encoding="utf-8"?>
<!-- Generator: Adobe Illustrator 25.3.1, SVG Export Plug-In . SVG Version: 6.00 Build 0)  -->
<svg version="1.1" id="Layer_1" xmlns="http://www.w3.org/2000/svg" xmlns:xlink="http://www.w3.org/1999/xlink" x="0px" y="0px"
	 viewBox="0 0 64 64" style="enable-background:new 0 0 64 64;" xml:space="preserve">
<style type="text/css">
	.st0{fill:#FFFFFF;}
	.st1{fill:none;stroke:#2E7D32;stroke-width:4;}
	.st2{display:none;fill:#E8F5E9;stroke:#2E7D32;stroke-width:4;}
</style>
<path class="st0" d="M43.8,61.9H20.2C10.2,61.9,2,53.8,2,43.8V20.1C2,10.1,10.2,2,20.2,2h23.6C53.8,2,62,10.1,62,20.1v23.6
	C62,53.8,53.8,61.9,43.8,61.9z"/>
<image style="overflow:visible;" width="770" height="697" xlink:href="7AECCDDE.jpg"  transform="matrix(5.917208e-02 0 0 5.917208e-02 9.2875 11.6758)">
</image>
<path class="st1" d="M20,4h24c8.8,0,16,7.2,16,16v24c0,8.8-7.2,16-16,16H20c-8.8,0-16-7.2-16-16V20C4,11.2,11.2,4,20,4z"/>
<path class="st2" d="M20,4h24c8.8,0,16,7.2,16,16v24c0,8.8-7.2,16-16,16H20c-8.8,0-16-7.2-16-16V20C4,11.2,11.2,4,20,4z"/>
</svg>
