<?xml version="1.0" encoding="utf-8"?>
<!-- Generator: Adobe Illustrator 25.3.1, SVG Export Plug-In . SVG Version: 6.00 Build 0)  -->
<svg version="1.1" id="Layer_1" xmlns="http://www.w3.org/2000/svg" xmlns:xlink="http://www.w3.org/1999/xlink" x="0px" y="0px"
	 viewBox="0 0 64 64" style="enable-background:new 0 0 64 64;" xml:space="preserve">
<style type="text/css">
	.st0{fill:#FFFFFF;}
	.st1{fill:#FCFCFC;}
	.st2{fill:#0E4C21;}
	.st3{fill:#519028;}
	.st4{fill:#FCC600;}
	.st5{fill:none;stroke:#2E7D32;stroke-width:4;}
	.st6{display:none;fill:#E8F5E9;stroke:#2E7D32;stroke-width:4;}
</style>
<path class="st0" d="M43.8,61.9H20.2C10.2,61.9,2,53.8,2,43.8V20.1C2,10.1,10.2,2,20.2,2h23.6C53.8,2,62,10.1,62,20.1v23.6
	C62,53.8,53.8,61.9,43.8,61.9z"/>
<g>
	<path class="st1" d="M32.1,52.9c-7.5,0-15,0-22.5,0c-0.2,0-0.3,0-0.3-0.3c0-13.6,0-27.1,0-40.7c0-0.2,0-0.3,0.3-0.3c15,0,30,0,45,0
		c0.2,0,0.3,0,0.3,0.3c0,13.6,0,27.1,0,40.7c0,0.2,0,0.3-0.3,0.3C47.1,52.9,39.6,52.9,32.1,52.9z M46.5,20.5
		C46.6,20.5,46.6,20.5,46.5,20.5c0.2,0.2,0.3,0.4,0.4,0.5c0,0,0.1,0.1,0.1,0.1c0,0,0,0,0,0c0,0,0-0.1-0.1,0c0-0.2-0.2-0.3-0.3-0.5
		C46.6,20.5,46.6,20.5,46.5,20.5c0-0.1,0-0.2-0.1-0.2c-2-2.7-4.4-4.8-7.4-6.2c-3.5-1.6-7.3-2.2-11.1-1.6c-2.4,0.4-4.7,1.1-6.8,2.2
		c-5.4,3-8.7,7.6-10,13.6c-0.7,3.2-0.6,6.4,0.3,9.5c1.3,4.5,3.7,8.2,7.5,10.9c4.8,3.4,10.2,4.7,16,3.6c0.1,0,0.1,0,0.2-0.1
		c0,0,0,0,0,0c0,0-0.1,0-0.1,0c-2.1,0.3-4.2,0.2-6.2-0.3c-4.5-0.9-8.4-2.9-11.5-6.4c-4.6-5.4-6-11.5-4.1-18.3
		c0.7-2.5,1.9-4.7,3.5-6.7c3.6-4.4,8.4-6.6,14-7c4.5-0.3,8.7,0.9,12.3,3.6c1.2,0.9,2.3,2,3.3,3.1C46.4,20.3,46.5,20.4,46.5,20.5z
		 M49.3,26c0,0.1-0.1,0-0.2,0c-0.3,0-0.3,0.1-0.4,0.3c0,0.2,0.1,0.3,0.3,0.3c0.1,0,0.2,0,0.3,0.1c-0.1,0.1-0.2,0-0.3,0
		c-0.1,0-0.2,0-0.3,0.1c-0.1,0.1-0.1,0.5,0,0.6c0.1,0.1,0.7,0.2,0.8,0.1c0,0,0.1-0.1,0.1-0.2c0.1-0.3-0.1-0.5-0.3-0.6
		c0.3-0.1,0.5-0.4,0.3-0.6C49.6,26.1,49.4,26.1,49.3,26c0.1-0.1,0.4,0,0.4-0.3c0-0.2-0.1-0.3-0.2-0.3c-0.1,0-0.2,0-0.3-0.1
		c-0.1,0-0.2,0-0.3,0.2c0,0.1,0,0.3,0.1,0.3C49.2,25.9,49.3,25.9,49.3,26z M48.8,24.3c-0.1,0.1,0.1,0.2,0.2,0.2
		c0.3,0,0.5,0.1,0.8,0.1c0.1,0,0.2,0,0.2-0.1c0-0.1-0.1-0.3-0.2-0.2c-0.1,0-0.2,0-0.3,0C49.3,24.4,49,24.1,48.8,24.3
		c0-0.1,0.1-0.2-0.1-0.2c-0.1,0-0.2,0-0.3,0.1c-0.2,0.2-0.4,0.4-0.6,0.5c-0.1,0.1-0.2,0.1-0.1,0.2c0,0.1,0.1,0.1,0.2,0.1
		c0.1,0,0.2,0,0.2,0c0.1-0.1,0.2-0.1,0.3,0c0.1,0.1,0.4,0.2,0.5,0.1c0.1-0.1,0.2-0.3,0-0.4c-0.1-0.1-0.4-0.2-0.4,0.1
		c0,0.1-0.1,0.1-0.2,0.1C48.4,24.6,48.4,24.3,48.8,24.3z M47.1,27.7c0-0.4-0.2-0.5-0.6-0.6c-0.2,0-0.3,0.1-0.4,0.2
		c-0.1,0.2-0.2,0.4,0,0.5c0.2,0.1,0.4,0.2,0.6,0.2C46.9,28,46.9,27.8,47.1,27.7C47,27.7,47.1,27.7,47.1,27.7c0,0.5,0,0.5,0.5,0.6
		c0.1,0,0.1,0,0.2,0c0.2,0.1,0.4-0.1,0.4-0.3c0.1-0.2,0.1-0.4-0.2-0.5C47.6,27.3,47.4,27.4,47.1,27.7z M47.8,43.6
		c-0.4,0-0.8,0.2-1.1,0.4c-3.6,1.4-6.7,3.4-9.2,6.2c-0.3,0.3-0.6,0.7-0.9,1.1c0.1,0,0.2,0,0.2,0c1-0.2,2.1-0.5,3.1-0.9
		c2.7-1.1,4.9-2.8,6.7-5.1C47,44.8,47.5,44.2,47.8,43.6C47.8,43.6,47.8,43.5,47.8,43.6C47.8,43.5,47.8,43.5,47.8,43.6
		C47.8,43.5,47.8,43.5,47.8,43.6z M27.5,34.4c0.1-0.2,0.3-0.3,0.4-0.5c0.5-0.7,1.1-1.3,1.8-1.9c1-0.8,2.1-1.3,3.3-1.7
		c0.8-0.2,1.6-0.4,2.4-0.4c-1.4,0.4-2.8,0.9-4,1.7c-1.2,0.8-2.3,1.8-3.1,3.1c2.9,0.4,5.5,0,7.9-1.8c1.9-1.4,2.9-3.3,3.4-5.5
		c-1.1,0.6-2.4,0.8-3.6,0.8c-2.5,0.1-4.6,1-6.5,2.7c-1,0.9-1.8,1.9-2.4,3.1c-0.1,0.1-0.1,0.3-0.3,0.3c1.5-3.7,2.9-7.4,4.4-11.2
		c0.1,0.3,0.2,0.5,0.3,0.7c0.5,1.3,1,2.7,1.6,4c0,0.1,0,0.2,0.2,0.2c1.1-0.4,2.2-0.5,3.3-0.5c0.3,0,0.3-0.1,0.2-0.3c0,0,0-0.1,0-0.1
		c-1.2-2.9-2.4-5.8-3.5-8.7c-0.1-0.2-0.2-0.2-0.3-0.2c-1.1,0-2.2,0-3.3,0c-0.2,0-0.3,0.1-0.4,0.3c-1.2,2.9-2.3,5.7-3.5,8.6
		c-1.6,3.9-3.2,7.8-4.7,11.7c-0.1,0.3,0,0.3,0.2,0.3c1.4,0,2.7,0,4.1,0c0.2,0,0.3-0.1,0.4-0.3C26,37.4,26.6,35.8,27.5,34.4z
		 M28.4,51c1.8,0.5,3.6,0.6,5.5,0.6c0.4,0,0.7-0.1,1-0.5c3.4-4,7.7-6.6,12.8-7.7c0.4-0.1,0.5-0.3,0.6-0.6
		C40.5,42.9,33.9,45.6,28.4,51z M34,45.4c-0.1,0-0.1,0-0.1-0.1c-0.2-0.2-0.4-0.3-0.6-0.5c-3.5-2.6-7.4-4.2-11.7-4.8
		c-2.1-0.3-4.3-0.4-6.4-0.1c-0.2,0-0.3,0.1-0.2,0.3c0.3,0.6,0.6,1.2,0.9,1.8c0.1,0.2,0.2,0.2,0.4,0.2c0.4,0,0.9-0.1,1.3-0.1
		c2.6-0.1,5.1,0.5,7.5,1.5c2,0.9,3.8,2,5.5,3.4c0.2,0.1,0.3,0.1,0.4,0c0.3-0.2,0.7-0.4,1-0.6C32.7,46.1,33.3,45.8,34,45.4z
		 M16.4,42.8c0.2,0.2,0.3,0.4,0.4,0.5c0.8,1.2,1.8,2.2,2.9,3.2c2,1.8,4.3,3,6.7,3.9c0.2,0.1,0.3,0,0.4-0.1c0.7-0.6,1.4-1.2,2.1-1.8
		c0.3-0.2,0.6-0.4,0.9-0.6C25.9,44.7,21.5,42.8,16.4,42.8z M31.9,43.1c1,0.6,2,1.2,2.9,1.9c0.1,0.1,0.2,0,0.3,0
		c1.6-0.7,3.4-1.3,5.1-1.6c2.1-0.5,4.3-0.7,6.5-0.6c0.5,0,1,0,1.5,0.1c0.2,0,0.2-0.1,0.3-0.3c0.1-0.1-0.1-0.1-0.2-0.1
		c-1.9-0.6-3.8-1-5.8-1.1c-2.1-0.2-4.2,0-6.3,0.5C34.7,42,33.3,42.4,31.9,43.1z M41.4,39.2c-1-2.6-2-5.1-3-7.6
		c-0.8,1.2-1.8,2.1-3.1,2.7c-0.2,0.1-0.1,0.2-0.1,0.3c0.6,1.5,1.1,3,1.7,4.5c0,0.1,0.1,0.2,0.2,0.2C38.5,39.2,39.9,39.2,41.4,39.2z
		 M52.9,30.2C52.9,30.2,52.9,30.2,52.9,30.2c-0.2,0-0.3,0.1-0.5,0.2c-0.7,0.4-1.3,0.8-1.9,1.4c-1.2,1.1-2.1,2.4-2.9,3.7
		c-0.9,1.6-1.7,3.3-2.2,5c-0.1,0.2,0,0.3,0.2,0.3c0.4,0.1,0.8,0.2,1.2,0.3c0.2,0,0.3,0,0.4-0.1c0.7-0.5,1.3-1.3,1.7-2
		c0.7-1.2,1.2-2.4,1.6-3.7c0.5-1.5,0.9-2.9,1.8-4.2C52.5,30.8,52.7,30.5,52.9,30.2z M42.9,28.3c0,0.1,0,0.2,0,0.2
		c0.2,1.2,0.2,2.3,0,3.5c-0.3,1.6-0.7,3.1-0.7,4.7c-0.1,1.2,0.1,2.4,0.6,3.6c0.1,0.2,0.2,0.3,0.4,0.3c0.4,0,0.9,0.1,1.3,0.1
		c0.3,0,0.3-0.1,0.3-0.3c0.1-0.8,0.2-1.6,0.3-2.3c0.2-2.4,0-4.8-0.7-7.1C44,30,43.6,29.1,42.9,28.3z M53.7,35.6
		c-0.1-0.1-0.1-0.1-0.2-0.1c-1.1,0-2,0.4-2.9,1c-0.1,0.1-0.1,0.2-0.2,0.3c-0.7,1.6-1.4,3.2-2.8,4.4c0.9,0.3,0.7,0.4,1.4-0.2
		c0.1-0.1,0.1-0.1,0.2-0.2c0.6-0.6,1-1.3,1.5-2C51.6,37.7,52.4,36.5,53.7,35.6z M47.2,32.1c0-0.2-0.1-0.3-0.3-0.4
		c-0.2-0.1-0.3-0.1-0.5-0.1c-0.4-0.1-0.5,0-0.6,0.4c-0.1,0.4,0,0.5,0.3,0.6c0.1,0,0.3,0.1,0.4,0.1C47,32.8,47.1,32.6,47.2,32.1z
		 M47.8,32c-0.1,0-0.3,0-0.3,0.2c-0.2,0.5-0.2,0.7,0.3,0.9c0.1,0,0.2,0,0.3,0.1c0.3,0.1,0.5,0,0.7-0.3c0.2-0.2,0.1-0.5-0.2-0.6
		C48.3,32,48,32,47.8,32z M45.8,32.7c-0.2,0-0.3,0.1-0.3,0.3c0,0.5,0.1,0.7,0.6,0.8c0,0,0.1,0,0.1,0c0.4,0.1,0.5,0.1,0.6-0.2
		c0.1-0.4,0.1-0.6-0.3-0.7C46.3,32.8,46.1,32.7,45.8,32.7z M46.8,35.4c-0.3,0.2-0.5,0-0.7-0.1c0,0-0.1,0-0.2-0.1
		c-0.1-0.1-0.2,0-0.2,0.1c0,0.7,0,1.5-0.1,2.3C46,36.9,46.4,36.2,46.8,35.4z M46.1,31c0,0.2,0.1,0.3,0.3,0.4c0.2,0,0.3,0.1,0.5,0.1
		c0.4,0.1,0.5,0,0.6-0.4c0.1-0.4,0-0.5-0.3-0.6c-0.1,0-0.2-0.1-0.3-0.1C46.3,30.4,46.1,30.5,46.1,31z M48,30.9
		c-0.3-0.1-0.4,0.2-0.4,0.4c-0.1,0.2,0,0.4,0.3,0.5c0.2,0.1,0.4,0.1,0.7,0.2c0.2,0,0.4-0.1,0.4-0.3c0-0.2,0.1-0.5-0.2-0.6
		C48.5,31,48.3,30.9,48,30.9z M47,29.4c-0.2,0-0.3,0-0.4,0.1c-0.3,0.4-0.2,0.7,0.3,0.8c0.1,0,0.2,0.1,0.3,0.1c0.4,0.1,0.5,0,0.6-0.4
		c0-0.3,0-0.4-0.3-0.5C47.3,29.5,47.1,29.4,47,29.4z M49.2,30.3c0-0.3,0-0.4-0.3-0.5c-0.1,0-0.2-0.1-0.3-0.1c-0.4-0.1-0.5,0-0.6,0.4
		c-0.1,0.3,0,0.4,0.3,0.5c0.1,0,0.2,0,0.3,0.1C48.9,30.9,49.2,30.8,49.2,30.3z M44.8,30.6c0,0,0,0.1,0,0.1c0.1,0.3,0.4,0.3,0.6,0.4
		c0.2,0.1,0.4,0,0.5-0.2c0.1-0.4,0.1-0.6-0.2-0.7c-0.1,0-0.2-0.1-0.3-0.1C45,29.9,44.9,30.2,44.8,30.6z M49.4,29.2
		c0-0.3,0-0.4-0.3-0.4c-0.1,0-0.2-0.1-0.3-0.1c-0.4-0.1-0.5,0-0.5,0.3c-0.1,0.4,0,0.4,0.3,0.5c0.1,0,0.2,0,0.3,0.1
		C49.2,29.8,49.4,29.6,49.4,29.2z M47.3,28.4c-0.4,0-0.5,0.2-0.5,0.4c-0.1,0.2,0,0.4,0.2,0.4c0.2,0.1,0.4,0.1,0.6,0.1
		c0.3,0,0.3-0.2,0.4-0.4c0.1-0.2,0-0.4-0.2-0.5C47.6,28.5,47.4,28.4,47.3,28.4z M46.3,29.5c0-0.3-0.4-0.5-0.8-0.5
		c-0.2,0-0.4,0.4-0.4,0.6c0,0.2,0.3,0.4,0.7,0.4C46.1,30.1,46.3,29.8,46.3,29.5z M50.4,30.7c0-0.4-0.1-0.5-0.7-0.5
		c-0.3,0-0.4,0.2-0.4,0.6c0,0.3,0.2,0.4,0.7,0.5C50.3,31.2,50.4,31,50.4,30.7z M47,33.7c0,0.2,0.1,0.3,0.3,0.4
		c0.2,0.1,0.3,0.1,0.4-0.1c0.1-0.2,0.3-0.4,0.4-0.6c0,0,0.1-0.1,0-0.2c-0.3-0.1-0.6-0.3-0.9-0.1C47,33.2,47.1,33.5,47,33.7z
		 M46.6,34.4c0-0.1,0-0.2-0.1-0.2c-0.1-0.1-0.6-0.3-0.8-0.3c-0.1,0-0.1,0.1-0.1,0.1c0,0.3,0,0.5,0.1,0.8c0,0.1,0.1,0.2,0.2,0.2
		C46.3,35.2,46.6,34.9,46.6,34.4z M46.7,28.5c0-0.2-0.3-0.4-0.7-0.4c-0.2,0-0.4,0.3-0.4,0.6c0,0.2,0.3,0.4,0.7,0.4
		C46.5,29,46.7,28.8,46.7,28.5z M48.8,27.7c-0.3,0-0.4,0.1-0.4,0.4c0,0.2,0,0.4,0.2,0.5c0.1,0,0.3,0.1,0.4,0.1c0.2,0,0.4,0,0.4-0.2
		c0.1-0.2,0.1-0.5-0.2-0.6C49.2,27.8,49,27.8,48.8,27.7z M50.5,29.6c0-0.2,0-0.4-0.2-0.5c-0.2-0.1-0.4-0.2-0.6-0.1
		c-0.2,0.2-0.2,0.4-0.2,0.7c0,0.1,0.6,0.3,0.8,0.3C50.5,30,50.5,29.7,50.5,29.6z M50.2,26.2c-0.3,0-0.4,0.1-0.4,0.3
		c0,0.1,0,0.3,0.2,0.3c0.2,0,0.3,0.2,0.5,0c0.1-0.2,0.1-0.4,0-0.5c-0.1-0.1-0.1-0.2,0-0.3c0.1-0.1,0.1-0.3-0.1-0.3
		c-0.1-0.1-0.3-0.2-0.4-0.1c-0.1,0-0.1,0.2-0.1,0.3C49.9,26.1,50.1,26.1,50.2,26.2z M50.6,28.5c0-0.4-0.2-0.5-0.6-0.5
		c-0.2,0-0.3,0.1-0.3,0.5c0,0.3,0.3,0.5,0.6,0.5C50.6,28.9,50.5,28.7,50.6,28.5z M47.9,26.5c-0.2,0-0.4,0.2-0.4,0.5
		c0,0.2,0.3,0.4,0.7,0.4c0.2,0,0.3-0.2,0.4-0.4C48.5,26.7,48.3,26.6,47.9,26.5z M47.4,26.7c0-0.2-0.3-0.4-0.6-0.4
		c-0.2,0-0.4,0.3-0.4,0.5c0,0.2,0.3,0.4,0.6,0.4C47.3,27.1,47.3,26.9,47.4,26.7z M50.6,27.6c0-0.3-0.2-0.5-0.5-0.5
		c-0.3,0-0.3,0.3-0.3,0.5c0,0.2,0.2,0.4,0.6,0.4C50.6,27.9,50.6,27.7,50.6,27.6z M48.2,25.8c-0.2,0-0.4,0.2-0.4,0.4
		c0.1,0.4,0.4,0.2,0.6,0.3c0.2,0.1,0.3-0.2,0.3-0.4C48.7,25.9,48.5,25.8,48.2,25.8z M46.7,34.9c0,0,0,0.1,0,0.1
		c0,0.1,0.1,0.2,0.2,0.2c0.1,0,0.1-0.1,0.2-0.2c0.1-0.2,0.2-0.4,0.4-0.6c0.1-0.1,0-0.2-0.1-0.2C47,34.2,46.7,34.4,46.7,34.9z
		 M50.1,31.3c-0.1-0.1-0.2-0.1-0.3-0.1c-0.4-0.1-0.7,0.2-0.6,0.7c0,0.1,0.1,0.2,0.2,0.1C49.6,31.8,49.8,31.6,50.1,31.3z M47.7,25.9
		c-0.1-0.3-0.3-0.3-0.5-0.3c-0.2,0-0.3,0.2-0.4,0.4c0,0.1,0.3,0.3,0.5,0.3C47.6,26.3,47.7,26.1,47.7,25.9z M45.4,32.3
		c0.2-0.3,0.3-0.5,0.3-0.8c-0.1-0.3-0.4-0.3-0.6-0.4C45.1,31.5,45.2,31.9,45.4,32.3z M48.6,25.7c0.2,0,0.3-0.1,0.3-0.3
		c0-0.3-0.2-0.3-0.4-0.3c-0.2,0-0.3,0.1-0.3,0.3C48.1,25.8,48.4,25.6,48.6,25.7z M47.7,25.1c-0.2,0-0.4,0.1-0.3,0.3
		c0,0.2,0.3,0.2,0.4,0.2c0.2,0,0.3-0.2,0.3-0.3C48,25,47.8,25.1,47.7,25.1z M49.8,25c-0.1,0.1,0.1,0.2,0,0.3c0,0.1,0.1,0.2,0.3,0.2
		c0.1,0,0.2,0,0.2,0c0.1-0.1-0.1-0.1-0.1-0.2c-0.1-0.1,0-0.1,0-0.2c0-0.1,0-0.2-0.1-0.3c-0.1-0.1-0.1-0.1-0.2,0
		C49.8,24.8,49.8,24.9,49.8,25z M49.4,24.7c-0.3,0-0.3,0.3-0.3,0.4c0,0.1,0.2,0.2,0.3,0.2c0.2,0,0.2-0.2,0.2-0.4
		C49.7,24.7,49.6,24.7,49.4,24.7z M49.3,24.2c0.1,0,0.2,0,0.2-0.1c0-0.2-0.1-0.2-0.3-0.2c-0.1,0-0.2,0.1-0.2,0.2
		C49,24.2,49.2,24.2,49.3,24.2z M47.1,21.2C47.1,21.2,47.1,21.2,47.1,21.2C47.1,21.2,47.1,21.2,47.1,21.2
		C47.1,21.2,47.1,21.2,47.1,21.2z"/>
	<path class="st2" d="M27.5,34.4c-0.9,1.4-1.5,3-2.1,4.5c-0.1,0.2-0.2,0.3-0.4,0.3c-1.4,0-2.7,0-4.1,0c-0.2,0-0.3,0-0.2-0.3
		c1.6-3.9,3.1-7.8,4.7-11.7c1.2-2.9,2.4-5.7,3.5-8.6c0.1-0.2,0.2-0.3,0.4-0.3c1.1,0,2.2,0,3.3,0c0.1,0,0.2,0,0.3,0.2
		c1.2,2.9,2.3,5.8,3.5,8.7c0,0,0,0.1,0,0.1c0.1,0.2,0.1,0.3-0.2,0.3c-1.1,0-2.2,0.1-3.3,0.5c-0.2,0.1-0.2-0.1-0.2-0.2
		c-0.5-1.3-1-2.7-1.6-4c-0.1-0.2-0.2-0.4-0.3-0.7c-1.5,3.8-2.9,7.5-4.4,11.2c0.2-0.1,0.2-0.2,0.3-0.3c0,0.2,0,0.4,0.3,0.4
		C27.3,34.4,27.4,34.4,27.5,34.4z"/>
	<path class="st3" d="M46.4,20.3c-1-1.1-2.1-2.2-3.3-3.1c-3.7-2.7-7.8-4-12.3-3.6c-5.6,0.4-10.3,2.6-14,7c-1.6,2-2.8,4.2-3.5,6.7
		c-1.9,6.8-0.5,13,4.1,18.3c3,3.5,6.9,5.5,11.5,6.4c2.1,0.4,4.1,0.5,6.2,0.3c0,0,0.1,0,0.1,0c0,0,0,0,0,0c0,0.1-0.1,0.1-0.2,0.1
		c-5.9,1.1-11.2-0.2-16-3.6c-3.8-2.7-6.2-6.4-7.5-10.9c-0.9-3.1-1-6.3-0.3-9.5c1.3-6,4.6-10.6,10-13.6c2.1-1.2,4.4-1.9,6.8-2.2
		c3.9-0.6,7.6,0,11.1,1.6C42,15.4,44.5,17.5,46.4,20.3C46.4,20.2,46.4,20.3,46.4,20.3z"/>
	<g>
		<path class="st2" d="M34,45.4c-0.7,0.4-1.3,0.7-1.9,1.1c-0.4,0.2-0.7,0.4-1,0.6c-0.2,0.1-0.3,0.1-0.4,0c-1.7-1.4-3.5-2.5-5.5-3.4
			c-2.4-1-4.9-1.6-7.5-1.5c-0.4,0-0.9,0-1.3,0.1c-0.2,0-0.3,0-0.4-0.2c-0.3-0.6-0.7-1.2-0.9-1.8C14.8,40,14.9,40,15.1,40
			c2.1-0.3,4.3-0.2,6.4,0.1c4.3,0.7,8.2,2.3,11.7,4.8c0.2,0.2,0.4,0.3,0.6,0.5C33.9,45.4,33.9,45.4,34,45.4z"/>
		<path class="st2" d="M16.4,42.8c5.2,0,9.5,1.9,13.4,5.1c-0.3,0.2-0.6,0.4-0.9,0.6c-0.7,0.6-1.4,1.1-2.1,1.8
			c-0.1,0.1-0.2,0.1-0.4,0.1c-2.5-0.9-4.8-2.2-6.7-3.9c-1.1-1-2-2-2.9-3.2C16.6,43.2,16.5,43.1,16.4,42.8z"/>
	</g>
	<path class="st3" d="M27.5,34.4c-0.1,0-0.2,0-0.2,0c-0.3,0-0.3-0.2-0.3-0.4c0.7-1.1,1.4-2.2,2.4-3.1c1.8-1.7,4-2.5,6.5-2.7
		c1.2-0.1,2.5-0.2,3.6-0.8c-0.6,2.2-1.6,4.1-3.4,5.5c-2.3,1.7-5,2.2-7.9,1.8c0.8-1.3,1.9-2.3,3.1-3.1c1.2-0.8,2.6-1.3,4-1.7
		c-0.8,0-1.6,0.2-2.4,0.4c-1.2,0.3-2.3,0.9-3.3,1.7c-0.7,0.5-1.3,1.2-1.8,1.9C27.7,34.1,27.6,34.2,27.5,34.4z"/>
	<path class="st2" d="M41.4,39.2c-1.5,0-2.9,0-4.3,0c-0.1,0-0.2,0-0.2-0.2c-0.6-1.5-1.1-3-1.7-4.5c0-0.1-0.1-0.2,0.1-0.3
		c1.3-0.6,2.3-1.5,3.1-2.7C39.4,34.1,40.4,36.6,41.4,39.2z"/>
	<g>
		<path class="st3" d="M28.4,51c5.5-5.5,12.1-8.2,19.9-8.2c-0.1,0.3-0.2,0.5-0.6,0.6c-5.1,1.1-9.4,3.7-12.8,7.7
			c-0.3,0.3-0.6,0.5-1,0.5C32,51.7,30.2,51.5,28.4,51z"/>
		<path class="st3" d="M31.9,43.1c1.4-0.6,2.8-1.1,4.3-1.4c2.1-0.4,4.2-0.6,6.3-0.5c2,0.2,3.9,0.5,5.8,1.1c0.1,0,0.2,0,0.2,0.1
			c-0.1,0.1-0.1,0.3-0.3,0.3c-0.5,0-1-0.1-1.5-0.1c-2.2-0.1-4.3,0.2-6.5,0.6c-1.8,0.4-3.5,0.9-5.1,1.6c-0.1,0-0.2,0.1-0.3,0
			C33.9,44.2,33,43.6,31.9,43.1z"/>
		<path class="st3" d="M47.8,43.6c-0.3,0.6-0.8,1.2-1.2,1.7c-1.8,2.3-4,4-6.7,5.1c-1,0.4-2,0.7-3.1,0.9c-0.1,0-0.1,0-0.2,0
			c0.3-0.4,0.6-0.8,0.9-1.1c2.6-2.9,5.7-4.9,9.2-6.2C47,43.8,47.4,43.6,47.8,43.6L47.8,43.6z"/>
	</g>
	<g>
		<path class="st3" d="M52.9,30.2c-0.2,0.3-0.4,0.6-0.6,0.9c-0.8,1.3-1.3,2.7-1.8,4.2c-0.4,1.3-0.9,2.5-1.6,3.7
			c-0.5,0.8-1,1.5-1.7,2c-0.1,0.1-0.3,0.1-0.4,0.1c-0.4-0.1-0.8-0.2-1.2-0.3c-0.2,0-0.3-0.1-0.2-0.3c0.5-1.8,1.3-3.4,2.2-5
			c0.8-1.4,1.7-2.6,2.9-3.7c0.6-0.5,1.2-1,1.9-1.4C52.5,30.3,52.7,30.2,52.9,30.2C52.9,30.2,52.9,30.2,52.9,30.2z"/>
		<path class="st3" d="M42.9,28.3c0.7,0.8,1.1,1.7,1.4,2.6c0.8,2.3,0.9,4.7,0.7,7.1c-0.1,0.8-0.2,1.6-0.3,2.3c0,0.2-0.1,0.3-0.3,0.3
			c-0.4-0.1-0.9-0.1-1.3-0.1c-0.2,0-0.3-0.1-0.4-0.3c-0.5-1.1-0.7-2.3-0.6-3.6c0.1-1.6,0.5-3.1,0.7-4.7c0.2-1.2,0.2-2.3,0-3.5
			C42.9,28.4,42.9,28.4,42.9,28.3z"/>
		<path class="st3" d="M53.7,35.6c-1.3,0.8-2.1,2-2.9,3.3c-0.4,0.7-0.9,1.4-1.5,2c-0.1,0.1-0.1,0.1-0.2,0.2
			c-0.7,0.6-0.5,0.5-1.4,0.2c1.3-1.2,2.1-2.7,2.8-4.4c0-0.1,0.1-0.2,0.2-0.3c0.9-0.6,1.8-1,2.9-1C53.6,35.6,53.7,35.6,53.7,35.6z"/>
		<path class="st4" d="M47.2,32.1c0,0.5-0.2,0.6-0.7,0.5c-0.1,0-0.3-0.1-0.4-0.1c-0.4-0.1-0.4-0.2-0.3-0.6c0.1-0.4,0.2-0.5,0.6-0.4
			c0.2,0,0.3,0.1,0.5,0.1C47.1,31.8,47.2,31.9,47.2,32.1z"/>
		<path class="st4" d="M47.8,32c0.3,0,0.5,0.1,0.8,0.2c0.3,0.1,0.3,0.4,0.2,0.6C48.5,33,48.3,33.2,48,33c-0.1,0-0.2,0-0.3-0.1
			c-0.6-0.1-0.5-0.4-0.3-0.9C47.5,32,47.6,32,47.8,32z"/>
		<path class="st4" d="M45.8,32.7c0.3,0,0.5,0.1,0.7,0.2c0.3,0.1,0.4,0.3,0.3,0.7c-0.1,0.3-0.2,0.3-0.6,0.2c0,0-0.1,0-0.1,0
			c-0.5-0.1-0.6-0.3-0.6-0.8C45.5,32.7,45.7,32.7,45.8,32.7z"/>
		<path class="st4" d="M46.8,35.4c-0.4,0.7-0.8,1.4-1.1,2.2c0.1-0.8,0.1-1.6,0.1-2.3c0-0.2,0.1-0.2,0.2-0.1c0.1,0,0.1,0,0.2,0.1
			C46.3,35.5,46.5,35.6,46.8,35.4z"/>
		<path class="st4" d="M46.1,31c0-0.5,0.2-0.6,0.7-0.5c0.1,0,0.2,0.1,0.3,0.1c0.4,0.1,0.4,0.2,0.3,0.6c-0.1,0.4-0.2,0.4-0.6,0.4
			c-0.2,0-0.3-0.1-0.5-0.1C46.2,31.3,46.1,31.2,46.1,31z"/>
		<path class="st4" d="M48,30.9c0.3,0,0.5,0.1,0.7,0.2c0.3,0.1,0.2,0.4,0.2,0.6c0,0.2-0.2,0.3-0.4,0.3c-0.2,0-0.4-0.1-0.7-0.2
			c-0.2-0.1-0.3-0.2-0.3-0.5C47.7,31.1,47.7,30.8,48,30.9z"/>
		<path class="st4" d="M47,29.4c0.1,0,0.3,0.1,0.5,0.1c0.3,0.1,0.3,0.3,0.3,0.5c-0.1,0.4-0.2,0.5-0.6,0.4c-0.1,0-0.2-0.1-0.3-0.1
			c-0.4-0.1-0.5-0.5-0.3-0.8C46.7,29.4,46.8,29.4,47,29.4z"/>
		<path class="st4" d="M49.2,30.3c0,0.5-0.2,0.6-0.7,0.4c-0.1,0-0.2-0.1-0.3-0.1c-0.3-0.1-0.4-0.2-0.3-0.5c0.1-0.4,0.2-0.5,0.6-0.4
			c0.1,0,0.2,0.1,0.3,0.1C49.1,30,49.2,30,49.2,30.3z"/>
		<path class="st4" d="M44.8,30.6c0.1-0.4,0.2-0.7,0.6-0.5c0.1,0,0.2,0.1,0.3,0.1c0.3,0.1,0.3,0.3,0.2,0.7c-0.1,0.3-0.3,0.3-0.5,0.2
			c-0.2-0.1-0.5-0.1-0.6-0.4C44.8,30.7,44.8,30.6,44.8,30.6z"/>
		<path class="st4" d="M49.4,29.2c0,0.4-0.2,0.6-0.5,0.4c-0.1,0-0.2,0-0.3-0.1c-0.4-0.1-0.4-0.2-0.3-0.5c0.1-0.4,0.2-0.4,0.5-0.3
			c0.1,0,0.2,0,0.3,0.1C49.3,28.9,49.4,29,49.4,29.2z"/>
		<path class="st4" d="M47.3,28.4c0.1,0,0.3,0.1,0.5,0.1c0.2,0.1,0.2,0.3,0.2,0.5c-0.1,0.2-0.1,0.4-0.4,0.4c-0.2,0-0.4-0.1-0.6-0.1
			c-0.2-0.1-0.3-0.2-0.2-0.4C46.9,28.6,46.9,28.3,47.3,28.4z"/>
		<path class="st4" d="M46.3,29.5c0,0.3-0.2,0.6-0.5,0.6c-0.4,0-0.7-0.2-0.7-0.4c0-0.3,0.2-0.6,0.4-0.6C46,29,46.3,29.2,46.3,29.5z"
			/>
		<path class="st4" d="M50.4,30.7c0,0.4-0.1,0.5-0.3,0.5c-0.6-0.1-0.7-0.1-0.7-0.5c0-0.4,0.1-0.6,0.4-0.6
			C50.2,30.2,50.4,30.2,50.4,30.7z"/>
		<path class="st4" d="M47,33.7c0-0.2,0-0.5,0.3-0.6c0.3-0.1,0.6,0,0.9,0.1c0.1,0,0,0.1,0,0.2c-0.1,0.2-0.3,0.4-0.4,0.6
			c-0.1,0.2-0.3,0.2-0.4,0.1C47.1,34.1,47,34,47,33.7z"/>
		<path class="st4" d="M46.6,34.4c0,0.5-0.2,0.7-0.7,0.6c-0.1,0-0.2-0.1-0.2-0.2c0-0.3,0-0.5-0.1-0.8c0-0.1,0-0.1,0.1-0.1
			c0.1,0,0.7,0.2,0.8,0.3C46.6,34.3,46.6,34.4,46.6,34.4z"/>
		<path class="st4" d="M47.1,27.7c0.3-0.3,0.5-0.4,1-0.2c0.2,0.1,0.2,0.3,0.2,0.5c-0.1,0.2-0.2,0.3-0.4,0.3c-0.1,0-0.1,0-0.2,0
			C47.1,28.2,47.1,28.2,47.1,27.7L47.1,27.7z"/>
		<path class="st4" d="M46.7,28.5c0,0.3-0.2,0.6-0.4,0.6c-0.4,0-0.7-0.2-0.7-0.4c0-0.3,0.2-0.6,0.4-0.6C46.4,28,46.7,28.2,46.7,28.5
			z"/>
		<path class="st4" d="M48.8,27.7c0.2,0,0.3,0.1,0.5,0.2c0.3,0.1,0.2,0.4,0.2,0.6c-0.1,0.2-0.2,0.2-0.4,0.2c-0.1,0-0.3-0.1-0.4-0.1
			c-0.3-0.1-0.3-0.3-0.2-0.5C48.5,27.8,48.6,27.7,48.8,27.7z"/>
		<path class="st4" d="M50.5,29.6c0,0.1,0,0.3-0.2,0.4c-0.2,0.1-0.7-0.2-0.8-0.3c0-0.2,0-0.5,0.2-0.7c0.2-0.2,0.4,0,0.6,0.1
			C50.5,29.2,50.5,29.4,50.5,29.6z"/>
		<path class="st4" d="M50.2,26.2c-0.1-0.2-0.3-0.1-0.3-0.3c0-0.1,0-0.3,0.1-0.3c0.1-0.1,0.3,0,0.4,0.1c0.1,0.1,0.1,0.2,0.1,0.3
			c-0.1,0.1-0.1,0.2,0,0.3c0.1,0.1,0.1,0.4,0,0.5c-0.1,0.2-0.3,0-0.5,0c-0.2,0-0.2-0.2-0.2-0.3C49.8,26.3,49.9,26.2,50.2,26.2z"/>
		<path class="st4" d="M47.1,27.7C47.1,27.7,47,27.7,47.1,27.7c-0.2,0.1-0.2,0.3-0.4,0.3c-0.2,0-0.5-0.1-0.6-0.2
			c-0.2-0.1,0-0.3,0-0.5c0.1-0.2,0.2-0.3,0.4-0.2C46.9,27.2,47.1,27.3,47.1,27.7C47.1,27.7,47.1,27.7,47.1,27.7z"/>
		<path class="st4" d="M48.8,24.3c-0.4,0-0.4,0.3-0.4,0.6c0.1,0,0.1-0.1,0.2-0.1c0.1-0.3,0.3-0.2,0.4-0.1c0.2,0.1,0.1,0.3,0,0.4
			c-0.2,0.2-0.4,0-0.5-0.1c-0.1-0.1-0.2-0.1-0.3,0c-0.1,0-0.1,0.1-0.2,0c-0.1,0-0.2,0-0.2-0.1c0-0.1,0-0.2,0.1-0.2
			c0.2-0.1,0.5-0.3,0.6-0.5c0-0.1,0.2-0.1,0.3-0.1C48.9,24.1,48.8,24.2,48.8,24.3L48.8,24.3z"/>
		<path class="st4" d="M50.6,28.5c0,0.2,0,0.4-0.3,0.4c-0.4,0-0.6-0.2-0.6-0.5c0-0.4,0.1-0.5,0.3-0.5C50.4,28,50.6,28.2,50.6,28.5z"
			/>
		<path class="st4" d="M47.9,26.5c0.4,0.1,0.7,0.1,0.7,0.4c0,0.3-0.1,0.5-0.4,0.4c-0.4,0-0.7-0.2-0.7-0.4
			C47.5,26.7,47.6,26.5,47.9,26.5z"/>
		<path class="st4" d="M49.3,26.8c0.2,0.2,0.4,0.3,0.3,0.6c0,0.1,0,0.1-0.1,0.2c-0.1,0.1-0.7,0-0.8-0.1c-0.1-0.1-0.1-0.5,0-0.6
			c0.1-0.1,0.2-0.1,0.3-0.1C49.1,26.8,49.2,26.9,49.3,26.8L49.3,26.8z"/>
		<path class="st4" d="M47.4,26.7c-0.1,0.2-0.1,0.4-0.3,0.4c-0.3,0-0.6-0.2-0.6-0.4c0-0.2,0.2-0.5,0.4-0.5
			C47.1,26.3,47.4,26.5,47.4,26.7z"/>
		<path class="st4" d="M50.6,27.6c0,0.1,0,0.4-0.2,0.4c-0.3,0-0.6-0.2-0.6-0.4c0-0.2,0-0.5,0.3-0.5C50.4,27.1,50.6,27.2,50.6,27.6z"
			/>
		<path class="st4" d="M49.3,26.8c0-0.1-0.2-0.1-0.3-0.1c-0.2,0-0.3-0.1-0.3-0.3c0-0.2,0.1-0.4,0.4-0.3c0.1,0,0.1,0,0.2,0l0,0
			c0.1,0.1,0.2,0.1,0.3,0.2C49.8,26.4,49.7,26.7,49.3,26.8C49.3,26.8,49.3,26.8,49.3,26.8z"/>
		<path class="st4" d="M48.2,25.8c0.3,0,0.6,0.1,0.5,0.4c0,0.2-0.1,0.4-0.3,0.4c-0.2-0.1-0.6,0.1-0.6-0.3C47.8,26,48,25.8,48.2,25.8
			z"/>
		<path class="st4" d="M46.7,34.9c0-0.4,0.3-0.7,0.6-0.6c0.1,0,0.2,0.1,0.1,0.2c-0.1,0.2-0.2,0.4-0.4,0.6c0,0.1-0.1,0.2-0.2,0.2
			c-0.1,0-0.2-0.1-0.2-0.2C46.7,35,46.7,34.9,46.7,34.9z"/>
		<path class="st4" d="M50.1,31.3c-0.2,0.2-0.5,0.5-0.7,0.7c-0.1,0.1-0.2,0-0.2-0.1c-0.1-0.4,0.1-0.8,0.6-0.7
			C49.8,31.3,49.9,31.2,50.1,31.3z"/>
		<path class="st4" d="M47.7,25.9c-0.1,0.2-0.1,0.4-0.3,0.4c-0.2,0-0.5-0.2-0.5-0.3c0-0.2,0.1-0.4,0.4-0.4
			C47.4,25.6,47.7,25.6,47.7,25.9z"/>
		<path class="st4" d="M45.4,32.3c-0.1-0.4-0.2-0.7-0.3-1.1c0.3,0.1,0.6,0.1,0.6,0.4C45.7,31.8,45.6,32,45.4,32.3z"/>
		<path class="st4" d="M49.3,26c0-0.1-0.1-0.1-0.2-0.1C49,25.8,49,25.7,49,25.5c0-0.1,0.1-0.2,0.3-0.2c0.1,0,0.2,0,0.3,0.1
			c0.2,0,0.2,0.2,0.2,0.3C49.7,26,49.5,25.9,49.3,26C49.3,26,49.3,26,49.3,26z"/>
		<path class="st4" d="M48.6,25.7c-0.1-0.1-0.4,0-0.5-0.2c0-0.2,0.1-0.3,0.3-0.3c0.2,0,0.4,0,0.4,0.3C48.9,25.6,48.8,25.8,48.6,25.7
			z"/>
		<path class="st4" d="M48.8,24.3c0.2-0.2,0.5,0.1,0.7,0c0.1,0,0.2,0,0.3,0c0.1,0,0.2,0.1,0.2,0.2c0,0.1-0.1,0.1-0.2,0.1
			c-0.3,0-0.5-0.1-0.8-0.1C48.9,24.5,48.8,24.4,48.8,24.3C48.8,24.3,48.8,24.3,48.8,24.3z"/>
		<path class="st4" d="M47.7,25.1c0.1,0.1,0.4,0,0.4,0.2c0,0.1-0.1,0.4-0.3,0.3c-0.2,0-0.4,0-0.4-0.2C47.3,25.2,47.4,25,47.7,25.1z"
			/>
		<path class="st4" d="M49.8,25c0-0.1,0-0.2,0.1-0.2c0.1,0,0.2,0,0.2,0c0.1,0.1,0.1,0.2,0.1,0.3c0,0.1-0.1,0.1,0,0.2
			c0,0,0.2,0.1,0.1,0.2c0,0.1-0.1,0.1-0.2,0c-0.1,0-0.3-0.1-0.3-0.2C49.9,25.2,49.8,25.1,49.8,25z"/>
		<path class="st4" d="M49.4,24.7c0.1,0,0.3,0,0.3,0.2c0,0.1,0,0.4-0.2,0.4c-0.1,0-0.3,0-0.3-0.2C49.2,25,49.1,24.7,49.4,24.7z"/>
		<path class="st4" d="M49.3,24.2c-0.1,0-0.3,0-0.3-0.2c0-0.1,0.1-0.2,0.2-0.2c0.2,0,0.3,0.1,0.3,0.2C49.5,24.2,49.4,24.2,49.3,24.2
			z"/>
	</g>
	<path class="st3" d="M46.9,21c-0.1-0.1-0.2-0.3-0.3-0.4c0,0,0,0,0,0C46.8,20.7,46.9,20.8,46.9,21L46.9,21z"/>
	<path class="st3" d="M46.5,20.5c-0.1-0.1-0.1-0.1-0.2-0.2c0,0,0,0,0.1,0C46.5,20.3,46.5,20.4,46.5,20.5
		C46.6,20.4,46.5,20.5,46.5,20.5z"/>
	<path class="st3" d="M46.9,21C47,20.9,47,21,46.9,21C47,21,47,21,46.9,21C47,21,46.9,21,46.9,21C46.9,21,46.9,21,46.9,21z"/>
	<path class="st3" d="M47.1,21.2C47.1,21.2,47.1,21.2,47.1,21.2C47.1,21.2,47.1,21.2,47.1,21.2C47.1,21.2,47.1,21.2,47.1,21.2z"/>
	<path class="st3" d="M46.6,20.6C46.6,20.5,46.6,20.5,46.6,20.6c-0.1-0.1-0.1-0.1,0-0.1C46.6,20.5,46.6,20.5,46.6,20.6
		C46.6,20.5,46.6,20.6,46.6,20.6z"/>
	<path class="st3" d="M47.8,43.6C47.8,43.5,47.8,43.5,47.8,43.6C47.8,43.5,47.8,43.5,47.8,43.6C47.8,43.5,47.8,43.6,47.8,43.6
		C47.8,43.6,47.8,43.6,47.8,43.6z"/>
</g>
<path class="st5" d="M20,4h24c8.8,0,16,7.2,16,16v24c0,8.8-7.2,16-16,16H20c-8.8,0-16-7.2-16-16V20C4,11.2,11.2,4,20,4z"/>
<path class="st6" d="M20,4h24c8.8,0,16,7.2,16,16v24c0,8.8-7.2,16-16,16H20c-8.8,0-16-7.2-16-16V20C4,11.2,11.2,4,20,4z"/>
</svg>
