<svg id="Layer_1" data-name="Layer 1" xmlns="http://www.w3.org/2000/svg" viewBox="0 0 320 72"><defs><style>.cls-1,.cls-2{isolation:isolate;fill:#fff;}.cls-1{font-size:36px;font-family:NotoSansThai-ExtraBold, Noto Sans Thai;font-weight:800;}.cls-2{font-size:17px;font-family:NotoSansThai-Bold, Noto Sans Thai;font-weight:700;}.cls-3{fill:#418727;}.cls-4{fill:#f2b11a;}</style></defs><text class="cls-1" transform="translate(4 35)">KaonA-Agri</text><text class="cls-2" transform="translate(6 60)">แอพสมาชิกข้าวโพดอาหารสัตว์</text><path class="cls-3" d="M251.11,62.4c1.8-.66,2.38-2.41,3.07-3.86a40.5,40.5,0,0,1,17.24-18.36A12,12,0,0,1,279,38.72c.39,1-.53,1.19-1,1.6a28.77,28.77,0,0,0-7.45,10,86.58,86.58,0,0,1-4.74,8.4C261,66.18,250.35,67,245.2,60.37c-1.93-2.47-2.28-5.38-2-8.32a37.39,37.39,0,0,1,1.25-6.87c1.61-5.85,3.88-11.61,1.5-18,2.6.83,5.12,4.8,6,8.46a46.15,46.15,0,0,1-.25,22.73c-.29,1.16-.64,2.3-.93,3.45C250.72,62,250.94,62.16,251.11,62.4Z"/><path class="cls-4" d="M261.3,38.15c-.39,2-1.09,2.35-3,1.63-.54-.2-1.09-.39-1.62-.61-1.49-.62-1.69-1.08-1.12-2.43s1.13-1.67,2.65-1.17c.71.23,1.4.52,2.08.81A1.46,1.46,0,0,1,261.3,38.15Z"/><path class="cls-4" d="M263.86,37.84A14.3,14.3,0,0,1,267,39a1.5,1.5,0,0,1,.39,2.54c-.79.81-1.64,1.37-2.89.68a5.48,5.48,0,0,0-1.05-.38c-2.33-.74-2-1.78-1-3.49C262.72,37.73,263.34,37.78,263.86,37.84Z"/><path class="cls-4" d="M255.4,39.59a13.71,13.71,0,0,1,3,1.1c1.29.66,1.48,1.47.71,2.93-.57,1.08-1.07,1.2-2.54.6l-.47-.17c-2.09-.82-2.47-1.42-2.21-3.49C254,39.67,254.59,39.47,255.4,39.59Z"/><path class="cls-4" d="M258,50.81c-2,2.63-3.91,5.15-5.8,8a73.5,73.5,0,0,0,1.46-8.92c.06-.68.36-.67.88-.39a2.38,2.38,0,0,1,.65.36A2.37,2.37,0,0,0,258,50.81Z"/><path class="cls-4" d="M257.34,33.22c.3-1.89,1.2-2.36,3-1.66.47.18.94.35,1.4.54,1.5.62,1.69,1,1.17,2.44s-1,1.58-2.55,1.06c-.71-.24-1.4-.52-2.11-.78A1.25,1.25,0,0,1,257.34,33.22Z"/><path class="cls-4" d="M265.6,33.75a8.82,8.82,0,0,1,2.95,1.07c1.28.61.72,1.6.46,2.45a1.34,1.34,0,0,1-1.85.89c-.92-.28-1.82-.61-2.71-1a1.38,1.38,0,0,1-.88-2C263.94,34.35,264.2,33.31,265.6,33.75Z"/><path class="cls-4" d="M261.86,27.45l2,.78a1.46,1.46,0,0,1,.91,2.1c-.54,1.52-1.05,1.74-2.68,1.12L260.8,31c-1.8-.74-2.06-2.05-.68-3.33C260.53,27.23,261,27.28,261.86,27.45Z"/><path class="cls-4" d="M270.65,32.32c-.26,1.8-1.37,2.24-3.11,1.23-.35-.2-.77-.31-1.14-.48-1.3-.59-1.46-1-1-2.2.59-1.5,1.08-1.69,2.74-1,.42.17.85.33,1.27.51C270.65,30.87,270.81,31.13,270.65,32.32Z"/><path class="cls-4" d="M252.06,30.9c.49-1.6,1.11-2.56,2.83-1.63.43.23.94.34,1.36.58,1.07.61,1.15,1.38.43,2.71-.52,1-1.27,1.1-2.25.59s-2.12-.5-2.28-1.75C252.12,31.21,252.08,31,252.06,30.9Z"/><path class="cls-4" d="M272,28.22c-.15,1.57-1.1,2.14-2.49,1.32a6.53,6.53,0,0,0-1.18-.39c-1.5-.5-1.7-.88-1.19-2.23s.95-1.52,2.43-1.05c.44.14.87.3,1.29.47C272,26.81,272.15,27.11,272,28.22Z"/><path class="cls-4" d="M263.83,23.75c.44.17,1.28.45,2.06.81.93.43.86,1.14.54,1.89s-.66,1.57-1.84,1.23c-.8-.23-1.58-.54-2.35-.84a1.23,1.23,0,0,1-.82-1.79A1.75,1.75,0,0,1,263.83,23.75Z"/><path class="cls-4" d="M259.13,27.42a2.09,2.09,0,0,1-2.33,2c-1.72-.28-2.8-1.11-2.68-2.06.13-1.12,1.25-2.36,2.05-2.26C257.8,25.28,259.28,26.44,259.13,27.42Z"/><path class="cls-4" d="M275.61,34.25c-.24,1.37-.74,1.91-1.7,1.62-2.35-.71-3.07-.89-2.85-2.18.26-1.51.92-2.22,2-1.92C275.22,32.34,276,32.54,275.61,34.25Z"/><path class="cls-4" d="M259.81,44.26c.28-.72.34-1.85,1.44-2.11,1.28-.3,2.42.45,3.52,1,.47.24.09.44-.08.62a27,27,0,0,0-1.92,1.94c-.61.76-1.22.54-2,.22A1.41,1.41,0,0,1,259.81,44.26Z"/><path class="cls-4" d="M257.59,46.73c-.3,2.06-1.4,2.72-3.09,2a1,1,0,0,1-.68-1.08c.08-1,.13-2,.17-3,0-.23-.05-.46.34-.47a6.85,6.85,0,0,1,3.13,1.61A1.49,1.49,0,0,1,257.59,46.73Z"/><path class="cls-4" d="M263.24,21c1.48-1.12,2.46-1.14,4.19-.11,1,.58.88,1.32.46,2.11s-1,1.25-2,.8c-.23-.1-.46-.18-.7-.26-2-.69-2-.69-2-2.55Z"/><path class="cls-4" d="M261.18,23.66c-.21,1.24-1.09,2.1-2,1.92-1.64-.32-2.94-1.25-2.81-2,.18-1.06,1.24-2.1,2-2C260.2,21.87,261.34,22.72,261.18,23.66Z"/><path class="cls-4" d="M270.52,22a15,15,0,0,1,2.05.87c1.05.64.71,1.56.38,2.39s-1.12.77-1.88.52c-.59-.2-1.16-.45-1.74-.68-1.06-.42-.92-1.18-.66-1.95S269.41,21.71,270.52,22Z"/><path class="cls-4" d="M276.59,30.32c-.11.47-.09,1.3-1.11,1.45-.74.12-3-1-3.07-1.53a2.37,2.37,0,0,1,1-2.45c.89-.5,1.83.22,2.67.58S276.76,29.43,276.59,30.32Z"/><path class="cls-4" d="M277.09,17c-.31-.72-1.37-.61-1.24-1.39.07-.46.15-1,.71-1.11a1.93,1.93,0,0,1,1.65.62,1,1,0,0,1,.07,1.38c-.5.49-.42.75,0,1.29a1.57,1.57,0,0,1-.2,2c-.68.63-1.38-.16-2-.34s-.63-.79-.56-1.35C275.53,17.25,276,16.83,277.09,17Z"/><path class="cls-4" d="M263.25,21c-.14-.16-.28-.11-.4,0-.37.43-.59,1.13-1.36,1a5,5,0,0,1-2.59-1.13c-.67-.62,0-1.3.35-1.88a1.46,1.46,0,0,1,1.8-.65c1.44.41,2.29,1.18,2.19,2.64Z"/><path class="cls-4" d="M272.23,8.68c-1.63-.2-2,.82-2.18,2a.67.67,0,0,0,.74-.43c.53-1,1.36-.64,1.93-.19.74.59.15,1.35-.31,1.67-.78.55-1.72-.09-2.14-.57s-.7-.46-1.15-.25a1,1,0,0,1-.95.05c-.33-.15-.81-.2-.87-.59a.89.89,0,0,1,.68-.88,7.36,7.36,0,0,0,2.88-1.57,1.19,1.19,0,0,1,1.19-.16c.55.2.08.6.18.9Z"/><path class="cls-4" d="M277.44,26.19c-.19.59-.12,1.54-1.38,1.39-1.58-.19-2.61-1.09-2.44-2.13.22-1.36.65-1.77,1.69-1.63C277,24.05,277.66,24.72,277.44,26.19Z"/><path class="cls-4" d="M267,16.9c1.75.55,2.75.91,2.55,2s-.83,1.67-1.74,1.53c-1.65-.26-2.77-1.05-2.64-1.86A1.72,1.72,0,0,1,267,16.9Z"/><path class="cls-4" d="M273.18,18.85c.72.74,1.36,1.51.8,2.56a1.87,1.87,0,0,1-.39.56c-.45.35-3-.33-3.46-.9a2.17,2.17,0,0,1,.47-2.23c.37-.31.77-.18,1.18-.17s.89.52,1.41.19Z"/><path class="cls-4" d="M265,17.28c-.38.56-.46,1.56-1.66,1.4-1.39-.17-2.6-1.06-2.46-1.73a2.21,2.21,0,0,1,1.94-1.64C264.07,15.48,265.16,16.4,265,17.28Z"/><path class="cls-4" d="M278.06,22.38c-.15.57-.15,1.4-1.23,1.29-1.45-.16-2.43-1-2.22-1.85s.2-1.8,1.58-1.62S278.23,21,278.06,22.38Z"/><path class="cls-4" d="M273.19,18.86c-.07-.55-.64-.52-1-.64-.82-.26-1.21-.65-.91-1.45s.57-1.39,1.65-1.1c.23.06.47.2.69,0l0,0c.17.53.87.47,1.16.9.65,1-.09,2.09-1.58,2.31Z"/><path class="cls-4" d="M268.7,14.15c1.44.21,2.3.86,2.13,1.71-.14.68-.45,1.6-1.36,1.24s-2.4-.1-2.47-1.51A1.47,1.47,0,0,1,268.7,14.15Z"/><path class="cls-4" d="M257.88,48.61c.31-1.7,1.5-2.49,2.88-1.94.55.22.73.44.27.91-.64.65-1.22,1.34-1.83,2-.22.24-.36.7-.82.53a.91.91,0,0,1-.56-1.06Z"/><path class="cls-4" d="M273.89,36.76c-1.12.74-2.2,1.49-3.31,2.19-.66.41-.79-.15-.88-.54-.38-1.77.95-2.86,2.78-2.28A2.86,2.86,0,0,1,273.89,36.76Z"/><path class="cls-4" d="M266.81,14.34c-.35.65-.55,1.4-1.54,1.31s-2.22-1-2-1.52c.26-.73.74-1.42,1.69-1.2C265.72,13.12,266.7,13.32,266.81,14.34Z"/><path class="cls-4" d="M253.54,37.82c-.3-1.63-.55-3-.82-4.56,1.08.44,2.31.6,2.43,1.73S254.65,36.94,253.54,37.82Z"/><path class="cls-4" d="M273.62,15.66c0-.52-.5-.44-.77-.58-.71-.39-.53-.91-.36-1.41a.9.9,0,0,1,1.19-.53,6.51,6.51,0,0,1,1.05.36,1.11,1.11,0,0,1,.71,1.33c-.19,1.05-1.16.65-1.84.81Z"/><path class="cls-4" d="M270.49,14.18c-.51-.4-1.85,0-1.79-1.21a1.1,1.1,0,0,1,1.57-1c.77.23,1.75.36,1.66,1.38C271.87,14,271.44,14.42,270.49,14.18Z"/><path class="cls-4" d="M272.23,8.68c1.09-.51,1.93.54,3,.47.32,0,.65.25,1.12.2a.81.81,0,0,1,.82,1c-.08.49-.58.19-.93.18-1.22,0-2.23-.8-3.44-.9-.41,0-.86-.38-.55-.92Z"/><path class="cls-4" d="M267,11.06c.43.27,1.49.15,1.4,1A1.1,1.1,0,0,1,267,13.12c-.62-.19-1.69-.16-1.6-1.09C265.42,11.4,266,10.85,267,11.06Z"/><path class="cls-4" d="M276.14,12.15c.06-.41.16-.76.53-.91a.77.77,0,0,1,.89.24,1.15,1.15,0,0,1,.25,1.19c-.09.25-.57.37-.21.75.19.21.7.31.43.71s-.65.14-.91,0c-.43-.18-1.18-.61-1-.85C276.57,12.82,275.82,12.47,276.14,12.15Z"/><path class="cls-4" d="M274.65,10.65c.51.09,1.21.28,1,.94-.17.48,0,1.41-1,1.33-.58-.05-1.37-.31-1.3-.87S273.3,10.45,274.65,10.65Z"/><path class="cls-4" d="M274.4,8.52c-.49-.14-1.17-.18-1.12-.82,0-.46.56-.62,1.06-.55s1.17.41,1.1,1.06S274.8,8.51,274.4,8.52Z"/></svg>