<svg id="Layer_1" data-name="Layer 1" xmlns="http://www.w3.org/2000/svg" viewBox="0 0 320 72"><defs><style>.cls-1{fill:#519028;}.cls-2{fill:#fcc600;}.cls-3,.cls-4{isolation:isolate;}.cls-3{font-size:36px;fill:#1b5e20;font-family:NotoSansThai-ExtraBold, Noto Sans Thai;font-weight:800;}.cls-4{font-size:17px;fill:#2e7d32;font-family:NotoSansThai-Bold, Noto Sans Thai;font-weight:700;}.cls-5{fill:#e8f5e9;stroke:#2e7d32;stroke-width:4px;}.cls-6{fill:#0e4c21;}</style></defs><path class="cls-1" d="M214.05,22.79c-.22.32-.46.65-.67,1a18.83,18.83,0,0,0-2,4.67,18.68,18.68,0,0,1-1.73,4.1,7.36,7.36,0,0,1-1.92,2.24.53.53,0,0,1-.48.1c-.46-.11-.91-.23-1.38-.3-.26,0-.28-.13-.21-.37a26,26,0,0,1,2.48-5.58,18.35,18.35,0,0,1,3.24-4.15A9.43,9.43,0,0,1,213.5,23c.17-.09.35-.16.52-.24Z"/><path class="cls-1" d="M203,20.69a8.64,8.64,0,0,1,1.58,2.93,20.2,20.2,0,0,1,.83,7.84c-.06.87-.19,1.73-.32,2.6,0,.24-.11.34-.39.3a13.58,13.58,0,0,0-1.43-.15.42.42,0,0,1-.41-.3,8.43,8.43,0,0,1-.68-4,36.78,36.78,0,0,1,.83-5.2,10.33,10.33,0,0,0,0-3.84S203,20.81,203,20.69Z"/><path class="cls-1" d="M215,28.84a11.51,11.51,0,0,0-3.27,3.64,11.67,11.67,0,0,1-1.63,2.21l-.21.2c-.81.63-.59.56-1.6.18a12.37,12.37,0,0,0,3.08-4.85.64.64,0,0,1,.19-.29,6,6,0,0,1,3.26-1.16A.17.17,0,0,1,215,28.84Z"/><path class="cls-2" d="M207.7,24.94c0,.57-.2.7-.73.57l-.44-.11c-.41-.12-.47-.24-.37-.65s.23-.51.64-.42a4,4,0,0,1,.57.15A.41.41,0,0,1,207.7,24.94Z"/><path class="cls-2" d="M208.35,24.75a3.23,3.23,0,0,1,.84.2.44.44,0,0,1,.19.7c-.18.26-.38.45-.72.3a1.37,1.37,0,0,0-.29-.07c-.62-.12-.58-.42-.38-.94C208.05,24.76,208.21,24.76,208.35,24.75Z"/><path class="cls-2" d="M206.22,25.56a3.56,3.56,0,0,1,.81.2c.35.14.43.36.28.8s-.23.38-.63.26l-.13,0c-.57-.15-.69-.31-.69-.9C205.86,25.64,206,25.56,206.22,25.56Z"/><path class="cls-2" d="M207.28,28.62c-.43.81-.83,1.6-1.22,2.47a24.83,24.83,0,0,0,.07-2.56c0-.19.07-.2.21-.14a.48.48,0,0,1,.18.07A.58.58,0,0,0,207.28,28.62Z"/><path class="cls-2" d="M206.51,23.7c0-.55.23-.71.73-.58l.38.1c.41.11.47.22.38.64s-.21.48-.62.39l-.57-.14A.34.34,0,0,1,206.51,23.7Z"/><path class="cls-2" d="M208.66,23.54a2.13,2.13,0,0,1,.8.19c.35.12.24.42.2.67a.35.35,0,0,1-.45.32c-.24,0-.49-.1-.73-.17a.39.39,0,0,1-.29-.53C208.25,23.77,208.29,23.47,208.66,23.54Z"/><path class="cls-2" d="M207.48,21.9l.54.15c.29.08.36.28.31.56-.09.44-.21.53-.66.41l-.35-.09c-.49-.14-.6-.5-.29-.91C207.13,21.89,207.25,21.89,207.48,21.9Z"/><path class="cls-2" d="M209.92,23c0,.51-.28.68-.76.46a3,3,0,0,0-.32-.09c-.35-.12-.41-.22-.32-.59s.22-.51.67-.39l.35.1C209.87,22.54,209.92,22.61,209.92,23Z"/><path class="cls-2" d="M205.06,23.24c.08-.47.2-.76.68-.56.12.05.25.06.37.11.3.13.35.34.21.75a.38.38,0,0,1-.57.24c-.24-.09-.56-.06-.65-.4A1.27,1.27,0,0,0,205.06,23.24Z"/><path class="cls-2" d="M210.12,21.75c0,.44-.21.64-.6.46a1.55,1.55,0,0,0-.31-.07c-.41-.08-.47-.18-.39-.58s.2-.46.6-.39l.34.09C210.07,21.35,210.13,21.43,210.12,21.75Z"/><path class="cls-2" d="M207.86,20.79c.12,0,.35.08.56.15s.26.29.21.51-.12.47-.44.42-.42-.09-.63-.15a.35.35,0,0,1-.28-.47C207.35,21,207.41,20.74,207.86,20.79Z"/><path class="cls-2" d="M206.77,22c0,.38-.23.65-.53.64-.45,0-.76-.2-.77-.48s.25-.71.46-.71C206.36,21.44,206.78,21.72,206.77,22Z"/><path class="cls-2" d="M211.26,23.31c0,.39-.12.56-.38.51-.63-.11-.82-.13-.81-.5s.16-.66.46-.62C211.1,22.78,211.3,22.81,211.26,23.31Z"/><path class="cls-2" d="M207.52,26.71c0-.21,0-.53.3-.65a1.29,1.29,0,0,1,1,.16c.13.05,0,.12,0,.17a6.26,6.26,0,0,0-.43.62c-.13.24-.3.2-.5.14A.41.41,0,0,1,207.52,26.71Z"/><path class="cls-2" d="M207,27.49c0,.59-.27.82-.73.67a.26.26,0,0,1-.21-.27c0-.29,0-.57-.06-.85,0-.06,0-.13.07-.14a1.82,1.82,0,0,1,.87.33A.45.45,0,0,1,207,27.49Z"/><path class="cls-2" d="M207.62,20a.76.76,0,0,1,1.08-.18c.27.12.27.34.19.58s-.21.38-.49.29l-.19-.05c-.54-.11-.54-.11-.59-.64Z"/><path class="cls-2" d="M207.17,20.86c0,.36-.21.63-.44.62-.44,0-.81-.24-.8-.46s.25-.64.45-.64C206.86,20.4,207.18,20.59,207.17,20.86Z"/><path class="cls-2" d="M209.53,20a2.6,2.6,0,0,1,.56.17c.29.14.24.41.18.66s-.26.25-.47.21a4.12,4.12,0,0,1-.47-.13c-.29-.08-.28-.29-.24-.52S209.23,20,209.53,20Z"/><path class="cls-2" d="M211.38,22.16c0,.14,0,.37-.23.45s-.82-.17-.85-.31a.71.71,0,0,1,.17-.73c.21-.17.48,0,.71.07S211.4,21.91,211.38,22.16Z"/><path class="cls-2" d="M211.06,18.4c-.11-.19-.38-.12-.37-.35s0-.29.15-.34a.48.48,0,0,1,.44.12.28.28,0,0,1,.07.38c-.11.16-.09.23,0,.37a.48.48,0,0,1,0,.58c-.16.2-.36,0-.54,0s-.19-.2-.19-.36S210.78,18.39,211.06,18.4Z"/><path class="cls-2" d="M207.62,20s-.08,0-.1,0-.12.34-.32.34a1.18,1.18,0,0,1-.71-.23c-.19-.15-.05-.36,0-.54a.38.38,0,0,1,.44-.25.67.67,0,0,1,.66.66Z"/><path class="cls-2" d="M209.52,16.24c-.43,0-.48.3-.5.65a.18.18,0,0,0,.18-.15c.1-.31.33-.23.49-.13s.09.38,0,.49-.45,0-.57-.08-.2-.11-.31,0a.26.26,0,0,1-.24.05c-.09,0-.22,0-.25-.14a.26.26,0,0,1,.15-.27,1.94,1.94,0,0,0,.69-.55.29.29,0,0,1,.3-.09c.15,0,0,.17.08.25Z"/><path class="cls-2" d="M211.46,21c0,.17,0,.44-.31.44s-.71-.21-.7-.5.11-.53.38-.53C211.28,20.38,211.47,20.55,211.46,21Z"/><path class="cls-2" d="M208.45,18.74c.48.09.75.16.73.46s-.16.5-.4.49c-.43,0-.75-.19-.74-.42A.48.48,0,0,1,208.45,18.74Z"/><path class="cls-2" d="M210.11,19.06c.21.19.4.38.29.69a.58.58,0,0,1-.08.18,1.19,1.19,0,0,1-.92-.13.64.64,0,0,1,0-.64c.09-.1.2-.08.3-.09s.25.11.37,0Z"/><path class="cls-2" d="M207.94,18.93c-.08.17-.06.45-.38.45s-.7-.2-.69-.39.26-.54.44-.54S208,18.67,207.94,18.93Z"/><path class="cls-2" d="M211.49,19.88c0,.16,0,.4-.27.4s-.66-.18-.64-.43,0-.52.35-.52S211.49,19.49,211.49,19.88Z"/><path class="cls-2" d="M210.11,19.07c0-.15-.18-.13-.28-.15s-.33-.13-.28-.37.1-.41.39-.37c.06,0,.13,0,.18,0h0c.06.15.24.1.33.22s.05.59-.33.7Z"/><path class="cls-2" d="M208.79,17.91c.38,0,.63.16.61.4s-.06.47-.31.4-.62.06-.69-.33A.41.41,0,0,1,208.79,17.91Z"/><path class="cls-2" d="M207.17,28c0-.49.31-.76.68-.66.15,0,.21.1.1.25s-.27.42-.4.63-.07.21-.19.18a.25.25,0,0,1-.19-.27Z"/><path class="cls-2" d="M210.9,24.08l-.77.74c-.16.14-.21,0-.25-.12a.54.54,0,0,1,.64-.75A.65.65,0,0,1,210.9,24.08Z"/><path class="cls-2" d="M208.31,18c-.07.2-.09.42-.35.43s-.61-.19-.58-.35.14-.43.4-.4S208.25,17.75,208.31,18Z"/><path class="cls-2" d="M205.68,25.13l-.36-1.25c.29.08.61.08.68.39A1,1,0,0,1,205.68,25.13Z"/><path class="cls-2" d="M210.12,18.15c0-.15-.15-.1-.22-.13s-.17-.24-.14-.39a.22.22,0,0,1,.28-.19,1.36,1.36,0,0,1,.29.06.32.32,0,0,1,.23.35c0,.3-.28.23-.45.29Z"/><path class="cls-2" d="M209.26,17.85c-.15-.09-.48.06-.51-.27a.3.3,0,0,1,.37-.34c.21,0,.47,0,.48.33S209.51,17.88,209.26,17.85Z"/><path class="cls-2" d="M209.52,16.24c.26-.19.52.08.78,0,.09,0,.18,0,.3,0s.25.11.25.25-.15.07-.24.08c-.32,0-.6-.14-.92-.12a.17.17,0,0,1-.17-.24Z"/><path class="cls-2" d="M208.24,17.1c.12.06.39,0,.4.23s-.08.4-.33.35-.45,0-.45-.24A.32.32,0,0,1,208.24,17.1Z"/><path class="cls-2" d="M210.65,17.07c0-.12,0-.22.1-.28a.19.19,0,0,1,.24,0,.36.36,0,0,1,.11.32c0,.08-.14.13,0,.22s.19.06.13.18-.16.07-.23.05-.33-.13-.28-.2S210.58,17.17,210.65,17.07Z"/><path class="cls-2" d="M210.21,16.7c.13,0,.32,0,.29.23s0,.4-.22.41-.37,0-.37-.19S209.85,16.7,210.21,16.7Z"/><path class="cls-2" d="M210.07,16.11c-.13,0-.31,0-.32-.19s.13-.19.26-.19.32.07.32.26S210.18,16.09,210.07,16.11Z"/><text class="cls-3" transform="translate(4 35)">KaonA-Agri</text><text class="cls-4" transform="translate(6 60)">แอพสมาชิกข้าวโพดอาหารสัตว์</text><rect class="cls-5" x="241.46" y="9.72" width="52.3" height="52.3" rx="13.7"/><path class="cls-6" d="M264.88,37.56a19.34,19.34,0,0,0-1.72,3.76.28.28,0,0,1-.32.22h-3.36c-.19,0-.25,0-.17-.24q1.95-4.87,3.94-9.72c1-2.38,1.95-4.77,2.92-7.15a.3.3,0,0,1,.34-.23c.9,0,1.8,0,2.7,0,.12,0,.21,0,.26.15l2.92,7.2,0,.07c.09.17.06.23-.15.24a9,9,0,0,0-2.73.42c-.16,0-.16-.05-.19-.14-.44-1.11-.87-2.23-1.3-3.35l-.23-.58-3.62,9.3c.14-.06.15-.2.22-.28,0,.2,0,.34.27.33Z"/><path class="cls-1" d="M280.55,25.84a17.89,17.89,0,0,0-2.73-2.56,15,15,0,0,0-10.25-3A15.92,15.92,0,0,0,256,26.09a15,15,0,0,0-2.93,5.53,15.71,15.71,0,0,0,3.42,15.22A16.49,16.49,0,0,0,266,52.19a16.32,16.32,0,0,0,5.17.21h.08l0,0c0,.08-.09.06-.14.07a16.91,16.91,0,0,1-13.3-3,16.35,16.35,0,0,1-6.23-9,16,16,0,0,1-.29-7.91,16.48,16.48,0,0,1,8.27-11.32,16.18,16.18,0,0,1,5.63-1.86,16,16,0,0,1,9.21,1.3,15.41,15.41,0,0,1,6.17,5.14Z"/><path class="cls-6" d="M270.29,46.71c-.56.3-1.08.58-1.59.87-.29.16-.58.34-.86.53a.26.26,0,0,1-.36,0,20,20,0,0,0-4.6-2.79A15,15,0,0,0,256.64,44c-.36,0-.72,0-1.08.08a.26.26,0,0,1-.29-.15c-.28-.5-.55-1-.79-1.52-.08-.18,0-.22.14-.25a18.66,18.66,0,0,1,5.33.07,21.68,21.68,0,0,1,9.71,4c.18.13.35.28.52.41Z"/><path class="cls-6" d="M255.66,44.56a16.34,16.34,0,0,1,11.08,4.27l-.72.54c-.61.46-1.18,1-1.75,1.46a.28.28,0,0,1-.32.07,16.85,16.85,0,0,1-5.6-3.26A14.92,14.92,0,0,1,256,45Z"/><path class="cls-1" d="M264.88,37.56h-.19c-.23,0-.29-.13-.27-.33a10.58,10.58,0,0,1,2-2.55,8.45,8.45,0,0,1,5.38-2.21,6.79,6.79,0,0,0,3-.69A7.87,7.87,0,0,1,272,36.33a8.58,8.58,0,0,1-6.54,1.48,8.72,8.72,0,0,1,2.6-2.57,11.32,11.32,0,0,1,3.35-1.39,6.37,6.37,0,0,0-2,.31,7.84,7.84,0,0,0-2.7,1.41,7,7,0,0,0-1.47,1.56C265.1,37.28,265,37.42,264.88,37.56Z"/><path class="cls-6" d="M276.41,41.53h-3.56a.17.17,0,0,1-.19-.14c-.47-1.24-.94-2.48-1.4-3.72,0-.08-.1-.17,0-.23a6.67,6.67,0,0,0,2.58-2.23Z"/><path class="cls-1" d="M265.62,51.37a22.85,22.85,0,0,1,16.49-6.82c-.11.27-.2.46-.49.52A19.3,19.3,0,0,0,271,51.47a1,1,0,0,1-.85.38A16.61,16.61,0,0,1,265.62,51.37Z"/><path class="cls-1" d="M268.57,44.75a17.28,17.28,0,0,1,3.53-1.14,18.09,18.09,0,0,1,5.24-.4,20.28,20.28,0,0,1,4.82.95s.19,0,.13.11-.07.24-.25.22c-.41,0-.81-.05-1.22-.07a22,22,0,0,0-5.36.52,22.76,22.76,0,0,0-4.24,1.36c-.08,0-.15.08-.25,0A20.19,20.19,0,0,0,268.57,44.75Z"/><path class="cls-1" d="M281.74,45.17a9.28,9.28,0,0,1-1,1.45,13.69,13.69,0,0,1-5.58,4.2,13.2,13.2,0,0,1-2.54.74l-.19,0a6.45,6.45,0,0,1,.75-.94,19.38,19.38,0,0,1,7.66-5.18,3.77,3.77,0,0,1,.93-.31Z"/><path class="cls-1" d="M286,34.06c-.17.25-.35.49-.51.74A13.88,13.88,0,0,0,284,38.29a14,14,0,0,1-1.3,3.06A5.67,5.67,0,0,1,281.26,43a.4.4,0,0,1-.36.08c-.34-.09-.68-.17-1-.23-.19,0-.21-.1-.16-.27a19.32,19.32,0,0,1,1.86-4.18,13.71,13.71,0,0,1,2.42-3.1,7.22,7.22,0,0,1,1.56-1.13l.39-.18Z"/><path class="cls-1" d="M277.67,32.5a6.5,6.5,0,0,1,1.18,2.19,15.1,15.1,0,0,1,.62,5.86c-.05.65-.15,1.29-.24,1.94,0,.18-.08.26-.29.23a10,10,0,0,0-1.07-.11.32.32,0,0,1-.31-.23,6.4,6.4,0,0,1-.51-3,30,30,0,0,1,.62-3.89,7.75,7.75,0,0,0,0-2.88A.5.5,0,0,1,277.67,32.5Z"/><path class="cls-1" d="M286.65,38.59a8.59,8.59,0,0,0-2.44,2.72A8.91,8.91,0,0,1,283,43a1.14,1.14,0,0,1-.16.15c-.6.47-.44.42-1.19.13a9,9,0,0,0,2.3-3.62.46.46,0,0,1,.15-.22,4.44,4.44,0,0,1,2.43-.86S286.6,38.52,286.65,38.59Z"/><path class="cls-2" d="M281.22,35.67c0,.43-.15.53-.55.43l-.33-.09c-.3-.08-.35-.17-.27-.48s.17-.38.48-.31a3.25,3.25,0,0,1,.42.11A.31.31,0,0,1,281.22,35.67Z"/><path class="cls-2" d="M281.7,35.54a2.21,2.21,0,0,1,.64.14.34.34,0,0,1,.14.53c-.14.19-.29.33-.55.22a.72.72,0,0,0-.21,0c-.47-.09-.44-.32-.29-.71C281.48,35.54,281.6,35.54,281.7,35.54Z"/><path class="cls-2" d="M280.12,36.14a2,2,0,0,1,.6.15c.26.1.32.27.21.59s-.18.29-.48.2l-.09,0c-.43-.12-.52-.23-.52-.67C279.84,36.19,280,36.13,280.12,36.14Z"/><path class="cls-2" d="M280.9,38.43c-.32.61-.62,1.19-.91,1.85a18,18,0,0,0,.05-1.92c0-.15.06-.15.16-.11a.59.59,0,0,1,.14.06A.44.44,0,0,0,280.9,38.43Z"/><path class="cls-2" d="M280.33,34.74c0-.4.17-.53.54-.43l.29.08c.3.08.35.16.29.48s-.17.36-.47.29l-.43-.1A.27.27,0,0,1,280.33,34.74Z"/><path class="cls-2" d="M281.94,34.63a1.5,1.5,0,0,1,.59.14c.27.09.18.32.15.5a.25.25,0,0,1-.33.24,5.47,5.47,0,0,1-.55-.13.29.29,0,0,1-.22-.4C281.63,34.8,281.66,34.57,281.94,34.63Z"/><path class="cls-2" d="M281.05,33.4l.41.11a.32.32,0,0,1,.23.42c-.07.33-.16.4-.49.31l-.26-.07c-.37-.1-.45-.37-.22-.68C280.79,33.4,280.88,33.39,281.05,33.4Z"/><path class="cls-2" d="M282.87,34.19c0,.38-.2.5-.56.34l-.24-.07c-.26-.09-.3-.16-.24-.44s.17-.38.5-.29l.26.07C282.84,33.88,282.88,33.93,282.87,34.19Z"/><path class="cls-2" d="M279.25,34.4c.05-.35.15-.57.5-.42.09,0,.19.05.28.09s.26.25.15.55a.28.28,0,0,1-.42.19c-.18-.07-.42-.05-.48-.3Z"/><path class="cls-2" d="M283,33.29c0,.33-.16.48-.45.34a1.69,1.69,0,0,0-.24-.05c-.3-.06-.35-.13-.28-.43s.14-.35.44-.29l.26.06C283,33,283,33.05,283,33.29Z"/><path class="cls-2" d="M281.34,32.57c.09,0,.26.06.42.12s.19.21.15.38-.09.35-.32.31l-.48-.11a.26.26,0,0,1-.2-.36C281,32.73,281,32.54,281.34,32.57Z"/><path class="cls-2" d="M280.53,33.48a.44.44,0,0,1-.4.48c-.34,0-.57-.16-.58-.36s.19-.53.34-.53C280.21,33.06,280.53,33.27,280.53,33.48Z"/><path class="cls-2" d="M283.88,34.45c0,.3-.09.42-.28.39-.48-.08-.62-.1-.61-.38s.12-.49.35-.46C283.76,34.06,283.91,34.08,283.88,34.45Z"/><path class="cls-2" d="M281.09,37c0-.16,0-.4.22-.49a1,1,0,0,1,.71.12c.09,0,0,.09,0,.13s-.23.3-.33.46-.22.15-.37.1A.28.28,0,0,1,281.09,37Z"/><path class="cls-2" d="M280.72,37.58c0,.44-.2.61-.55.51a.19.19,0,0,1-.15-.21c0-.21,0-.42,0-.63,0,0,0-.1.06-.11a1.27,1.27,0,0,1,.64.25A.29.29,0,0,1,280.72,37.58Z"/><path class="cls-2" d="M281.16,32a.57.57,0,0,1,.8-.14.31.31,0,0,1,.14.44c-.05.17-.15.28-.36.22l-.14,0c-.4-.09-.4-.09-.44-.48Z"/><path class="cls-2" d="M280.83,32.63c0,.26-.16.47-.34.46s-.6-.18-.59-.35.18-.48.33-.47C280.59,32.28,280.83,32.42,280.83,32.63Z"/><path class="cls-2" d="M282.59,32a2,2,0,0,1,.41.13c.22.1.18.3.14.49s-.2.19-.35.16l-.35-.1c-.22,0-.21-.22-.18-.39S282.36,32,282.59,32Z"/><path class="cls-2" d="M284,33.6c0,.1,0,.28-.18.34s-.61-.13-.63-.24a.52.52,0,0,1,.13-.54c.16-.13.36,0,.53,0S284,33.41,284,33.6Z"/><path class="cls-2" d="M283.73,30.78c-.08-.14-.28-.09-.28-.26s0-.21.11-.25a.36.36,0,0,1,.34.09.22.22,0,0,1,.05.29c-.09.11-.07.16,0,.27a.35.35,0,0,1,0,.43c-.11.15-.27,0-.4,0s-.14-.15-.14-.27S283.52,30.78,283.73,30.78Z"/><path class="cls-2" d="M281.16,32s-.06,0-.08,0-.08.25-.24.25a1,1,0,0,1-.53-.17c-.14-.11,0-.27,0-.4a.28.28,0,0,1,.33-.19c.29.05.48.19.5.49Z"/><path class="cls-2" d="M282.58,29.17c-.32,0-.36.23-.37.49.08,0,.11-.07.13-.12.07-.23.25-.17.37-.09s.06.28,0,.36-.33,0-.43-.06-.14-.08-.23,0a.19.19,0,0,1-.18,0c-.07,0-.16,0-.18-.1a.19.19,0,0,1,.11-.21,1.45,1.45,0,0,0,.51-.41.23.23,0,0,1,.23-.07c.11,0,0,.13.06.19Z"/><path class="cls-2" d="M284,32.71c0,.13,0,.32-.23.33s-.53-.16-.53-.38.08-.39.29-.39S284,32.39,284,32.71Z"/><path class="cls-2" d="M281.78,31c.36.07.56.12.55.34s-.12.38-.3.37-.56-.14-.56-.32A.35.35,0,0,1,281.78,31Z"/><path class="cls-2" d="M283,31.28c.16.14.3.28.22.52a.75.75,0,0,1-.06.13.91.91,0,0,1-.69-.1.49.49,0,0,1,0-.48c.06-.08.15-.06.23-.07s.18.09.27,0Z"/><path class="cls-2" d="M281.4,31.18c-.06.13,0,.34-.29.34s-.52-.15-.51-.3.19-.4.33-.4S281.41,31,281.4,31.18Z"/><path class="cls-2" d="M284.05,31.89c0,.12,0,.3-.2.3s-.5-.14-.48-.32,0-.39.27-.39S284.05,31.6,284.05,31.89Z"/><path class="cls-2" d="M283,31.28c0-.11-.13-.09-.21-.1s-.25-.11-.21-.28.08-.31.29-.28c.05,0,.1,0,.13,0h0c.05.11.18.08.25.16s0,.44-.25.53Z"/><path class="cls-2" d="M282,30.42c.28,0,.46.12.45.3s-.05.35-.23.3-.47,0-.52-.25A.31.31,0,0,1,282,30.42Z"/><path class="cls-2" d="M280.82,38c0-.37.23-.57.51-.49.11,0,.15.07.08.18s-.2.32-.3.48-.06.15-.15.13-.13-.11-.14-.21Z"/><path class="cls-2" d="M283.61,35l-.58.55c-.12.11-.15,0-.18-.09a.39.39,0,0,1,.48-.55A.44.44,0,0,1,283.61,35Z"/><path class="cls-2" d="M281.67,30.51c-.05.15-.07.31-.26.32s-.45-.14-.43-.27.11-.31.3-.29S281.63,30.3,281.67,30.51Z"/><path class="cls-2" d="M279.71,35.82l-.27-.94c.22.06.46.06.51.3A.74.74,0,0,1,279.71,35.82Z"/><path class="cls-2" d="M283,30.6c0-.11-.1-.08-.16-.1s-.12-.18-.11-.29a.18.18,0,0,1,.22-.14.78.78,0,0,1,.21,0,.23.23,0,0,1,.17.26c0,.23-.2.17-.33.22Z"/><path class="cls-2" d="M282.38,30.37c-.11-.07-.36.05-.38-.2a.22.22,0,0,1,.28-.25c.16,0,.35,0,.36.24S282.57,30.4,282.38,30.37Z"/><path class="cls-2" d="M282.58,29.17c.19-.14.38.06.58,0s.14,0,.23,0,.19.07.18.18-.11.05-.18.06c-.23,0-.45-.11-.68-.09-.08,0-.18-.06-.13-.18Z"/><path class="cls-2" d="M281.62,29.81c.09.05.29,0,.3.17s-.06.3-.25.27-.33,0-.33-.19A.24.24,0,0,1,281.62,29.81Z"/><path class="cls-2" d="M283.42,29.79a.23.23,0,0,1,.08-.21.15.15,0,0,1,.18,0,.25.25,0,0,1,.08.24c0,.06-.1.1,0,.17s.14,0,.1.13-.13.05-.18,0-.24-.1-.21-.16S283.37,29.87,283.42,29.79Z"/><path class="cls-2" d="M283.09,29.52c.1,0,.25,0,.22.17s0,.29-.17.3-.27,0-.27-.14S282.83,29.51,283.09,29.52Z"/><path class="cls-2" d="M283,29.07c-.1,0-.23,0-.24-.14s.1-.14.2-.14.23.05.23.19S283.07,29.06,283,29.07Z"/><path class="cls-1" d="M281,26.42l-.25-.34,0,0c.08.12.21.21.21.38Z"/><path class="cls-1" d="M280.68,26l-.13-.17.05,0,.12.17Z"/><path class="cls-1" d="M281,26.43s.05,0,.07,0v0l-.07-.07Z"/><path class="cls-1" d="M281.15,26.59v0h0S281.13,26.59,281.15,26.59Z"/><path class="cls-1" d="M280.75,26.08l-.07-.07,0,0,.07.08Z"/><path class="cls-1" d="M281.74,45.16l0,0h0l0,0Z"/></svg>