<svg width="128" height="128" viewBox="0 0 128 128" fill="none" xmlns="http://www.w3.org/2000/svg" role="img" aria-label="KaonA icon">
  <rect x="8" y="8" width="112" height="112" rx="30" fill="#E8F5E9" stroke="#2E7D32" stroke-width="6"/>
  <path d="M28 88C42 62 61 49 84 43" stroke="#2E7D32" stroke-width="8" stroke-linecap="round"/>
  <path d="M36 92C58 82 80 80 102 86" stroke="#1B5E20" stroke-width="8" stroke-linecap="round"/>
  <path d="M62 86C75 64 93 51 113 47C108 69 92 84 68 90" fill="#E8F5E9" stroke="#2E7D32" stroke-width="6" stroke-linejoin="round"/>
  <path d="M79 38c12 10 17 25 11 43-13-10-19-27-11-43Z" fill="#F9A825" stroke="#2E7D32" stroke-width="5" stroke-linejoin="round"/>
  <path d="M48 83L64 39h14l16 44H80l-3-10H63l-3 10H48Z" fill="#1B5E20"/>
</svg>
