<svg xmlns="http://www.w3.org/2000/svg" viewBox="0 0 128 128"><defs><style>.cls-1{fill:none;stroke:#fff;stroke-width:6px;}.cls-2{fill:#fff;}.cls-3{fill:#fcc600;}</style></defs><g id="Layer_1" data-name="Layer 1"><rect class="cls-1" x="8" y="8" width="112" height="112" rx="30"/><path class="cls-2" d="M57.22,67.72a44.4,44.4,0,0,0-4,8.81.65.65,0,0,1-.74.5c-2.63,0-5.25,0-7.88,0-.45,0-.59,0-.39-.55,3-7.61,6.13-15.2,9.23-22.78Q56.85,45.33,60.25,37a.72.72,0,0,1,.79-.54c2.11,0,4.21,0,6.32,0,.28,0,.48,0,.62.35q3.4,8.43,6.84,16.87a1,1,0,0,0,.06.16c.22.4.14.55-.35.56a21,21,0,0,0-6.39,1c-.37.13-.38-.11-.46-.31q-1.52-3.95-3-7.87l-.53-1.34L55.63,67.6c.31-.14.34-.46.52-.66,0,.47.08.79.62.77C56.92,67.7,57.07,67.72,57.22,67.72Z"/><path class="cls-2" d="M93.94,40.26a42.84,42.84,0,0,0-6.41-6,35,35,0,0,0-24-7.09c-10.85.83-20.1,5.11-27.12,13.66a35.1,35.1,0,0,0-6.85,13c-3.67,13.29-.95,25.23,8,35.64C43.45,96.26,51.07,100.2,59.84,102a37.65,37.65,0,0,0,12.12.49h.17s.05,0,.08.07-.21.13-.33.15a39.51,39.51,0,0,1-31.15-7.09,38.21,38.21,0,0,1-14.6-21.1A37.34,37.34,0,0,1,25.46,56C28,44.28,34.38,35.33,44.82,29.42A38.39,38.39,0,0,1,58,25.07,37.46,37.46,0,0,1,79.6,28.13a36.14,36.14,0,0,1,14.45,12Z"/><path class="cls-2" d="M69.88,89.14c-1.31.72-2.52,1.37-3.72,2-.68.38-1.36.79-2,1.23a.6.6,0,0,1-.85-.06,46.23,46.23,0,0,0-10.77-6.53,34.88,34.88,0,0,0-14.62-3c-.84,0-1.68.09-2.52.17a.59.59,0,0,1-.69-.33c-.66-1.17-1.28-2.36-1.85-3.57-.2-.43-.12-.52.33-.58a43.56,43.56,0,0,1,12.49.15,50.75,50.75,0,0,1,22.74,9.39c.42.3.81.64,1.22,1A2.39,2.39,0,0,0,69.88,89.14Z"/><path class="cls-2" d="M35.61,84.12c10.07-.08,18.51,3.61,26,10L59.9,95.38c-1.43,1.07-2.78,2.22-4.1,3.42A.66.66,0,0,1,55,99a39.5,39.5,0,0,1-13.12-7.63,36.27,36.27,0,0,1-5.57-6.17Z"/><path class="cls-2" d="M57.22,67.72c-.15,0-.3,0-.45,0-.54,0-.67-.3-.62-.77a24.54,24.54,0,0,1,4.71-6,19.77,19.77,0,0,1,12.59-5.18,15.74,15.74,0,0,0,7-1.63c-1.11,4.27-3.09,8-6.68,10.67C69.23,68.21,64.07,69,58.47,68.3a20.09,20.09,0,0,1,6.09-6A26.21,26.21,0,0,1,72.4,59a14.71,14.71,0,0,0-4.66.74,18.32,18.32,0,0,0-6.33,3.29A16.57,16.57,0,0,0,58,66.7C57.73,67.05,57.47,67.38,57.22,67.72Z"/><path class="cls-2" d="M84.24,77H75.9a.41.41,0,0,1-.46-.32c-1.09-2.9-2.19-5.8-3.28-8.71-.08-.2-.23-.39.11-.56a15.58,15.58,0,0,0,6-5.2Z"/><path class="cls-2" d="M59,100.07c10.74-10.62,23.58-15.85,38.64-16-.27.62-.47,1.07-1.15,1.22a45.34,45.34,0,0,0-24.91,15,2.36,2.36,0,0,1-2,.9A39.86,39.86,0,0,1,59,100.07Z"/><path class="cls-2" d="M65.87,84.56a41.33,41.33,0,0,1,8.27-2.68A42.16,42.16,0,0,1,86.41,81a46.83,46.83,0,0,1,11.3,2.21c.11,0,.43,0,.3.27s-.17.54-.59.51c-1-.09-1.91-.13-2.86-.16A50,50,0,0,0,82,85a52.42,52.42,0,0,0-9.93,3.17c-.19.08-.36.2-.59,0A48.38,48.38,0,0,0,65.87,84.56Z"/><path class="cls-2" d="M96.72,85.54a21.39,21.39,0,0,1-2.42,3.4,32.13,32.13,0,0,1-13.08,9.84,30.56,30.56,0,0,1-5.93,1.74l-.46.06a16.26,16.26,0,0,1,1.75-2.2,45.59,45.59,0,0,1,18-12.14,8.76,8.76,0,0,1,2.17-.71Z"/><path class="cls-2" d="M106.62,59.52c-.39.58-.81,1.14-1.18,1.73A33.25,33.25,0,0,0,102,69.43a32.13,32.13,0,0,1-3,7.17,13,13,0,0,1-3.36,3.93.92.92,0,0,1-.84.17c-.8-.19-1.6-.39-2.41-.52-.46-.08-.51-.23-.38-.64a45.8,45.8,0,0,1,4.35-9.78A32.5,32.5,0,0,1,102,62.49a16.76,16.76,0,0,1,3.66-2.65c.3-.16.61-.27.91-.41Z"/><path class="cls-2" d="M87.17,55.85A15.17,15.17,0,0,1,89.94,61a35.18,35.18,0,0,1,1.45,13.72c-.1,1.53-.33,3-.56,4.55-.07.43-.19.61-.68.53-.83-.13-1.67-.2-2.51-.26a.75.75,0,0,1-.72-.52,14.92,14.92,0,0,1-1.18-7A65.43,65.43,0,0,1,87.19,63a18.18,18.18,0,0,0,0-6.74C87.19,56.14,87.19,56.07,87.17,55.85Z"/><path class="cls-2" d="M108.22,70.12a20.35,20.35,0,0,0-5.71,6.37,20.07,20.07,0,0,1-2.86,3.87,4.35,4.35,0,0,1-.38.36c-1.41,1.11-1,1-2.79.31,2.62-2.31,4.12-5.33,5.4-8.48a1,1,0,0,1,.33-.52,10.53,10.53,0,0,1,5.71-2C108,70,108.11,70,108.22,70.12Z"/><path class="cls-3" d="M95.49,63.29c0,1-.35,1.23-1.27,1-.26-.07-.52-.12-.78-.2-.7-.2-.82-.42-.64-1.12s.41-.9,1.12-.75c.34.07.67.17,1,.26A.72.72,0,0,1,95.49,63.29Z"/><path class="cls-3" d="M96.63,63a6.28,6.28,0,0,1,1.48.34.78.78,0,0,1,.33,1.23c-.31.45-.66.78-1.27.52a4.05,4.05,0,0,0-.5-.12c-1.1-.21-1-.74-.68-1.65C96.11,63,96.39,63,96.63,63Z"/><path class="cls-3" d="M92.91,64.38a5.94,5.94,0,0,1,1.41.35c.62.24.75.63.49,1.4-.19.57-.41.66-1.11.46l-.22,0c-1-.27-1.21-.54-1.21-1.58C92.26,64.51,92.54,64.37,92.91,64.38Z"/><path class="cls-3" d="M94.76,69.74c-.75,1.43-1.46,2.8-2.15,4.33a40.42,40.42,0,0,0,.13-4.49c0-.34.13-.35.38-.25.1,0,.23.06.31.14A1,1,0,0,0,94.76,69.74Z"/><path class="cls-3" d="M93.41,61.12c0-.95.4-1.24,1.27-1,.23.06.45.11.67.18.72.2.82.39.68,1.12s-.38.85-1.09.69c-.34-.07-.67-.16-1-.24A.62.62,0,0,1,93.41,61.12Z"/><path class="cls-3" d="M97.18,60.84a3.88,3.88,0,0,1,1.4.33c.61.22.42.75.35,1.18a.62.62,0,0,1-.78.56q-.65-.12-1.29-.3a.68.68,0,0,1-.51-.93C96.46,61.24,96.52,60.71,97.18,60.84Z"/><path class="cls-3" d="M95.11,58l1,.25a.73.73,0,0,1,.53,1c-.15.78-.37.93-1.14.73l-.61-.17c-.86-.24-1.06-.87-.51-1.59C94.5,58,94.71,58,95.11,58Z"/><path class="cls-3" d="M99.38,59.81c0,.9-.49,1.19-1.34.81a4.84,4.84,0,0,0-.54-.17c-.62-.2-.72-.38-.57-1s.39-.9,1.17-.69l.61.17C99.29,59.09,99.38,59.21,99.38,59.81Z"/><path class="cls-3" d="M90.88,60.32c.13-.82.35-1.34,1.18-1,.21.09.45.1.65.2.52.23.61.6.36,1.3a.65.65,0,0,1-1,.44c-.42-.17-1-.11-1.13-.71A2.46,2.46,0,0,0,90.88,60.32Z"/><path class="cls-3" d="M99.74,57.7c0,.78-.37,1.12-1,.81a2.53,2.53,0,0,0-.56-.11c-.7-.15-.82-.33-.67-1s.34-.82,1-.68a6,6,0,0,1,.61.15C99.65,57,99.75,57.14,99.74,57.7Z"/><path class="cls-3" d="M95.78,56c.21,0,.6.14,1,.26s.46.51.36.9-.21.82-.76.72a10.7,10.7,0,0,1-1.12-.26.61.61,0,0,1-.48-.82C94.87,56.39,95,55.94,95.78,56Z"/><path class="cls-3" d="M93.87,58.14c0,.68-.4,1.15-.93,1.13-.8,0-1.34-.36-1.34-.84s.43-1.24.79-1.24C93.14,57.17,93.88,57.65,93.87,58.14Z"/><path class="cls-3" d="M101.74,60.43c0,.69-.22,1-.67.91-1.11-.19-1.45-.23-1.42-.89s.28-1.15.8-1.07C101.45,59.52,101.81,59.57,101.74,60.43Z"/><path class="cls-3" d="M95.18,66.4c.09-.38,0-.94.53-1.14a2.28,2.28,0,0,1,1.66.27c.22.09.06.21,0,.31a13,13,0,0,0-.75,1.08c-.23.42-.52.35-.87.24A.7.7,0,0,1,95.18,66.4Z"/><path class="cls-3" d="M94.33,67.76c0,1-.47,1.43-1.28,1.18a.45.45,0,0,1-.37-.48c0-.5-.06-1-.1-1.48,0-.12,0-.23.12-.26a3,3,0,0,1,1.51.59A.73.73,0,0,1,94.33,67.76Z"/><path class="cls-3" d="M95.35,54.72a1.35,1.35,0,0,1,1.89-.33c.47.23.48.6.33,1s-.36.67-.85.52a3.18,3.18,0,0,0-.33-.09c-1-.21-1-.21-1-1.12Z"/><path class="cls-3" d="M94.57,56.16c0,.62-.36,1.1-.78,1.07-.76,0-1.41-.42-1.39-.81s.43-1.12.79-1.11C94,55.34,94.59,55.68,94.57,56.16Z"/><path class="cls-3" d="M98.7,54.71a6.2,6.2,0,0,1,1,.3c.51.24.41.72.31,1.15s-.46.45-.82.38-.55-.15-.82-.23c-.51-.13-.49-.52-.42-.91S98.18,54.66,98.7,54.71Z"/><path class="cls-3" d="M102,58.43c0,.24,0,.65-.42.79s-1.43-.3-1.48-.55a1.26,1.26,0,0,1,.3-1.28c.37-.3.84,0,1.24.12S102,58,102,58.43Z"/><path class="cls-3" d="M101.37,51.84c-.18-.34-.65-.21-.64-.61,0-.23,0-.5.26-.59a.81.81,0,0,1,.78.2.51.51,0,0,1,.11.68c-.19.27-.14.39.06.63a.84.84,0,0,1,0,1c-.27.36-.63,0-1,0s-.33-.35-.33-.63C100.69,52.06,100.88,51.82,101.37,51.84Z"/><path class="cls-3" d="M95.35,54.72c-.07-.07-.13,0-.18,0-.14.24-.2.59-.55.59A2.2,2.2,0,0,1,93.38,55c-.34-.26-.08-.64,0-1a.65.65,0,0,1,.78-.43,1.16,1.16,0,0,1,1.15,1.15Z"/><path class="cls-3" d="M98.68,48.05c-.75,0-.84.54-.87,1.14.2,0,.27-.14.31-.26.18-.54.58-.4.86-.22s.15.66,0,.85-.78.06-1-.14-.34-.19-.53-.05a.45.45,0,0,1-.43.08c-.16-.05-.38,0-.43-.23a.45.45,0,0,1,.25-.48,3.45,3.45,0,0,0,1.22-1,.5.5,0,0,1,.52-.16c.26.07.08.29.14.43Z"/><path class="cls-3" d="M102.09,56.34c-.06.31,0,.77-.55.78s-1.24-.37-1.23-.89c0-.69.19-.92.67-.92C101.77,55.32,102.1,55.61,102.09,56.34Z"/><path class="cls-3" d="M96.82,52.44c.82.16,1.3.27,1.27.8s-.28.87-.7.86c-.76,0-1.31-.33-1.31-.74A.84.84,0,0,1,96.82,52.44Z"/><path class="cls-3" d="M99.72,53c.37.32.7.66.51,1.21a1,1,0,0,1-.14.31,2.12,2.12,0,0,1-1.62-.22,1.17,1.17,0,0,1,.08-1.14c.15-.17.34-.13.52-.15s.44.2.65,0Z"/><path class="cls-3" d="M95.92,52.76c-.14.3-.11.8-.67.8S94,53.21,94,52.87s.45-.94.78-.94C95.39,51.94,95.94,52.32,95.92,52.76Z"/><path class="cls-3" d="M102.14,54.43c0,.29,0,.7-.48.71-.67,0-1.16-.32-1.12-.77s0-.9.62-.9S102.13,53.75,102.14,54.43Z"/><path class="cls-3" d="M99.72,53c-.06-.27-.32-.22-.49-.25-.39-.07-.58-.25-.5-.66s.18-.72.68-.65c.11,0,.23.07.32-.05h0c.1.26.42.18.57.37.36.44.09,1-.57,1.24Z"/><path class="cls-3" d="M97.41,51c.66,0,1.09.28,1.06.7s-.1.82-.54.7-1.09.11-1.2-.58A.7.7,0,0,1,97.41,51Z"/><path class="cls-3" d="M94.57,68.66c0-.85.53-1.32,1.19-1.14.26.08.36.17.18.44s-.47.73-.71,1.1c-.09.13-.12.37-.34.32a.46.46,0,0,1-.32-.49Z"/><path class="cls-3" d="M101.11,61.78c-.46.44-.91.88-1.37,1.3-.27.25-.36,0-.43-.21a.94.94,0,0,1,1.12-1.31A1.3,1.3,0,0,1,101.11,61.78Z"/><path class="cls-3" d="M96.56,51.2c-.11.34-.16.72-.62.74s-1.06-.33-1-.62.24-.74.69-.7S96.45,50.7,96.56,51.2Z"/><path class="cls-3" d="M92,63.63l-.64-2.19c.51.14,1.08.14,1.2.69A1.72,1.72,0,0,1,92,63.63Z"/><path class="cls-3" d="M99.73,51.4c0-.25-.26-.18-.39-.23-.34-.15-.29-.42-.25-.67a.42.42,0,0,1,.51-.34,2.78,2.78,0,0,1,.5.11.54.54,0,0,1,.4.61c0,.52-.49.39-.78.51Z"/><path class="cls-3" d="M98.22,50.88c-.25-.17-.84.1-.88-.48a.51.51,0,0,1,.65-.59c.36.06.81.06.83.57C98.83,50.68,98.66,50.94,98.22,50.88Z"/><path class="cls-3" d="M98.68,48.05c.46-.32.91.14,1.38,0,.14,0,.3.09.51,0s.45.18.44.42-.26.13-.42.15c-.55.07-1-.25-1.61-.22a.29.29,0,0,1-.3-.42Z"/><path class="cls-3" d="M96.45,49.57c.21.11.68,0,.69.4,0,.27-.14.7-.58.62s-.78,0-.79-.44A.56.56,0,0,1,96.45,49.57Z"/><path class="cls-3" d="M100.65,49.51c0-.2,0-.38.19-.48a.32.32,0,0,1,.42.06.58.58,0,0,1,.18.57c0,.13-.23.21,0,.38s.34.11.24.32-.29.11-.41.08-.57-.22-.49-.36S100.53,49.69,100.65,49.51Z"/><path class="cls-3" d="M99.89,48.87c.24,0,.57.06.5.4s.09.69-.38.72c-.27,0-.64-.06-.65-.35S99.27,48.86,99.89,48.87Z"/><path class="cls-3" d="M99.65,47.83c-.23,0-.54,0-.56-.33s.22-.34.45-.33.56.12.56.44S99.83,47.8,99.65,47.83Z"/><path class="cls-2" d="M95,41.62l-.58-.8.08-.07c.19.28.5.5.49.89Z"/><path class="cls-2" d="M94.24,40.65l-.3-.39.11-.1.29.39Z"/><path class="cls-2" d="M95,41.64c.1-.07.13,0,.17.07s0,0,0,.07L95,41.62Z"/><path class="cls-2" d="M95.33,42l0,0h0S95.28,42,95.33,42Z"/><path class="cls-2" d="M94.41,40.82l-.17-.17.1-.1.15.2Z"/><path class="cls-2" d="M96.71,85.53l0-.07,0,0-.08.05Z"/></g></svg>