<svg id="Layer_1" data-name="Layer 1" xmlns="http://www.w3.org/2000/svg" viewBox="0 0 128 128"><defs><style>.cls-1{fill:#e8f5e9;stroke:#2e7d32;stroke-width:6px;}.cls-2{fill:#0e4c21;}.cls-3{fill:#519028;}.cls-4{fill:#fcc600;}</style></defs><rect class="cls-1" x="8" y="8" width="112" height="112" rx="30"/><path class="cls-2" d="M57.05,67.72a45,45,0,0,0-4,8.81.64.64,0,0,1-.73.5c-2.63,0-5.25,0-7.88,0-.45,0-.59,0-.39-.55q4.55-11.42,9.23-22.78Q56.66,45.33,60.08,37a.71.71,0,0,1,.78-.54c2.11,0,4.22,0,6.33,0,.28,0,.48,0,.61.35q3.4,8.43,6.84,16.87l.06.16c.23.4.15.55-.34.56a21,21,0,0,0-6.39,1c-.37.13-.38-.11-.46-.31-1-2.63-2-5.25-3-7.87l-.53-1.34c-2.85,7.31-5.66,14.53-8.49,21.78.32-.14.35-.46.53-.66,0,.47.07.79.62.77C56.75,67.7,56.9,67.72,57.05,67.72Z"/><path class="cls-3" d="M93.76,40.26a42.29,42.29,0,0,0-6.4-6,35,35,0,0,0-24-7.09C52.51,28,43.25,32.28,36.23,40.83a35.25,35.25,0,0,0-6.85,13c-3.67,13.29-.95,25.23,8,35.64C43.28,96.26,50.9,100.2,59.67,102a37.65,37.65,0,0,0,12.12.49H72s.05,0,.08.07-.22.13-.33.15a39.51,39.51,0,0,1-31.15-7.09A38.16,38.16,0,0,1,26,74.49,37.23,37.23,0,0,1,25.28,56c2.55-11.67,8.92-20.62,19.36-26.53a38.39,38.39,0,0,1,13.19-4.35,37.51,37.51,0,0,1,21.6,3.06,36.14,36.14,0,0,1,14.45,12Z"/><path class="cls-2" d="M69.71,89.14c-1.31.72-2.52,1.37-3.72,2-.68.38-1.36.79-2,1.23a.59.59,0,0,1-.84-.06,46.44,46.44,0,0,0-10.77-6.53,34.9,34.9,0,0,0-14.63-3c-.84,0-1.68.09-2.52.17a.59.59,0,0,1-.69-.33c-.65-1.17-1.27-2.36-1.84-3.57-.2-.43-.13-.52.33-.58a43.49,43.49,0,0,1,12.48.15,50.79,50.79,0,0,1,22.75,9.39c.42.3.81.64,1.22,1A1.63,1.63,0,0,0,69.71,89.14Z"/><path class="cls-2" d="M35.44,84.12c10.07-.08,18.51,3.61,26,10l-1.67,1.26c-1.42,1.07-2.78,2.22-4.1,3.42a.65.65,0,0,1-.76.15,39.4,39.4,0,0,1-13.12-7.63,35.86,35.86,0,0,1-5.57-6.17Z"/><path class="cls-3" d="M57.05,67.72c-.15,0-.3,0-.45,0-.55,0-.67-.3-.62-.77a24.74,24.74,0,0,1,4.7-6,19.79,19.79,0,0,1,12.6-5.18,15.74,15.74,0,0,0,7-1.63c-1.11,4.27-3.09,8-6.69,10.67C69.05,68.21,63.9,69,58.29,68.3a20.12,20.12,0,0,1,6.1-6A26.21,26.21,0,0,1,72.23,59a14.71,14.71,0,0,0-4.66.74,18.23,18.23,0,0,0-6.33,3.29A16.57,16.57,0,0,0,57.8,66.7C57.56,67.05,57.3,67.38,57.05,67.72Z"/><path class="cls-2" d="M84.06,77H75.72a.42.42,0,0,1-.46-.32Q73.63,72.36,72,68c-.07-.2-.22-.39.12-.56a15.73,15.73,0,0,0,6-5.2Z"/><path class="cls-3" d="M58.77,100.07c10.75-10.62,23.58-15.85,38.64-16-.26.62-.46,1.07-1.14,1.22a45.37,45.37,0,0,0-24.92,15,2.36,2.36,0,0,1-2,.9A40,40,0,0,1,58.77,100.07Z"/><path class="cls-3" d="M65.69,84.56A41.75,41.75,0,0,1,74,81.88,42.23,42.23,0,0,1,86.24,81a46.75,46.75,0,0,1,11.29,2.21c.12,0,.44,0,.31.27s-.17.54-.59.51c-1-.09-1.91-.13-2.87-.16A49.9,49.9,0,0,0,81.84,85a52.29,52.29,0,0,0-9.94,3.17c-.18.08-.36.2-.58,0A47.68,47.68,0,0,0,65.69,84.56Z"/><path class="cls-3" d="M96.55,85.54a21.45,21.45,0,0,1-2.43,3.4,32.17,32.17,0,0,1-13.07,9.84,30.66,30.66,0,0,1-5.94,1.74l-.46.06a17.13,17.13,0,0,1,1.76-2.2,45.59,45.59,0,0,1,18-12.14,8.69,8.69,0,0,1,2.16-.71Z"/><path class="cls-3" d="M106.45,59.52c-.4.58-.81,1.14-1.19,1.73a33.22,33.22,0,0,0-3.43,8.18,32.6,32.6,0,0,1-3,7.17,12.84,12.84,0,0,1-3.37,3.93.91.91,0,0,1-.84.17c-.8-.19-1.6-.39-2.41-.52-.45-.08-.5-.23-.38-.64a45.35,45.35,0,0,1,4.36-9.78,32.46,32.46,0,0,1,5.66-7.27,16.82,16.82,0,0,1,3.67-2.65c.29-.16.6-.27.91-.41Z"/><path class="cls-3" d="M87,55.85A15.35,15.35,0,0,1,89.77,61a35.18,35.18,0,0,1,1.45,13.72c-.1,1.53-.34,3-.57,4.55-.06.43-.18.61-.67.53-.83-.13-1.67-.2-2.51-.26a.74.74,0,0,1-.72-.52,15.06,15.06,0,0,1-1.19-7A65.45,65.45,0,0,1,87,63a18.18,18.18,0,0,0,0-6.74A1.76,1.76,0,0,1,87,55.85Z"/><path class="cls-3" d="M108.05,70.12a20.26,20.26,0,0,0-5.72,6.37,20.44,20.44,0,0,1-2.85,3.87c-.13.12-.25.25-.38.36-1.41,1.11-1,1-2.79.31,2.61-2.31,4.11-5.33,5.39-8.48A1,1,0,0,1,102,72a10.5,10.5,0,0,1,5.71-2A.28.28,0,0,1,108.05,70.12Z"/><path class="cls-4" d="M95.32,63.29c-.06,1-.35,1.23-1.28,1-.25-.07-.51-.12-.77-.2-.71-.2-.83-.42-.65-1.12s.41-.9,1.13-.75c.34.07.66.17,1,.26A.72.72,0,0,1,95.32,63.29Z"/><path class="cls-4" d="M96.46,63a6.28,6.28,0,0,1,1.48.34.78.78,0,0,1,.33,1.23c-.32.45-.67.78-1.27.52a4.05,4.05,0,0,0-.5-.12c-1.1-.21-1-.74-.68-1.65C95.94,63,96.22,63,96.46,63Z"/><path class="cls-4" d="M92.74,64.38a5.75,5.75,0,0,1,1.4.35c.63.24.76.63.5,1.4-.19.57-.41.66-1.11.46l-.23,0c-1-.27-1.2-.54-1.21-1.58C92.09,64.51,92.37,64.37,92.74,64.38Z"/><path class="cls-4" d="M94.58,69.74c-.74,1.43-1.45,2.8-2.14,4.33a40.42,40.42,0,0,0,.13-4.49c0-.34.12-.35.37-.25s.24.06.32.14A1,1,0,0,0,94.58,69.74Z"/><path class="cls-4" d="M93.23,61.12c0-.95.41-1.24,1.28-1,.22.06.45.11.67.18.71.2.82.39.67,1.12s-.37.85-1.09.69l-1-.24A.62.62,0,0,1,93.23,61.12Z"/><path class="cls-4" d="M97,60.84a3.78,3.78,0,0,1,1.4.33c.62.22.43.75.36,1.18a.62.62,0,0,1-.79.56c-.43-.08-.86-.18-1.28-.3a.69.69,0,0,1-.52-.93C96.29,61.24,96.35,60.71,97,60.84Z"/><path class="cls-4" d="M94.93,58l.95.25c.51.15.63.49.54,1-.16.78-.37.93-1.15.73l-.61-.17c-.85-.24-1-.87-.5-1.59C94.32,58,94.54,58,94.93,58Z"/><path class="cls-4" d="M99.2,59.81c0,.9-.48,1.19-1.33.81a4.42,4.42,0,0,0-.55-.17c-.62-.2-.71-.38-.57-1s.39-.9,1.18-.69l.61.17C99.12,59.09,99.21,59.21,99.2,59.81Z"/><path class="cls-4" d="M90.71,60.32c.12-.82.34-1.34,1.18-1,.21.09.45.1.65.2.52.23.6.6.36,1.3a.65.65,0,0,1-1,.44c-.42-.17-1-.11-1.14-.71C90.75,60.47,90.72,60.38,90.71,60.32Z"/><path class="cls-4" d="M99.57,57.7c0,.78-.37,1.12-1,.81A2.53,2.53,0,0,0,98,58.4c-.71-.15-.82-.33-.67-1s.34-.82,1-.68c.2,0,.41.09.61.15C99.48,57,99.57,57.14,99.57,57.7Z"/><path class="cls-4" d="M95.61,56c.21,0,.6.14,1,.26s.45.51.35.9-.2.82-.76.72a11.13,11.13,0,0,1-1.11-.26.6.6,0,0,1-.48-.82C94.7,56.39,94.82,55.94,95.61,56Z"/><path class="cls-4" d="M93.7,58.14c0,.68-.4,1.15-.94,1.13-.79,0-1.33-.36-1.34-.84s.43-1.24.8-1.24C93,57.17,93.71,57.65,93.7,58.14Z"/><path class="cls-4" d="M101.56,60.43c0,.69-.21,1-.67.91-1.1-.19-1.44-.23-1.42-.89s.29-1.15.81-1.07C101.27,59.52,101.63,59.57,101.56,60.43Z"/><path class="cls-4" d="M95,66.4c.09-.38,0-.94.53-1.14a2.25,2.25,0,0,1,1.65.27c.23.09.07.21,0,.31a13,13,0,0,0-.75,1.08c-.23.42-.52.35-.87.24A.7.7,0,0,1,95,66.4Z"/><path class="cls-4" d="M94.15,67.76c0,1-.47,1.43-1.27,1.18a.45.45,0,0,1-.37-.48c0-.5-.07-1-.11-1.48,0-.12-.05-.23.13-.26a3.06,3.06,0,0,1,1.51.59A.72.72,0,0,1,94.15,67.76Z"/><path class="cls-4" d="M95.17,54.72a1.36,1.36,0,0,1,1.9-.33c.47.23.47.6.33,1s-.36.67-.85.52l-.33-.09c-1-.21-1-.21-1-1.12Z"/><path class="cls-4" d="M94.4,56.16c0,.62-.37,1.1-.78,1.07-.77,0-1.41-.42-1.4-.81s.44-1.12.79-1.11C93.85,55.34,94.42,55.68,94.4,56.16Z"/><path class="cls-4" d="M98.53,54.71a6.91,6.91,0,0,1,1,.3c.51.24.41.72.31,1.15s-.46.45-.82.38-.55-.15-.83-.23c-.5-.13-.49-.52-.41-.91S98,54.66,98.53,54.71Z"/><path class="cls-4" d="M101.78,58.43c0,.24,0,.65-.42.79s-1.43-.3-1.49-.55a1.3,1.3,0,0,1,.3-1.28c.38-.3.84,0,1.25.12S101.8,58,101.78,58.43Z"/><path class="cls-4" d="M101.2,51.84c-.18-.34-.65-.21-.64-.61,0-.23,0-.5.25-.59a.83.83,0,0,1,.79.2.51.51,0,0,1,.11.68c-.19.27-.14.39.05.63a.83.83,0,0,1,0,1c-.27.36-.64,0-1,0s-.33-.35-.33-.63C100.51,52.06,100.71,51.82,101.2,51.84Z"/><path class="cls-4" d="M95.18,54.72c-.08-.07-.13,0-.18,0-.15.24-.2.59-.56.59A2.22,2.22,0,0,1,93.2,55c-.34-.26-.08-.64,0-1a.64.64,0,0,1,.77-.43,1.16,1.16,0,0,1,1.15,1.15Z"/><path class="cls-4" d="M98.51,48.05c-.75,0-.84.54-.87,1.14.2,0,.27-.14.31-.26.17-.54.57-.4.86-.22s.15.66,0,.85-.78.06-1-.14-.35-.19-.54-.05a.45.45,0,0,1-.43.08c-.15-.05-.37,0-.42-.23a.45.45,0,0,1,.25-.48,3.42,3.42,0,0,0,1.21-1,.52.52,0,0,1,.53-.16c.26.07.07.29.13.43Z"/><path class="cls-4" d="M101.91,56.34c0,.31,0,.77-.54.78-.73,0-1.25-.37-1.23-.89,0-.69.18-.92.67-.92C101.6,55.32,101.92,55.61,101.91,56.34Z"/><path class="cls-4" d="M96.64,52.44c.83.16,1.3.27,1.28.8s-.28.87-.7.86c-.76,0-1.32-.33-1.31-.74S96.25,52.43,96.64,52.44Z"/><path class="cls-4" d="M99.54,53c.37.32.71.66.52,1.21a.81.81,0,0,1-.15.31,2.09,2.09,0,0,1-1.61-.22,1.15,1.15,0,0,1,.08-1.14c.14-.17.33-.13.52-.15s.44.2.65,0Z"/><path class="cls-4" d="M95.75,52.76c-.14.3-.12.8-.67.8s-1.24-.35-1.22-.69.46-.94.78-.94C95.22,51.94,95.77,52.32,95.75,52.76Z"/><path class="cls-4" d="M102,54.43c0,.29,0,.7-.48.71-.66,0-1.15-.32-1.11-.77s0-.9.61-.9S102,53.75,102,54.43Z"/><path class="cls-4" d="M99.55,53c-.07-.27-.32-.22-.49-.25-.39-.07-.59-.25-.5-.66s.17-.72.68-.65c.11,0,.23.07.31-.05h0c.11.26.42.18.58.37.35.44.08,1-.58,1.24Z"/><path class="cls-4" d="M97.24,51c.66,0,1.09.28,1.06.7s-.11.82-.54.7-1.09.11-1.21-.58A.71.71,0,0,1,97.24,51Z"/><path class="cls-4" d="M94.4,68.66c0-.85.53-1.32,1.19-1.14.26.08.36.17.17.44s-.47.73-.7,1.1c-.09.13-.12.37-.34.32a.46.46,0,0,1-.32-.49Z"/><path class="cls-4" d="M100.94,61.78c-.47.44-.91.88-1.37,1.3-.28.25-.37,0-.43-.21a.94.94,0,0,1,1.12-1.31A1.36,1.36,0,0,1,100.94,61.78Z"/><path class="cls-4" d="M96.39,51.2c-.12.34-.16.72-.62.74s-1.06-.33-1-.62.25-.74.7-.7S96.28,50.7,96.39,51.2Z"/><path class="cls-4" d="M91.79,63.63l-.65-2.19c.52.14,1.09.14,1.21.69A1.72,1.72,0,0,1,91.79,63.63Z"/><path class="cls-4" d="M99.55,51.4c0-.25-.25-.18-.38-.23-.34-.15-.3-.42-.25-.67a.42.42,0,0,1,.51-.34,3,3,0,0,1,.5.11.55.55,0,0,1,.4.61c0,.52-.49.39-.79.51Z"/><path class="cls-4" d="M98.05,50.88c-.26-.17-.84.1-.89-.48a.52.52,0,0,1,.65-.59c.37.06.82.06.84.57C98.66,50.68,98.49,50.94,98.05,50.88Z"/><path class="cls-4" d="M98.5,48.05c.47-.32.91.14,1.38,0,.15,0,.31.09.52,0s.44.18.43.42-.25.13-.41.15c-.56.07-1.06-.25-1.61-.22a.29.29,0,0,1-.3-.42Z"/><path class="cls-4" d="M96.27,49.57c.21.11.68,0,.69.4,0,.27-.14.7-.57.62s-.78,0-.79-.44A.55.55,0,0,1,96.27,49.57Z"/><path class="cls-4" d="M100.48,49.51c0-.2,0-.38.19-.48a.32.32,0,0,1,.42.06.6.6,0,0,1,.18.57c0,.13-.24.21,0,.38s.34.11.23.32-.28.11-.4.08-.57-.22-.49-.36S100.36,49.69,100.48,49.51Z"/><path class="cls-4" d="M99.72,48.87c.23,0,.56.06.5.4s.08.69-.39.72c-.26,0-.64-.06-.64-.35S99.09,48.86,99.72,48.87Z"/><path class="cls-4" d="M99.48,47.83c-.23,0-.54,0-.56-.33s.22-.34.45-.33.55.12.56.44S99.66,47.8,99.48,47.83Z"/><path class="cls-3" d="M94.82,41.62l-.59-.8.09-.07c.19.28.49.5.49.89Z"/><path class="cls-3" d="M94.06,40.65l-.3-.39.12-.1.28.39Z"/><path class="cls-3" d="M94.81,41.64c.09-.07.12,0,.16.07s0,0,0,.07l-.14-.16Z"/><path class="cls-3" d="M95.15,42l0,0h0C95.1,42,95.1,42,95.15,42Z"/><path class="cls-3" d="M94.23,40.82l-.17-.17.1-.1.16.2Z"/><path class="cls-3" d="M96.53,85.53l0-.07,0,0-.07.05Z"/></svg>