<svg id="Layer_1" data-name="Layer 1" xmlns="http://www.w3.org/2000/svg" viewBox="0 0 128 128"><defs><style>.cls-1{fill:#e8f5e9;stroke:#2e7d32;stroke-width:6px;}.cls-2{fill:#0e4c21;}.cls-3{fill:#519028;}.cls-4{fill:#fcc600;}</style></defs><rect class="cls-1" x="8" y="8" width="112" height="112" rx="30"/><path class="cls-2" d="M57.31,67.7a43.87,43.87,0,0,0-4,8.81.65.65,0,0,1-.74.5c-2.62,0-5.25,0-7.87,0-.46,0-.59,0-.39-.55Q48.82,65,53.5,53.68q3.42-8.37,6.84-16.75a.71.71,0,0,1,.78-.54c2.11,0,4.22,0,6.33,0,.28,0,.48,0,.61.35q3.41,8.43,6.84,16.87a1,1,0,0,0,.06.16c.23.4.14.55-.35.56a20.89,20.89,0,0,0-6.38,1c-.37.13-.38-.12-.46-.32q-1.53-3.93-3-7.86c-.16-.41-.33-.81-.54-1.34-2.84,7.31-5.65,14.52-8.48,21.78.32-.14.34-.46.52-.66,0,.47.08.78.63.77A3.38,3.38,0,0,1,57.31,67.7Z"/><path class="cls-3" d="M94,40.24a41.37,41.37,0,0,0-6.41-6,35,35,0,0,0-24-7.09C52.77,28,43.51,32.26,36.49,40.81a35.17,35.17,0,0,0-6.85,13C26,67.07,28.69,79,37.66,89.42c5.87,6.82,13.5,10.76,22.27,12.54a37.65,37.65,0,0,0,12.12.49.47.47,0,0,1,.17,0l.07.07c-.05.18-.21.13-.33.15a39.54,39.54,0,0,1-31.14-7.09,38.15,38.15,0,0,1-14.6-21.11,37.22,37.22,0,0,1-.68-18.54C28.09,44.26,34.46,35.31,44.9,29.4A38.63,38.63,0,0,1,58.09,25a37.55,37.55,0,0,1,21.59,3.07,36.17,36.17,0,0,1,14.46,12Z"/><path class="cls-2" d="M70,89.12c-1.31.71-2.52,1.37-3.72,2-.69.39-1.36.79-2,1.24a.59.59,0,0,1-.84-.06,46.65,46.65,0,0,0-10.77-6.53,34.93,34.93,0,0,0-14.63-3c-.84,0-1.68.09-2.52.17a.61.61,0,0,1-.69-.33c-.66-1.17-1.28-2.36-1.84-3.57-.2-.43-.13-.52.33-.58a43.49,43.49,0,0,1,12.48.15A50.89,50.89,0,0,1,68.51,88c.41.31.81.65,1.22,1A1.23,1.23,0,0,0,70,89.12Z"/><path class="cls-2" d="M35.7,84.1c10.07-.08,18.51,3.6,25.95,10L60,95.35c-1.42,1.08-2.78,2.23-4.1,3.43a.65.65,0,0,1-.76.15A39.43,39.43,0,0,1,42,91.29a35,35,0,0,1-5.57-6.16Z"/><path class="cls-3" d="M57.31,67.7a3.38,3.38,0,0,0-.45,0c-.55,0-.68-.3-.63-.77a24.54,24.54,0,0,1,4.71-6,19.85,19.85,0,0,1,12.59-5.19,15.8,15.8,0,0,0,7-1.62c-1.11,4.27-3.09,8-6.69,10.67-4.55,3.38-9.7,4.21-15.31,3.47a20.12,20.12,0,0,1,6.1-6A26.38,26.38,0,0,1,72.49,59a14.78,14.78,0,0,0-4.67.75A18.27,18.27,0,0,0,61.5,63a16.4,16.4,0,0,0-3.45,3.65C57.82,67,57.56,67.36,57.31,67.7Z"/><path class="cls-2" d="M84.32,77H76a.42.42,0,0,1-.46-.32c-1.09-2.9-2.19-5.8-3.28-8.71-.08-.2-.22-.39.11-.56a15.68,15.68,0,0,0,6.05-5.2Z"/><path class="cls-3" d="M59,100.05c10.75-10.62,23.58-15.85,38.64-16-.26.62-.46,1.07-1.15,1.22a45.38,45.38,0,0,0-24.91,15,2.38,2.38,0,0,1-2,.9A39.93,39.93,0,0,1,59,100.05Z"/><path class="cls-3" d="M66,84.54a41.79,41.79,0,0,1,8.27-2.69,42.89,42.89,0,0,1,12.27-.92,47.33,47.33,0,0,1,11.3,2.22c.11,0,.44,0,.3.27s-.16.54-.58.51c-1-.09-1.91-.13-2.87-.16A49.85,49.85,0,0,0,82.1,85a52.29,52.29,0,0,0-9.94,3.17c-.18.08-.36.19-.58,0A47.24,47.24,0,0,0,66,84.54Z"/><path class="cls-3" d="M96.81,85.52a21.92,21.92,0,0,1-2.43,3.4,32.17,32.17,0,0,1-13.07,9.84,31.38,31.38,0,0,1-5.94,1.74l-.46,0a17.74,17.74,0,0,1,1.76-2.19,45.44,45.44,0,0,1,18-12.14,8.55,8.55,0,0,1,2.16-.71Z"/><path class="cls-3" d="M106.71,59.5c-.4.58-.81,1.14-1.19,1.73a32.84,32.84,0,0,0-3.43,8.18,33,33,0,0,1-3,7.17,13,13,0,0,1-3.37,3.93.91.91,0,0,1-.84.17c-.8-.19-1.6-.39-2.41-.53-.46-.07-.5-.23-.38-.63a45.35,45.35,0,0,1,4.36-9.78,32.46,32.46,0,0,1,5.66-7.27,16.82,16.82,0,0,1,3.67-2.65,9.34,9.34,0,0,1,.91-.41Z"/><path class="cls-3" d="M87.26,55.83A15.53,15.53,0,0,1,90,61a35.18,35.18,0,0,1,1.45,13.72c-.1,1.53-.34,3-.57,4.55-.06.43-.19.61-.67.53-.83-.13-1.67-.2-2.51-.26A.74.74,0,0,1,87,79,15,15,0,0,1,85.82,72a65.21,65.21,0,0,1,1.46-9.11,18,18,0,0,0,0-6.74C87.27,56.12,87.27,56,87.26,55.83Z"/><path class="cls-3" d="M108.31,70.1a20.26,20.26,0,0,0-5.72,6.37,20.07,20.07,0,0,1-2.86,3.87,4,4,0,0,1-.37.35c-1.42,1.12-1,1-2.8.32,2.62-2.31,4.12-5.33,5.4-8.48a1,1,0,0,1,.34-.52,10.47,10.47,0,0,1,5.7-2A.29.29,0,0,1,108.31,70.1Z"/><path class="cls-4" d="M95.58,63.27c-.06,1-.35,1.23-1.28,1-.26-.07-.52-.12-.77-.2-.71-.21-.83-.42-.65-1.12s.41-.9,1.13-.75c.33.07.66.16,1,.26A.73.73,0,0,1,95.58,63.27Z"/><path class="cls-4" d="M96.72,63a6.28,6.28,0,0,1,1.48.34.77.77,0,0,1,.32,1.23c-.31.45-.66.78-1.27.52a3.66,3.66,0,0,0-.5-.12c-1.09-.21-1-.74-.67-1.65C96.19,63,96.48,63,96.72,63Z"/><path class="cls-4" d="M93,64.36a5.75,5.75,0,0,1,1.4.35c.62.24.76.63.5,1.4-.19.57-.41.66-1.12.46l-.22,0c-1-.27-1.2-.54-1.21-1.58C92.35,64.49,92.62,64.35,93,64.36Z"/><path class="cls-4" d="M94.84,69.72c-.74,1.43-1.46,2.79-2.14,4.33a38.12,38.12,0,0,0,.12-4.49c0-.34.13-.36.38-.25s.24.06.31.14A1,1,0,0,0,94.84,69.72Z"/><path class="cls-4" d="M93.49,61.09c0-.94.4-1.23,1.28-1l.66.17c.72.21.83.39.68,1.13s-.38.85-1.09.69c-.33-.07-.67-.16-1-.25A.62.62,0,0,1,93.49,61.09Z"/><path class="cls-4" d="M97.26,60.82a3.83,3.83,0,0,1,1.4.33c.62.22.42.75.35,1.18a.61.61,0,0,1-.78.56c-.43-.08-.86-.18-1.28-.3a.69.69,0,0,1-.52-.93C96.55,61.22,96.6,60.69,97.26,60.82Z"/><path class="cls-4" d="M95.19,58l1,.25c.51.14.63.49.54,1-.16.78-.37.93-1.15.73l-.61-.17c-.86-.24-1-.87-.51-1.6C94.58,57.94,94.8,57.93,95.19,58Z"/><path class="cls-4" d="M99.46,59.79c0,.9-.49,1.19-1.33.8-.17-.07-.37-.1-.55-.16-.62-.2-.72-.38-.57-1s.39-.9,1.18-.69l.6.17C99.38,59.07,99.46,59.19,99.46,59.79Z"/><path class="cls-4" d="M91,60.3c.13-.83.35-1.34,1.19-1,.21.08.44.1.65.19.52.24.6.61.36,1.31a.65.65,0,0,1-1,.44c-.42-.17-1-.11-1.14-.71A2.46,2.46,0,0,0,91,60.3Z"/><path class="cls-4" d="M99.83,57.68c0,.78-.37,1.12-1.06.81a3.15,3.15,0,0,0-.55-.12c-.71-.14-.83-.32-.67-1s.33-.81,1-.67a6,6,0,0,1,.61.15C99.73,57,99.83,57.12,99.83,57.68Z"/><path class="cls-4" d="M95.86,56a9.29,9.29,0,0,1,1,.26c.45.15.46.51.36.9s-.2.81-.76.72a11.13,11.13,0,0,1-1.11-.26.61.61,0,0,1-.48-.83C95,56.37,95.07,55.92,95.86,56Z"/><path class="cls-4" d="M94,58.12c0,.68-.41,1.15-.94,1.13-.79,0-1.33-.36-1.34-.84s.43-1.24.8-1.25C93.23,57.15,94,57.63,94,58.12Z"/><path class="cls-4" d="M101.82,60.41c0,.69-.22,1-.67.91-1.11-.2-1.44-.24-1.42-.89s.29-1.15.81-1.08C101.53,59.5,101.89,59.54,101.82,60.41Z"/><path class="cls-4" d="M95.27,66.38c.08-.38,0-.94.52-1.14a2.22,2.22,0,0,1,1.66.27c.23.09.07.21,0,.31a13,13,0,0,0-.75,1.08c-.23.41-.52.35-.87.24A.69.69,0,0,1,95.27,66.38Z"/><path class="cls-4" d="M94.41,67.74c0,1-.47,1.43-1.27,1.18a.46.46,0,0,1-.38-.48c0-.5-.06-1-.1-1.49,0-.11,0-.22.12-.25a3.09,3.09,0,0,1,1.52.59A.79.79,0,0,1,94.41,67.74Z"/><path class="cls-4" d="M95.43,54.7a1.35,1.35,0,0,1,1.89-.33c.48.23.48.59.34,1s-.37.68-.85.53l-.33-.09c-1-.21-1-.21-1-1.13Z"/><path class="cls-4" d="M94.66,56.14c0,.62-.37,1.1-.79,1.07-.76-.05-1.4-.42-1.39-.81s.43-1.12.79-1.11C94.11,55.32,94.67,55.66,94.66,56.14Z"/><path class="cls-4" d="M98.78,54.69a6.18,6.18,0,0,1,1,.29c.52.25.42.72.32,1.16s-.46.45-.82.37-.55-.14-.83-.22c-.5-.14-.49-.52-.41-.91S98.27,54.64,98.78,54.69Z"/><path class="cls-4" d="M102,58.41c0,.24,0,.65-.41.79s-1.43-.3-1.49-.55a1.28,1.28,0,0,1,.3-1.28c.37-.3.84,0,1.24.12S102.06,58,102,58.41Z"/><path class="cls-4" d="M101.46,51.82c-.18-.34-.65-.21-.65-.61,0-.23,0-.5.26-.59a.83.83,0,0,1,.79.2.51.51,0,0,1,.11.67c-.2.28-.15.4,0,.64a.83.83,0,0,1,0,1c-.27.35-.64,0-1,0s-.34-.35-.34-.63C100.77,52,101,51.8,101.46,51.82Z"/><path class="cls-4" d="M95.44,54.69a.11.11,0,0,0-.18,0c-.15.24-.2.59-.56.58a2.14,2.14,0,0,1-1.24-.38c-.34-.27-.08-.64.05-1a.65.65,0,0,1,.77-.44,1.17,1.17,0,0,1,1.15,1.16Z"/><path class="cls-4" d="M98.76,48c-.75,0-.83.54-.86,1.14a.31.31,0,0,0,.31-.26c.17-.54.57-.4.86-.22s.15.66,0,.85-.79.06-1-.15-.34-.18-.53,0a.43.43,0,0,1-.43.09c-.15,0-.38,0-.43-.23a.45.45,0,0,1,.26-.48,3.42,3.42,0,0,0,1.21-1,.52.52,0,0,1,.53-.16c.26.07.07.29.13.43Z"/><path class="cls-4" d="M102.17,56.32c0,.31,0,.77-.54.78s-1.25-.37-1.23-.89c0-.69.18-.92.66-.92C101.85,55.3,102.18,55.58,102.17,56.32Z"/><path class="cls-4" d="M96.9,52.42c.83.16,1.3.27,1.27.8s-.27.87-.7.86c-.75,0-1.31-.33-1.3-.74S96.5,52.41,96.9,52.42Z"/><path class="cls-4" d="M99.8,53c.37.32.71.66.52,1.21a.94.94,0,0,1-.15.3c-.18.21-1.36,0-1.61-.21a1.17,1.17,0,0,1,.07-1.14c.15-.17.34-.13.53-.16s.43.2.65,0Z"/><path class="cls-4" d="M96,52.74c-.14.3-.12.8-.67.8s-1.24-.35-1.22-.69.45-.94.78-.94C95.48,51.91,96,52.3,96,52.74Z"/><path class="cls-4" d="M102.22,54.4c0,.29,0,.7-.48.72-.66,0-1.16-.33-1.11-.77s0-.9.61-.9S102.22,53.73,102.22,54.4Z"/><path class="cls-4" d="M99.81,53c-.07-.27-.32-.22-.49-.25-.39-.08-.59-.25-.5-.66s.17-.72.68-.65c.1,0,.22.07.31,0h0c.11.25.42.18.58.37.35.44.08,1-.58,1.24Z"/><path class="cls-4" d="M97.49,51c.67,0,1.09.27,1.07.7s-.11.82-.54.7-1.1.11-1.21-.58A.71.71,0,0,1,97.49,51Z"/><path class="cls-4" d="M94.66,68.64c0-.85.53-1.32,1.18-1.14.27.08.36.17.18.43s-.47.74-.71,1.11c-.08.13-.12.37-.33.32a.45.45,0,0,1-.32-.49Z"/><path class="cls-4" d="M101.19,61.76c-.46.44-.9.88-1.36,1.3-.28.24-.37,0-.43-.21a.93.93,0,0,1,1.12-1.31A1.21,1.21,0,0,1,101.19,61.76Z"/><path class="cls-4" d="M96.65,51.18c-.12.34-.17.72-.62.74s-1.06-.33-1-.62.25-.75.69-.7S96.54,50.68,96.65,51.18Z"/><path class="cls-4" d="M92.05,63.61l-.65-2.19c.52.14,1.08.14,1.2.69A1.68,1.68,0,0,1,92.05,63.61Z"/><path class="cls-4" d="M99.81,51.38c0-.25-.25-.18-.38-.24-.35-.14-.3-.41-.25-.66a.42.42,0,0,1,.51-.35,2.92,2.92,0,0,1,.49.12.54.54,0,0,1,.4.61c0,.52-.48.39-.78.51Z"/><path class="cls-4" d="M98.3,50.86c-.25-.17-.83.09-.88-.48a.51.51,0,0,1,.65-.59c.37.06.82.06.84.57C98.92,50.66,98.75,50.92,98.3,50.86Z"/><path class="cls-4" d="M98.76,48c.46-.32.91.14,1.38,0,.14,0,.31.08.52,0s.44.18.43.42-.25.13-.41.15c-.56.06-1.06-.25-1.61-.22a.29.29,0,0,1-.31-.42Z"/><path class="cls-4" d="M96.53,49.55c.21.1.68,0,.69.4,0,.27-.14.7-.57.61s-.78,0-.8-.43A.56.56,0,0,1,96.53,49.55Z"/><path class="cls-4" d="M100.74,49.49a.52.52,0,0,1,.18-.48.32.32,0,0,1,.42.06.59.59,0,0,1,.19.57c0,.12-.24.21,0,.38s.33.11.23.32-.28.11-.41.08-.57-.22-.49-.36S100.61,49.67,100.74,49.49Z"/><path class="cls-4" d="M100,48.85c.24,0,.57.06.51.39s.08.7-.39.73c-.27,0-.64-.06-.64-.35S99.35,48.84,100,48.85Z"/><path class="cls-4" d="M99.74,47.81c-.23,0-.54,0-.56-.33s.21-.34.45-.34.55.13.56.45S99.92,47.78,99.74,47.81Z"/><path class="cls-3" d="M95.07,41.6l-.58-.8.09-.07c.18.28.49.5.48.88Z"/><path class="cls-3" d="M94.32,40.63l-.3-.39.12-.1.28.39Z"/><path class="cls-3" d="M95.06,41.61c.1-.07.13,0,.17.08s0,.05,0,.07l-.15-.16Z"/><path class="cls-3" d="M95.41,42l0,0h0S95.36,42,95.41,42Z"/><path class="cls-3" d="M94.49,40.8l-.17-.17.1-.1.16.2Z"/><path class="cls-3" d="M96.79,85.51l0-.07,0,0-.07.06Z"/></svg>