<?xml version="1.0" encoding="utf-8"?>
<!-- Generator: Adobe Illustrator 25.3.1, SVG Export Plug-In . SVG Version: 6.00 Build 0)  -->
<svg version="1.1" id="Layer_1" xmlns="http://www.w3.org/2000/svg" xmlns:xlink="http://www.w3.org/1999/xlink" x="0px" y="0px"
	 viewBox="0 0 117.7 118.1" style="enable-background:new 0 0 117.7 118.1;" xml:space="preserve">
<style type="text/css">
	.st0{fill:#E8F5E9;stroke:#2E7D32;stroke-width:6;}
	.st1{fill:#0E4C21;}
	.st2{fill:#519028;}
	.st3{fill:#FCC600;}
</style>
<path class="st0" d="M33,3.1h52c16.6,0,30,13.4,30,30v52c0,16.6-13.4,30-30,30H33c-16.6,0-30-13.4-30-30v-52C3,16.5,16.5,3.1,33,3.1
	z"/>
<g>
	<path class="st1" d="M49.8,62.8c-1.7,2.8-3,5.8-4,8.8c-0.1,0.4-0.3,0.5-0.7,0.5c-2.6,0-5.3,0-7.9,0c-0.5,0-0.6,0-0.4-0.5
		c3-7.6,6.1-15.2,9.2-22.8c2.3-5.6,4.6-11.2,6.8-16.7c0.2-0.4,0.3-0.5,0.8-0.5c2.1,0,4.2,0,6.3,0c0.3,0,0.5,0,0.6,0.3
		c2.3,5.6,4.6,11.2,6.8,16.9c0,0.1,0,0.1,0.1,0.2c0.2,0.4,0.1,0.6-0.3,0.6c-2.2,0-4.3,0.3-6.4,1c-0.4,0.1-0.4-0.1-0.5-0.3
		c-1-2.6-2-5.2-3-7.9c-0.2-0.4-0.3-0.8-0.5-1.3c-2.8,7.3-5.7,14.5-8.5,21.8c0.3-0.1,0.3-0.5,0.5-0.7c-0.1,0.5,0.1,0.8,0.6,0.8
		C49.5,62.8,49.6,62.8,49.8,62.8z"/>
	<path class="st2" d="M86.5,35.3c-2-2.2-4-4.3-6.4-6c-7.1-5.3-15.2-7.8-24-7.1C45.2,23.1,36,27.4,28.9,35.9c-3.2,3.9-5.5,8.2-6.9,13
		c-3.7,13.3-0.9,25.2,8,35.6c5.9,6.8,13.5,10.8,22.3,12.5c4,0.8,8.1,1,12.1,0.5c0.1,0,0.1,0,0.2,0c0,0,0,0,0.1,0.1
		c-0.1,0.2-0.2,0.1-0.3,0.1c-11.4,2.1-21.8-0.4-31.1-7.1c-7.3-5.3-12.1-12.4-14.6-21.1c-1.8-6.1-2-12.3-0.7-18.5
		c2.5-11.7,8.9-20.6,19.4-26.5c4.1-2.3,8.6-3.6,13.2-4.4c7.5-1.2,14.7,0,21.6,3.1c5.9,2.7,10.6,6.8,14.5,12
		C86.6,35.3,86.5,35.3,86.5,35.3z"/>
	<g>
		<path class="st1" d="M62.4,84.2c-1.3,0.7-2.5,1.4-3.7,2c-0.7,0.4-1.4,0.8-2,1.2c-0.3,0.2-0.5,0.2-0.8-0.1
			c-3.3-2.6-6.9-4.9-10.8-6.5c-4.7-2-9.5-3.1-14.6-3c-0.8,0-1.7,0.1-2.5,0.2c-0.3,0-0.5,0-0.7-0.3c-0.7-1.2-1.3-2.4-1.8-3.6
			c-0.2-0.4-0.1-0.5,0.3-0.6c4.2-0.6,8.3-0.5,12.5,0.2c8.3,1.3,15.9,4.4,22.7,9.4c0.4,0.3,0.8,0.6,1.2,1
			C62.2,84.1,62.3,84.2,62.4,84.2z"/>
		<path class="st1" d="M28.2,79.2c10.1-0.1,18.5,3.6,26,10c-0.6,0.4-1.1,0.8-1.7,1.3c-1.4,1.1-2.8,2.2-4.1,3.4
			c-0.3,0.2-0.5,0.3-0.8,0.2c-4.8-1.7-9.3-4.2-13.1-7.6c-2.1-1.8-4-3.9-5.6-6.2C28.7,79.9,28.5,79.6,28.2,79.2z"/>
	</g>
	<path class="st2" d="M49.8,62.8c-0.2,0-0.3,0-0.5,0c-0.5,0-0.7-0.3-0.6-0.8c1.3-2.2,2.8-4.2,4.7-6c3.6-3.3,7.8-4.9,12.6-5.2
		c2.4-0.1,4.8-0.4,7-1.6c-1.1,4.3-3.1,8-6.7,10.7c-4.6,3.4-9.7,4.2-15.3,3.5c1.6-2.5,3.7-4.5,6.1-6c2.4-1.6,5.1-2.6,7.8-3.3
		c-1.6-0.1-3.1,0.3-4.7,0.7c-2.3,0.7-4.4,1.8-6.3,3.3c-1.3,1-2.5,2.2-3.4,3.7C50.3,62.1,50,62.5,49.8,62.8z"/>
	<path class="st1" d="M76.8,72.1c-2.9,0-5.6,0-8.3,0c-0.3,0-0.4-0.1-0.5-0.3c-1.1-2.9-2.2-5.8-3.3-8.7c-0.1-0.2-0.2-0.4,0.1-0.6
		c2.4-1.2,4.4-2.9,6-5.2C72.8,62.3,74.8,67.1,76.8,72.1z"/>
	<g>
		<path class="st2" d="M51.5,95.1c10.7-10.6,23.6-15.8,38.6-16c-0.3,0.6-0.5,1.1-1.1,1.2c-10,2.2-18.2,7.3-24.9,15
			c-0.6,0.7-1.1,0.9-2,0.9C58.5,96.4,55.1,96,51.5,95.1z"/>
		<path class="st2" d="M58.4,79.6c2.7-1.2,5.5-2.1,8.3-2.7c4-0.9,8.1-1.2,12.3-0.9c3.9,0.3,7.6,1,11.3,2.2c0.1,0,0.4,0,0.3,0.3
			c-0.1,0.2-0.2,0.5-0.6,0.5c-1-0.1-1.9-0.1-2.9-0.2c-4.2-0.2-8.4,0.3-12.5,1.2c-3.4,0.7-6.7,1.8-9.9,3.2c-0.2,0.1-0.4,0.2-0.6,0
			C62.3,81.9,60.4,80.8,58.4,79.6z"/>
		<path class="st2" d="M89.3,80.6c-0.7,1.2-1.6,2.3-2.4,3.4c-3.5,4.4-7.8,7.7-13.1,9.8c-1.9,0.8-3.9,1.4-5.9,1.7
			c-0.1,0-0.3,0-0.5,0.1c0.5-0.8,1.1-1.5,1.8-2.2c5-5.6,11-9.5,18-12.1C87.8,81,88.5,80.7,89.3,80.6L89.3,80.6z"/>
	</g>
	<g>
		<path class="st2" d="M99.2,54.6c-0.4,0.6-0.8,1.1-1.2,1.7c-1.6,2.5-2.5,5.3-3.4,8.2c-0.8,2.5-1.7,4.9-3,7.2
			c-0.9,1.5-1.9,2.9-3.4,3.9c-0.3,0.2-0.5,0.3-0.8,0.2c-0.8-0.2-1.6-0.4-2.4-0.5c-0.5-0.1-0.5-0.2-0.4-0.6c1.1-3.4,2.5-6.7,4.4-9.8
			c1.6-2.7,3.4-5.1,5.7-7.3c1.1-1,2.3-1.9,3.7-2.7C98.5,54.8,98.8,54.6,99.2,54.6C99.1,54.5,99.1,54.6,99.2,54.6z"/>
		<path class="st2" d="M79.7,50.9c1.3,1.6,2.2,3.3,2.8,5.1c1.5,4.5,1.7,9.1,1.4,13.7c-0.1,1.5-0.3,3-0.6,4.6
			c-0.1,0.4-0.2,0.6-0.7,0.5c-0.8-0.1-1.7-0.2-2.5-0.3c-0.4,0-0.6-0.2-0.7-0.5c-1-2.2-1.3-4.5-1.2-6.9c0.1-3.1,0.9-6.1,1.5-9.1
			c0.4-2.2,0.4-4.5,0-6.7C79.7,51.2,79.7,51.1,79.7,50.9z"/>
		<path class="st2" d="M100.8,65.2c-2.5,1.6-4.2,4-5.7,6.4c-0.9,1.3-1.7,2.7-2.9,3.9c-0.1,0.1-0.2,0.2-0.4,0.4c-1.4,1.1-1,1-2.8,0.3
			c2.6-2.3,4.1-5.3,5.4-8.5c0.1-0.2,0.1-0.4,0.3-0.5c1.7-1.2,3.6-2,5.7-2C100.5,65.1,100.6,65.1,100.8,65.2z"/>
		<path class="st3" d="M88,58.4c-0.1,1-0.4,1.2-1.3,1c-0.3-0.1-0.5-0.1-0.8-0.2c-0.7-0.2-0.8-0.4-0.6-1.1c0.2-0.7,0.4-0.9,1.1-0.7
			c0.3,0.1,0.7,0.2,1,0.3C87.9,57.7,88.1,58,88,58.4z"/>
		<path class="st3" d="M89.2,58.1c0.5,0.1,1,0.2,1.5,0.3c0.5,0.2,0.7,0.8,0.3,1.2c-0.3,0.4-0.7,0.8-1.3,0.5
			c-0.2-0.1-0.3-0.1-0.5-0.1c-1.1-0.2-1-0.7-0.7-1.7C88.7,58.1,88.9,58.1,89.2,58.1z"/>
		<path class="st3" d="M85.5,59.5c0.5,0.1,1,0.2,1.4,0.3c0.6,0.2,0.8,0.6,0.5,1.4c-0.2,0.6-0.4,0.7-1.1,0.5c-0.1,0-0.1,0-0.2-0.1
			c-1-0.3-1.2-0.5-1.2-1.6C84.8,59.6,85.1,59.5,85.5,59.5z"/>
		<path class="st3" d="M87.3,64.8c-0.7,1.4-1.5,2.8-2.1,4.3c0.1-1.6,0.2-3,0.1-4.5c0-0.3,0.1-0.4,0.4-0.2c0.1,0,0.2,0.1,0.3,0.1
			C86.3,64.9,86.7,65.1,87.3,64.8z"/>
		<path class="st3" d="M85.9,56.2c0-0.9,0.4-1.2,1.3-1c0.2,0.1,0.4,0.1,0.7,0.2c0.7,0.2,0.8,0.4,0.7,1.1c-0.1,0.7-0.4,0.9-1.1,0.7
			c-0.3-0.1-0.7-0.2-1-0.2C86.1,56.8,85.9,56.6,85.9,56.2z"/>
		<path class="st3" d="M89.7,55.9c0.5,0,1,0.2,1.4,0.3c0.6,0.2,0.4,0.7,0.4,1.2c-0.1,0.4-0.3,0.6-0.8,0.6c-0.4-0.1-0.9-0.2-1.3-0.3
			c-0.5-0.1-0.6-0.5-0.5-0.9C89,56.3,89.1,55.8,89.7,55.9z"/>
		<path class="st3" d="M87.6,53.1c0.2,0.1,0.6,0.2,0.9,0.3c0.5,0.1,0.6,0.5,0.5,1C89,55.1,88.8,55.2,88,55c-0.2-0.1-0.4-0.1-0.6-0.2
			c-0.9-0.2-1.1-0.9-0.5-1.6C87,53,87.3,53,87.6,53.1z"/>
		<path class="st3" d="M91.9,54.9c0,0.9-0.5,1.2-1.3,0.8c-0.2-0.1-0.4-0.1-0.5-0.2c-0.6-0.2-0.7-0.4-0.6-1c0.2-0.8,0.4-0.9,1.2-0.7
			c0.2,0.1,0.4,0.1,0.6,0.2C91.8,54.2,91.9,54.3,91.9,54.9z"/>
		<path class="st3" d="M83.4,55.4c0.1-0.8,0.3-1.3,1.2-1c0.2,0.1,0.4,0.1,0.7,0.2c0.5,0.2,0.6,0.6,0.4,1.3c-0.2,0.5-0.5,0.6-1,0.4
			c-0.4-0.2-1-0.1-1.1-0.7C83.5,55.5,83.4,55.5,83.4,55.4z"/>
		<path class="st3" d="M92.3,52.8c0,0.8-0.4,1.1-1.1,0.8c-0.2-0.1-0.4-0.1-0.6-0.1c-0.7-0.1-0.8-0.3-0.7-1c0.1-0.7,0.3-0.8,1-0.7
			c0.2,0,0.4,0.1,0.6,0.1C92.2,52.1,92.3,52.2,92.3,52.8z"/>
		<path class="st3" d="M88.3,51.1c0.2,0.1,0.6,0.1,1,0.3c0.4,0.2,0.5,0.5,0.4,0.9c-0.1,0.4-0.2,0.8-0.8,0.7
			c-0.4-0.1-0.7-0.2-1.1-0.3c-0.4-0.1-0.6-0.4-0.5-0.8C87.4,51.5,87.5,51,88.3,51.1z"/>
		<path class="st3" d="M86.4,53.2c0,0.7-0.4,1.1-0.9,1.1c-0.8,0-1.3-0.4-1.3-0.8c0-0.6,0.4-1.2,0.8-1.2
			C85.7,52.3,86.4,52.7,86.4,53.2z"/>
		<path class="st3" d="M94.3,55.5c0,0.7-0.2,1-0.7,0.9c-1.1-0.2-1.4-0.2-1.4-0.9c0-0.8,0.3-1.2,0.8-1.1C94,54.6,94.3,54.6,94.3,55.5
			z"/>
		<path class="st3" d="M87.7,61.5c0.1-0.4,0-0.9,0.5-1.1c0.6-0.2,1.1,0.1,1.7,0.3c0.2,0.1,0.1,0.2,0,0.3c-0.3,0.4-0.5,0.7-0.8,1.1
			c-0.2,0.4-0.5,0.3-0.9,0.2C87.9,62.1,87.7,61.9,87.7,61.5z"/>
		<path class="st3" d="M86.9,62.8c0,1-0.5,1.4-1.3,1.2c-0.3-0.1-0.4-0.2-0.4-0.5c0-0.5-0.1-1-0.1-1.5c0-0.1-0.1-0.2,0.1-0.3
			c0.3-0.1,1.3,0.4,1.5,0.6C86.9,62.5,86.9,62.7,86.9,62.8z"/>
		<path class="st3" d="M87.9,49.8c0.6-0.7,1-0.7,1.9-0.3c0.5,0.2,0.5,0.6,0.3,1c-0.1,0.4-0.4,0.7-0.8,0.5c-0.1,0-0.2-0.1-0.3-0.1
			C88,50.7,88,50.7,87.9,49.8L87.9,49.8z"/>
		<path class="st3" d="M87.1,51.2c0,0.6-0.4,1.1-0.8,1.1c-0.8-0.1-1.4-0.4-1.4-0.8c0-0.5,0.4-1.1,0.8-1.1
			C86.6,50.4,87.1,50.8,87.1,51.2z"/>
		<path class="st3" d="M91.2,49.8c0.3,0.1,0.7,0.1,1,0.3c0.5,0.2,0.4,0.7,0.3,1.2c-0.1,0.5-0.5,0.5-0.8,0.4
			c-0.3-0.1-0.6-0.1-0.8-0.2c-0.5-0.1-0.5-0.5-0.4-0.9C90.6,50.1,90.7,49.7,91.2,49.8z"/>
		<path class="st3" d="M94.5,53.5c0,0.2,0,0.6-0.4,0.8c-0.3,0.1-1.4-0.3-1.5-0.6c-0.1-0.5-0.1-1,0.3-1.3c0.4-0.3,0.8,0,1.2,0.1
			C94.5,52.7,94.5,53.1,94.5,53.5z"/>
		<path class="st3" d="M93.9,46.9c-0.2-0.3-0.7-0.2-0.6-0.6c0-0.2,0-0.5,0.3-0.6c0.3-0.1,0.6,0,0.8,0.2c0.2,0.2,0.3,0.5,0.1,0.7
			c-0.2,0.3-0.1,0.4,0.1,0.6c0.2,0.3,0.3,0.7,0,1c-0.3,0.4-0.6,0-0.9,0c-0.3,0-0.3-0.3-0.3-0.6C93.2,47.1,93.4,46.9,93.9,46.9z"/>
		<path class="st3" d="M87.9,49.8c-0.1-0.1-0.1,0-0.2,0c-0.1,0.2-0.2,0.6-0.6,0.6c-0.4,0-0.9-0.1-1.2-0.4c-0.3-0.3-0.1-0.6,0-0.9
			c0.1-0.3,0.4-0.5,0.8-0.4C87.4,48.8,87.8,49.1,87.9,49.8C87.9,49.8,87.9,49.8,87.9,49.8z"/>
		<path class="st3" d="M91.2,43.1c-0.8,0-0.8,0.5-0.9,1.1c0.2,0,0.3-0.1,0.3-0.3c0.2-0.5,0.6-0.4,0.9-0.2c0.4,0.2,0.1,0.7,0,0.8
			c-0.3,0.3-0.8,0.1-1-0.1c-0.2-0.2-0.3-0.2-0.5-0.1c-0.1,0.1-0.3,0.1-0.4,0.1c-0.2-0.1-0.4,0-0.4-0.2c-0.1-0.2,0.1-0.4,0.3-0.5
			c0.5-0.3,0.9-0.5,1.2-1c0.1-0.1,0.3-0.2,0.5-0.2C91.3,42.8,91.2,43,91.2,43.1L91.2,43.1z"/>
		<path class="st3" d="M94.6,51.4c-0.1,0.3,0,0.8-0.5,0.8c-0.7,0-1.2-0.4-1.2-0.9c0-0.7,0.2-0.9,0.7-0.9
			C94.3,50.4,94.6,50.7,94.6,51.4z"/>
		<path class="st3" d="M89.4,47.5c0.8,0.2,1.3,0.3,1.3,0.8c0,0.5-0.3,0.9-0.7,0.9c-0.8,0-1.3-0.3-1.3-0.7
			C88.6,47.9,89,47.5,89.4,47.5z"/>
		<path class="st3" d="M92.3,48.1c0.4,0.3,0.7,0.7,0.5,1.2c0,0.1-0.1,0.2-0.1,0.3c-0.2,0.2-1.4,0-1.6-0.2c-0.2-0.2-0.1-0.9,0.1-1.1
			c0.1-0.2,0.3-0.1,0.5-0.2C91.8,48.1,92,48.3,92.3,48.1L92.3,48.1z"/>
		<path class="st3" d="M88.5,47.8c-0.1,0.3-0.1,0.8-0.7,0.8c-0.6,0-1.2-0.4-1.2-0.7c0-0.4,0.5-0.9,0.8-0.9
			C87.9,47,88.5,47.4,88.5,47.8z"/>
		<path class="st3" d="M94.7,49.5c0,0.3,0,0.7-0.5,0.7c-0.7,0-1.2-0.3-1.1-0.8c0-0.4,0-0.9,0.6-0.9C94.4,48.6,94.7,48.8,94.7,49.5z"
			/>
		<path class="st3" d="M92.3,48.1c-0.1-0.3-0.3-0.2-0.5-0.3c-0.4-0.1-0.6-0.2-0.5-0.7c0.1-0.4,0.2-0.7,0.7-0.6
			c0.1,0,0.2,0.1,0.3-0.1l0,0c0.1,0.3,0.4,0.2,0.6,0.4C93.2,47.3,92.9,47.9,92.3,48.1C92.3,48.1,92.3,48.1,92.3,48.1z"/>
		<path class="st3" d="M90,46.1c0.7,0,1.1,0.3,1.1,0.7c0,0.3-0.1,0.8-0.5,0.7c-0.4-0.1-1.1,0.1-1.2-0.6C89.2,46.4,89.6,46.1,90,46.1
			z"/>
		<path class="st3" d="M87.1,63.7c0-0.9,0.5-1.3,1.2-1.1c0.3,0.1,0.4,0.2,0.2,0.4c-0.2,0.4-0.5,0.7-0.7,1.1
			c-0.1,0.1-0.1,0.4-0.3,0.3c-0.2-0.1-0.3-0.3-0.3-0.5C87.1,63.9,87.1,63.8,87.1,63.7z"/>
		<path class="st3" d="M93.6,56.9c-0.5,0.4-0.9,0.9-1.4,1.3c-0.3,0.2-0.4,0-0.4-0.2c-0.3-0.8,0.3-1.5,1.1-1.3
			C93.2,56.7,93.4,56.7,93.6,56.9z"/>
		<path class="st3" d="M89.1,46.3C89,46.6,88.9,47,88.5,47c-0.5,0-1.1-0.3-1-0.6c0.1-0.4,0.2-0.7,0.7-0.7
			C88.5,45.7,89,45.8,89.1,46.3z"/>
		<path class="st3" d="M84.5,58.7c-0.2-0.8-0.4-1.5-0.6-2.2c0.5,0.1,1.1,0.1,1.2,0.7C85.2,57.7,85,58.2,84.5,58.7z"/>
		<path class="st3" d="M92.3,46.5c0-0.3-0.3-0.2-0.4-0.2c-0.3-0.1-0.3-0.4-0.2-0.7c0-0.3,0.2-0.4,0.5-0.3c0.2,0,0.3,0.1,0.5,0.1
			c0.3,0.1,0.4,0.3,0.4,0.6C93,46.5,92.6,46.4,92.3,46.5C92.3,46.5,92.3,46.5,92.3,46.5z"/>
		<path class="st3" d="M90.8,46c-0.3-0.2-0.8,0.1-0.9-0.5c0-0.4,0.2-0.7,0.6-0.6c0.4,0.1,0.8,0.1,0.8,0.6C91.4,45.8,91.2,46,90.8,46
			z"/>
		<path class="st3" d="M91.2,43.1c0.5-0.3,0.9,0.1,1.4,0c0.1,0,0.3,0.1,0.5,0c0.2-0.1,0.4,0.2,0.4,0.4c0,0.2-0.3,0.1-0.4,0.1
			c-0.6,0.1-1.1-0.3-1.6-0.2C91.3,43.6,91.1,43.4,91.2,43.1C91.2,43.1,91.2,43.1,91.2,43.1z"/>
		<path class="st3" d="M89,44.6c0.2,0.1,0.7,0,0.7,0.4c0,0.3-0.1,0.7-0.6,0.6c-0.3-0.1-0.8,0-0.8-0.4C88.3,44.9,88.5,44.6,89,44.6z"
			/>
		<path class="st3" d="M93.2,44.6c0-0.2,0-0.4,0.2-0.5c0.1-0.1,0.3-0.1,0.4,0.1c0.2,0.2,0.2,0.4,0.2,0.6c0,0.1-0.2,0.2,0,0.4
			c0.1,0.1,0.3,0.1,0.2,0.3c-0.1,0.2-0.3,0.1-0.4,0.1c-0.2-0.1-0.6-0.2-0.5-0.4C93.4,44.9,93.1,44.8,93.2,44.6z"/>
		<path class="st3" d="M92.4,43.9c0.2,0,0.6,0.1,0.5,0.4c0,0.2,0.1,0.7-0.4,0.7c-0.3,0-0.6-0.1-0.6-0.3
			C91.9,44.4,91.8,43.9,92.4,43.9z"/>
		<path class="st3" d="M92.2,42.9c-0.2,0-0.5,0-0.6-0.3c0-0.2,0.2-0.3,0.5-0.3c0.3,0,0.6,0.1,0.6,0.4C92.6,43,92.4,42.9,92.2,42.9z"
			/>
	</g>
	<path class="st2" d="M87.5,36.7c-0.2-0.3-0.4-0.5-0.6-0.8c0,0,0.1,0,0.1-0.1C87.2,36.1,87.5,36.3,87.5,36.7L87.5,36.7z"/>
	<path class="st2" d="M86.8,35.7c-0.1-0.1-0.2-0.3-0.3-0.4c0,0,0.1-0.1,0.1-0.1C86.7,35.4,86.8,35.5,86.8,35.7
		C86.8,35.7,86.8,35.7,86.8,35.7z"/>
	<path class="st2" d="M87.5,36.7c0.1-0.1,0.1,0,0.2,0.1c0,0,0,0.1,0,0.1C87.6,36.8,87.6,36.8,87.5,36.7
		C87.5,36.7,87.5,36.7,87.5,36.7z"/>
	<path class="st2" d="M87.9,37.1C87.9,37.1,87.9,37.1,87.9,37.1C87.9,37.2,87.9,37.2,87.9,37.1C87.8,37.1,87.8,37.1,87.9,37.1z"/>
	<path class="st2" d="M86.9,35.9c-0.1-0.1-0.1-0.1-0.2-0.2c0,0,0.1-0.1,0.1-0.1C86.9,35.7,87,35.8,86.9,35.9
		C87,35.9,87,35.9,86.9,35.9z"/>
	<path class="st2" d="M89.2,80.6C89.3,80.6,89.3,80.6,89.2,80.6C89.3,80.5,89.3,80.6,89.2,80.6C89.3,80.6,89.3,80.6,89.2,80.6
		C89.3,80.6,89.2,80.6,89.2,80.6z"/>
</g>
</svg>
