<svg id="Layer_1" data-name="Layer 1" xmlns="http://www.w3.org/2000/svg" viewBox="0 0 320 72"><defs><style>.cls-1,.cls-2{isolation:isolate;}.cls-1{font-size:36px;fill:#1b5e20;font-family:NotoSansThai-ExtraBold, Noto Sans Thai;font-weight:800;}.cls-2{font-size:17px;fill:#2e7d32;font-family:NotoSansThai-Bold, Noto Sans Thai;font-weight:700;}.cls-3{fill:#519028;}.cls-4{fill:#fcc600;}</style></defs><text class="cls-1" transform="translate(4 35)">KaonA-Agri</text><text class="cls-2" transform="translate(6 60)">แอพสมาชิกข้าวโพดอาหารสัตว์</text><path class="cls-3" d="M299.4,46.63c-1.73.22-3.48.38-5.2.66-7.4,1.17-14.05,4.14-20.65,7.24a76.39,76.39,0,0,1-18.17,6.3,32.36,32.36,0,0,1-13,.22,2.58,2.58,0,0,1-1.83-1.31c-1.11-1.85-2.21-3.71-3.45-5.47-.7-1-.51-1.35.43-1.79a107.19,107.19,0,0,1,25.15-8.2,80.05,80.05,0,0,1,23.11-1.47,44.34,44.34,0,0,1,11.34,2.51c.8.29,1.58.69,2.37,1Z"/><path class="cls-3" d="M270.48,3.44a36.58,36.58,0,0,1-4,13.94C261.35,27.77,253.69,36,244.94,43.24c-2.87,2.39-6,4.49-9.05,6.6-.87.6-1.42.67-2.16-.39-1.27-1.8-2.68-3.53-4.11-5.21a2,2,0,0,1-.38-2.25,34.12,34.12,0,0,1,10.07-14c5.69-5,12.36-8.54,18.7-12.58A40.49,40.49,0,0,0,269.89,4.11C270,4,270.13,3.84,270.48,3.44Z"/><path class="cls-3" d="M283.64,67.52c-7.38-2-14.52-1.24-21.63-.13-4,.62-7.89,1.43-12,1.09-.43,0-.87,0-1.31-.13-4.52-.82-3.6-.28-5.63-4.78,8.84,1.08,16.88-1.14,24.76-4a2.39,2.39,0,0,1,1.52-.23,28.93,28.93,0,0,1,13.94,7.46A.77.77,0,0,1,283.64,67.52Z"/><path class="cls-4" d="M272.52,31.8c-1.89,1.6-2.81,1.41-4.08-.74-.36-.6-.73-1.19-1.06-1.8-.93-1.69-.77-2.28.8-3.13s2.32-.72,3.37.89c.49.75.91,1.54,1.33,2.33A1.76,1.76,0,0,1,272.52,31.8Z"/><path class="cls-4" d="M275.16,33.44a16.81,16.81,0,0,1,2.08,3.39,1.83,1.83,0,0,1-1.57,2.69c-1.36.16-2.58,0-3.23-1.54a6.94,6.94,0,0,0-.7-1.15c-1.62-2.44-.55-3.2,1.69-4.07C274.17,32.47,274.71,33,275.16,33.44Z"/><path class="cls-4" d="M265.9,28.74A15.84,15.84,0,0,1,267.84,32c.7,1.59.26,2.5-1.55,3.29-1.37.6-1.93.34-2.85-1.33-.1-.18-.21-.34-.31-.52-1.34-2.34-1.25-3.2.57-4.95C264.49,27.73,265.23,28,265.9,28.74Z"/><path class="cls-4" d="M259.81,41.28c-3.87,1-7.57,1.93-11.53,3.22a90.53,90.53,0,0,0,8.15-7.34c.57-.58.85-.35,1.12.3a3,3,0,0,1,.33.83A2.85,2.85,0,0,0,259.81,41.28Z"/><path class="cls-4" d="M272.55,24.18c1.71-1.56,2.92-1.32,4.11.72.3.52.62,1,.91,1.56.93,1.7.81,2.22-.76,3.18s-2.18.71-3.2-.91c-.48-.76-.92-1.55-1.38-2.32A1.52,1.52,0,0,1,272.55,24.18Z"/><path class="cls-4" d="M279.89,30.89a10.48,10.48,0,0,1,2,3.22c.74,1.53-.54,2-1.43,2.65a1.6,1.6,0,0,1-2.41-.54c-.64-1-1.24-1.95-1.8-2.95a1.67,1.67,0,0,1,.7-2.56C277.88,30.21,278.92,29.42,279.89,30.89Z"/><path class="cls-4" d="M281.17,22.13c.29.5.79,1.36,1.28,2.23a1.77,1.77,0,0,1-.74,2.66c-1.67,1-2.32.86-3.37-.95-.28-.48-.55-1-.82-1.44-1.13-2-.38-3.48,1.89-3.65C280.09,20.92,280.5,21.33,281.17,22.13Z"/><path class="cls-4" d="M285.71,33.33c-1.6,1.51-3,1.08-3.84-1.18-.18-.45-.48-.87-.71-1.31-.77-1.53-.63-2,.76-2.81,1.69-1,2.3-.77,3.36,1.08.27.48.54,1,.8,1.44C286.82,32,286.77,32.33,285.71,33.33Z"/><path class="cls-4" d="M269.36,18c1.68-1.14,3-1.58,3.89.59.23.54.63,1,.84,1.57.53,1.37,0,2.16-1.65,2.88-1.24.53-2,.08-2.57-1.14s-1.6-2.06-.81-3.36C269.18,18.37,269.28,18.16,269.36,18Z"/><path class="cls-4" d="M290.09,30.47c-1.34,1.36-2.65,1.19-3.35-.63a7.41,7.41,0,0,0-.8-1.26c-1-1.59-.93-2.1.57-3s2.05-.73,3.09.84c.3.45.58.92.84,1.4C291.15,29.12,291.09,29.54,290.09,30.47Z"/><path class="cls-4" d="M285.82,20.12c.29.49.86,1.38,1.33,2.31.55,1.1-.06,1.72-.93,2.18s-1.81,1-2.66-.22c-.58-.81-1.07-1.69-1.57-2.55a1.49,1.49,0,0,1,.59-2.31C283.55,19,284.54,18.47,285.82,20.12Z"/><path class="cls-4" d="M278.63,20.05a2.51,2.51,0,0,1-3.69.13c-1.4-1.56-1.79-3.15-.95-4s3-1.27,3.64-.59C279,17,279.52,19.24,278.63,20.05Z"/><path class="cls-4" d="M288.91,38.87c-1.27,1.12-2.14,1.25-2.82.26-1.67-2.44-2.22-3.15-1-4.2,1.39-1.23,2.55-1.41,3.37-.28C290,36.78,290.56,37.54,288.91,38.87Z"/><path class="cls-4" d="M266.48,36.46c.82-.48,1.73-1.5,2.95-.92,1.43.68,1.94,2.24,2.54,3.6.26.58-.25.49-.54.52-1.1.14-2.22.16-3.28.4s-1.54-.41-2-1.26A1.71,1.71,0,0,1,266.48,36.46Z"/><path class="cls-4" d="M262.52,37.12c-1.83,1.72-3.37,1.51-4.4-.44a1.13,1.13,0,0,1,.17-1.52c.83-.88,1.63-1.79,2.43-2.69.19-.21.3-.47.67-.19a8.29,8.29,0,0,1,1.71,3.87A1.73,1.73,0,0,1,262.52,37.12Z"/><path class="cls-4" d="M287.35,17.1c2.24,0,3.17.76,4,3,.47,1.28-.17,1.9-1.17,2.34s-1.85.45-2.47-.73a7.52,7.52,0,0,0-.45-.78c-1.36-2.16-1.36-2.16.1-3.87Z"/><path class="cls-4" d="M283.41,18c-1.14,1-2.61,1.16-3.32.32-1.3-1.54-1.81-3.39-1.11-4,1-.86,2.76-1.05,3.39-.36C283.85,15.62,284.27,17.27,283.41,18Z"/><path class="cls-4" d="M293.46,23.45a17.36,17.36,0,0,1,1.26,2.36c.5,1.4-.51,2-1.46,2.54s-1.63-.11-2.15-.92c-.4-.63-.74-1.3-1.11-1.95-.68-1.19,0-1.81.86-2.33A1.72,1.72,0,0,1,293.46,23.45Z"/><path class="cls-4" d="M292.81,35.91c-.46.36-1.08,1.15-2.15.53-.78-.45-2.07-3.22-1.72-3.75a2.94,2.94,0,0,1,2.79-1.59c1.21.2,1.55,1.59,2.06,2.57S293.64,35.2,292.81,35.91Z"/><path class="cls-4" d="M303.39,23.7c.26-.91-.82-1.6-.11-2.24.41-.38.91-.83,1.52-.51a2.29,2.29,0,0,1,1.07,1.82,1.18,1.18,0,0,1-1,1.36c-.83.08-1,.39-1,1.18a1.93,1.93,0,0,1-1.73,1.78c-1.12.08-1.18-1.19-1.67-1.86s0-1.23.5-1.7C301.74,22.77,302.52,22.75,303.39,23.7Z"/><path class="cls-4" d="M287.37,17.1c0-.26-.19-.32-.39-.28-.69.12-1.42.61-2.05-.08a5.9,5.9,0,0,1-1.57-3c-.16-1.09,1-1.23,1.75-1.51a1.73,1.73,0,0,1,2.18.74c1,1.47,1.25,2.83,0,4.14Z"/><path class="cls-4" d="M305.15,12.2c-1.38-1.41-2.46-.69-3.59.27a.82.82,0,0,0,1,.15c1.27-.58,1.75.41,1.94,1.27.26,1.11-.88,1.39-1.56,1.35-1.15-.07-1.54-1.39-1.58-2.15s-.3-1-.88-1.1a1.27,1.27,0,0,1-.93-.67c-.19-.39-.61-.79-.36-1.21a1,1,0,0,1,1.29-.32,8.82,8.82,0,0,0,3.91.68,1.44,1.44,0,0,1,1.23.74c.36.61-.38.63-.51,1Z"/><path class="cls-4" d="M296.75,32.64c-.63.42-1.29,1.36-2.36.27-1.34-1.36-1.62-3-.67-3.83,1.24-1.13,1.95-1.2,2.83-.27C298,30.31,298.07,31.42,296.75,32.64Z"/><path class="cls-4" d="M294,16.05c1.23,1.84,1.9,2.93.92,3.76s-2.05,1-2.8.13c-1.35-1.47-1.8-3.06-1.07-3.73A2.08,2.08,0,0,1,294,16.05Z"/><path class="cls-4" d="M298.32,22.51c.11,1.24.13,2.44-1.2,3a2.07,2.07,0,0,1-.79.24c-.68,0-2.54-2.55-2.56-3.45,0-.67,1.3-1.73,2.14-1.76.58,0,.85.42,1.24.73s.43,1.17,1.17,1.25Z"/><path class="cls-4" d="M291.84,14.89c-.78.24-1.62,1.12-2.63.07-1.17-1.21-1.62-3-1-3.48a2.68,2.68,0,0,1,3.07-.09C292.33,12.49,292.65,14.18,291.84,14.89Z"/><path class="cls-4" d="M300.21,29.51c-.57.43-1.2,1.21-2.12.29-1.24-1.23-1.54-2.74-.68-3.41s1.55-1.55,2.7-.34S301.39,28.37,300.21,29.51Z"/><path class="cls-4" d="M298.32,22.54c.35-.58-.2-1-.45-1.36-.58-.86-.64-1.53.24-2.06s1.6-.88,2.38.21c.17.22.3.53.67.5v0c-.25.63.45,1.09.39,1.72-.13,1.41-1.67,1.9-3.23,1Z"/><path class="cls-4" d="M297.68,14.72c1.2,1.27,1.5,2.53.7,3.21-.64.54-1.63,1.17-2.22.14S294,16.18,295,14.8A1.75,1.75,0,0,1,297.68,14.72Z"/><path class="cls-4" d="M261.37,39.11c1.58-1.37,3.3-1.22,4.18.34.35.62.35,1-.45,1.06-1.08.13-2.15.35-3.23.52-.39.06-.87.39-1.17-.11a1.12,1.12,0,0,1,.27-1.43Z"/><path class="cls-4" d="M285.39,40c-1.62-.14-3.19-.24-4.77-.42-.94-.1-.63-.73-.41-1.17,1-2,3.05-2,4.33-.07A3.54,3.54,0,0,1,285.39,40Z"/><path class="cls-4" d="M295.76,13.47c-.82.36-1.57.91-2.43.08s-1.35-2.58-.75-3c.79-.49,1.77-.79,2.49.14C295.67,11.5,296.44,12.42,295.76,13.47Z"/><path class="cls-4" d="M265.49,25.66l2.69-4.92c.69,1.23,1.71,2.3,1,3.46S267.2,25.67,265.49,25.66Z"/><path class="cls-4" d="M301.16,19.83c.42-.46-.15-.78-.29-1.12-.37-.9.2-1.26.73-1.6a1.1,1.1,0,0,1,1.53.39,8.19,8.19,0,0,1,.7,1.13,1.34,1.34,0,0,1-.34,1.79c-1,.84-1.58-.27-2.33-.62Z"/><path class="cls-4" d="M299.34,16.09c-.17-.77-1.7-1.44-.76-2.49a1.32,1.32,0,0,1,2.22.24c.55.8,1.37,1.66.51,2.56C300.81,16.91,300,17,299.34,16.09Z"/><path class="cls-4" d="M305.15,12.2c1.41.33,1.4,2,2.44,2.68.32.22.41.73.89,1a1,1,0,0,1,0,1.54c-.45.39-.69-.26-1-.53-1.13-1-1.48-2.44-2.54-3.44-.36-.34-.53-1,.18-1.28Z"/><path class="cls-4" d="M298.42,10.5c.19.59,1.28,1.26.55,2a1.32,1.32,0,0,1-2.13-.05c-.44-.65-1.48-1.43-.68-2.24A1.44,1.44,0,0,1,298.42,10.5Z"/><path class="cls-4" d="M306.18,18.41c.37-.33.73-.59,1.19-.46a.93.93,0,0,1,.65.9,1.38,1.38,0,0,1-.67,1.31c-.27.16-.81-.08-.77.55,0,.34.43.82-.13,1s-.72-.35-.88-.64c-.27-.49-.65-1.45-.27-1.53C306.08,19.37,305.64,18.47,306.18,18.41Z"/><path class="cls-4" d="M305.92,15.88c.41.46.92,1.17.21,1.62-.52.33-1.08,1.34-2,.48-.51-.48-1.06-1.32-.56-1.8S304.8,14.67,305.92,15.88Z"/><path class="cls-4" d="M307.31,13.68c-.36-.49-1-1-.44-1.62.38-.41,1-.17,1.42.29s.78,1.26.22,1.81S307.69,14,307.31,13.68Z"/></svg>