<svg id="Layer_1" data-name="Layer 1" xmlns="http://www.w3.org/2000/svg" viewBox="0 0 420 120"><defs><style>.cls-1{fill:#fff;}.cls-2{fill:#e8f5e9;stroke:#2e7d32;stroke-width:4px;}.cls-3{fill:#519028;}.cls-4{fill:#fcc600;}.cls-5,.cls-6{isolation:isolate;}.cls-5{font-size:38px;fill:#1b5e20;font-family:NotoSansThai-ExtraBold, Noto Sans Thai;font-weight:800;}.cls-6{font-size:19px;fill:#2e7d32;font-family:NotoSansThai-Bold, Noto Sans Thai;font-weight:700;}.cls-7{fill:#0e4c21;}.cls-8{fill:#53912a;}</style></defs><rect class="cls-1" width="420" height="120" rx="28"/><rect class="cls-2" x="18" y="18" width="84" height="84" rx="22"/><path class="cls-3" d="M344,42.7c-.23.33-.46.65-.68,1a19.18,19.18,0,0,0-2,4.67,18.41,18.41,0,0,1-1.73,4.09,7.45,7.45,0,0,1-1.93,2.25.55.55,0,0,1-.48.1c-.45-.12-.91-.23-1.37-.31-.26,0-.29-.13-.22-.36a26.34,26.34,0,0,1,2.49-5.58,18.37,18.37,0,0,1,3.23-4.15,9.78,9.78,0,0,1,2.1-1.52c.16-.09.34-.15.51-.23Z"/><path class="cls-3" d="M332.85,40.61a8.67,8.67,0,0,1,1.59,2.93,20,20,0,0,1,.82,7.83c-.05.88-.19,1.74-.32,2.6,0,.25-.11.35-.38.31a14.06,14.06,0,0,0-1.44-.15.44.44,0,0,1-.41-.3,8.73,8.73,0,0,1-.68-4,38.06,38.06,0,0,1,.84-5.2,10.38,10.38,0,0,0,0-3.85A1.54,1.54,0,0,1,332.85,40.61Z"/><path class="cls-3" d="M344.87,48.75a11.58,11.58,0,0,0-3.26,3.64A11.79,11.79,0,0,1,340,54.6a2.09,2.09,0,0,1-.22.2c-.8.64-.58.57-1.59.18a12.37,12.37,0,0,0,3.08-4.84.57.57,0,0,1,.19-.3,6.09,6.09,0,0,1,3.26-1.15C344.75,48.69,344.81,48.67,344.87,48.75Z"/><path class="cls-4" d="M337.61,44.85c0,.58-.21.71-.73.57l-.44-.11c-.41-.12-.48-.24-.37-.64s.23-.51.64-.43l.57.15A.42.42,0,0,1,337.61,44.85Z"/><path class="cls-4" d="M338.26,44.67a3.23,3.23,0,0,1,.84.2.44.44,0,0,1,.19.7c-.18.25-.38.44-.73.3a1.43,1.43,0,0,0-.28-.07c-.63-.12-.59-.43-.39-.95C338,44.68,338.12,44.67,338.26,44.67Z"/><path class="cls-4" d="M336.13,45.48a2.93,2.93,0,0,1,.8.2c.36.13.44.36.29.79s-.24.38-.64.27l-.13,0c-.56-.15-.68-.31-.69-.9C335.76,45.55,335.92,45.47,336.13,45.48Z"/><path class="cls-4" d="M337.19,48.54c-.43.81-.84,1.59-1.23,2.47a20.35,20.35,0,0,0,.07-2.57c0-.19.07-.2.22-.14a1,1,0,0,1,.18.08A.59.59,0,0,0,337.19,48.54Z"/><path class="cls-4" d="M336.41,43.61c0-.54.23-.71.73-.58l.38.1c.41.12.47.23.39.64s-.22.49-.62.4l-.57-.14A.37.37,0,0,1,336.41,43.61Z"/><path class="cls-4" d="M338.57,43.46a2.18,2.18,0,0,1,.8.19c.35.12.24.42.2.67a.36.36,0,0,1-.45.32c-.25,0-.49-.11-.73-.18a.39.39,0,0,1-.3-.53C338.16,43.69,338.19,43.38,338.57,43.46Z"/><path class="cls-4" d="M337.39,41.82l.54.15a.4.4,0,0,1,.3.55c-.09.45-.21.53-.65.42l-.35-.1c-.49-.14-.6-.49-.29-.91C337,41.81,337.16,41.81,337.39,41.82Z"/><path class="cls-4" d="M339.82,42.87c0,.51-.28.67-.76.46-.1,0-.21-.06-.31-.1-.35-.11-.41-.21-.33-.58s.23-.51.68-.39l.34.09C339.77,42.46,339.82,42.52,339.82,42.87Z"/><path class="cls-4" d="M335,43.16c.07-.47.2-.76.68-.57.12,0,.25.06.37.11.29.14.34.35.2.75a.37.37,0,0,1-.56.25c-.24-.09-.56-.06-.65-.41A1,1,0,0,0,335,43.16Z"/><path class="cls-4" d="M340,41.66c0,.45-.21.64-.6.47a1.14,1.14,0,0,0-.32-.07c-.4-.08-.47-.18-.38-.58s.19-.47.59-.39a2,2,0,0,1,.35.09C340,41.26,340,41.34,340,41.66Z"/><path class="cls-4" d="M337.77,40.71c.12,0,.34.08.56.15s.26.29.2.51-.11.47-.43.41-.43-.09-.64-.14a.36.36,0,0,1-.27-.48C337.25,40.91,337.32,40.66,337.77,40.71Z"/><path class="cls-4" d="M336.68,41.91c0,.39-.23.66-.53.65-.46,0-.77-.21-.77-.48s.25-.71.45-.71C336.26,41.36,336.69,41.63,336.68,41.91Z"/><path class="cls-4" d="M341.17,43.22c0,.4-.12.57-.38.52-.63-.11-.83-.13-.81-.51s.16-.66.46-.61C341,42.7,341.21,42.73,341.17,43.22Z"/><path class="cls-4" d="M337.43,46.63c.05-.22,0-.54.3-.65a1.3,1.3,0,0,1,.94.15c.13,0,0,.12,0,.18s-.3.4-.43.62-.29.19-.49.13A.39.39,0,0,1,337.43,46.63Z"/><path class="cls-4" d="M336.94,47.4c0,.59-.27.82-.73.68a.27.27,0,0,1-.21-.28l-.06-.84c0-.07,0-.13.07-.15a1.73,1.73,0,0,1,.87.34A.51.51,0,0,1,336.94,47.4Z"/><path class="cls-4" d="M337.52,40a.78.78,0,0,1,1.08-.19c.27.13.27.34.19.58s-.2.39-.48.3l-.19,0c-.54-.12-.54-.12-.59-.64Z"/><path class="cls-4" d="M337.08,40.78c0,.36-.21.63-.45.62-.43,0-.8-.25-.79-.47s.24-.64.45-.63C336.77,40.31,337.09,40.51,337.08,40.78Z"/><path class="cls-4" d="M339.44,40a3.92,3.92,0,0,1,.56.16c.29.15.23.41.17.66s-.26.26-.46.22l-.47-.13c-.29-.08-.28-.3-.24-.52S339.14,39.93,339.44,40Z"/><path class="cls-4" d="M341.29,42.08c0,.14,0,.37-.24.45s-.81-.17-.84-.31a.71.71,0,0,1,.17-.73c.21-.18.48,0,.71.06S341.3,41.83,341.29,42.08Z"/><path class="cls-4" d="M341,38.31c-.1-.19-.37-.12-.36-.34s0-.29.14-.34a.47.47,0,0,1,.45.11.3.3,0,0,1,.06.39c-.11.16-.08.23,0,.37a.45.45,0,0,1,0,.58c-.15.2-.36,0-.54,0s-.19-.2-.19-.36S340.68,38.31,341,38.31Z"/><path class="cls-4" d="M337.53,40s-.08,0-.11,0-.11.34-.32.33a1.14,1.14,0,0,1-.7-.22c-.2-.15,0-.36,0-.54a.38.38,0,0,1,.45-.25.66.66,0,0,1,.65.66Z"/><path class="cls-4" d="M339.42,36.15c-.42,0-.47.31-.49.66.11,0,.15-.08.18-.16.1-.3.32-.22.49-.12s.08.37,0,.48-.45,0-.58-.08-.19-.1-.3,0a.24.24,0,0,1-.25.05c-.09,0-.21,0-.24-.13a.24.24,0,0,1,.14-.27,2.09,2.09,0,0,0,.7-.55.28.28,0,0,1,.3-.09c.14,0,0,.16.07.25Z"/><path class="cls-4" d="M341.37,40.89c0,.17,0,.43-.31.44s-.71-.21-.7-.51.1-.52.38-.52C341.19,40.3,341.38,40.47,341.37,40.89Z"/><path class="cls-4" d="M338.36,38.66c.47.09.74.15.73.45s-.16.5-.4.5c-.43,0-.75-.19-.75-.42S338.13,38.65,338.36,38.66Z"/><path class="cls-4" d="M340,39c.21.18.4.37.29.69a.45.45,0,0,1-.08.17c-.1.12-.78,0-.92-.12a.66.66,0,0,1,0-.65c.08-.1.19-.07.3-.09s.25.12.37,0Z"/><path class="cls-4" d="M337.85,38.84c-.08.17-.07.46-.38.46s-.71-.2-.7-.4.26-.53.45-.53S337.86,38.59,337.85,38.84Z"/><path class="cls-4" d="M341.4,39.79c0,.17,0,.4-.28.41s-.66-.18-.63-.44,0-.51.35-.51S341.4,39.41,341.4,39.79Z"/><path class="cls-4" d="M340,39c0-.15-.18-.12-.28-.14s-.34-.14-.29-.37.1-.42.39-.37c.06,0,.13,0,.18,0h0c.06.15.24.1.33.21s0,.59-.33.71Z"/><path class="cls-4" d="M338.7,37.83c.38,0,.62.15.61.4s-.06.46-.31.4-.63.06-.69-.34A.39.39,0,0,1,338.7,37.83Z"/><path class="cls-4" d="M337.08,47.92c0-.49.3-.75.68-.65.15,0,.2.1.1.25s-.27.42-.4.63-.07.21-.2.18a.27.27,0,0,1-.18-.28Z"/><path class="cls-4" d="M340.81,44l-.78.74c-.16.14-.21,0-.24-.12a.53.53,0,0,1,.64-.74A.73.73,0,0,1,340.81,44Z"/><path class="cls-4" d="M338.22,38c-.07.2-.1.41-.36.42s-.6-.18-.57-.35.14-.43.39-.4S338.15,37.67,338.22,38Z"/><path class="cls-4" d="M335.59,45.05l-.37-1.25c.3.08.62.08.69.39A1,1,0,0,1,335.59,45.05Z"/><path class="cls-4" d="M340,38.07c0-.15-.14-.11-.22-.14s-.16-.23-.14-.38a.23.23,0,0,1,.29-.19,1.27,1.27,0,0,1,.28.06.31.31,0,0,1,.23.35c0,.3-.28.22-.44.29Z"/><path class="cls-4" d="M339.16,37.77c-.14-.1-.48,0-.5-.28a.29.29,0,0,1,.37-.33c.21,0,.47,0,.48.32A.28.28,0,0,1,339.16,37.77Z"/><path class="cls-4" d="M339.42,36.16c.27-.19.52.07.79,0,.08,0,.18,0,.3,0s.25.1.24.24-.14.08-.23.09c-.32,0-.61-.14-.92-.13a.17.17,0,0,1-.18-.24Z"/><path class="cls-4" d="M338.15,37c.12.06.39,0,.39.23s-.08.4-.33.35-.44,0-.45-.25A.32.32,0,0,1,338.15,37Z"/><path class="cls-4" d="M340.55,37a.3.3,0,0,1,.11-.28.2.2,0,0,1,.24,0,.34.34,0,0,1,.1.33c0,.07-.13.12,0,.22s.2.06.14.18-.16.07-.23.05-.33-.13-.29-.21S340.48,37.09,340.55,37Z"/><path class="cls-4" d="M340.12,36.62c.13,0,.32,0,.28.23s.05.4-.22.41-.36,0-.36-.2S339.76,36.61,340.12,36.62Z"/><path class="cls-4" d="M340,36c-.13,0-.31,0-.32-.19s.12-.2.26-.19.31.07.32.25S340.08,36,340,36Z"/><text class="cls-5" transform="translate(122 55)">KaonA-Agri</text><text class="cls-6" transform="translate(124 84)">แอพสมาชิกข้าวโพดอาหารสัตว์</text><path class="cls-7" d="M55.62,62.72a30.28,30.28,0,0,0-2.77,6,.44.44,0,0,1-.5.34H47c-.32,0-.41,0-.27-.37Q49.8,60.9,53,53.1c1.56-3.82,3.13-7.65,4.68-11.48a.5.5,0,0,1,.54-.37c1.45,0,2.89,0,4.34,0,.19,0,.33,0,.42.24q2.34,5.79,4.69,11.57s0,.07,0,.11c.16.27.1.38-.24.38a14.16,14.16,0,0,0-4.38.68c-.25.09-.26-.08-.31-.21q-1-2.7-2.08-5.4c-.11-.28-.23-.55-.37-.92-2,5-3.88,10-5.82,14.94.22-.1.24-.32.36-.45,0,.32,0,.53.43.52Z"/><path class="cls-3" d="M80.79,43.89a29.45,29.45,0,0,0-4.39-4.11,24,24,0,0,0-16.46-4.86c-7.43.57-13.78,3.5-18.59,9.37a24,24,0,0,0-4.7,8.89c-2.52,9.11-.65,17.29,5.5,24.43a26.4,26.4,0,0,0,15.26,8.6,25.76,25.76,0,0,0,8.31.33.48.48,0,0,1,.12,0s0,0,0,0-.14.09-.22.11a27.16,27.16,0,0,1-21.36-4.86,26.25,26.25,0,0,1-10-14.47,25.58,25.58,0,0,1-.46-12.71A26.45,26.45,0,0,1,47.11,36.46a26.76,26.76,0,0,1,9-3A25.82,25.82,0,0,1,71,35.57a24.82,24.82,0,0,1,9.91,8.26Z"/><path class="cls-7" d="M64.3,77.4c-.9.5-1.73.94-2.55,1.41q-.7.39-1.38.84a.4.4,0,0,1-.58,0,32.12,32.12,0,0,0-7.38-4.48,24,24,0,0,0-10-2c-.57,0-1.15.06-1.73.12a.41.41,0,0,1-.47-.23c-.45-.8-.87-1.62-1.26-2.45-.14-.29-.09-.36.22-.4a29.94,29.94,0,0,1,8.56.11,34.77,34.77,0,0,1,15.6,6.43c.28.21.55.44.83.66A.68.68,0,0,0,64.3,77.4Z"/><path class="cls-7" d="M40.8,74c6.91,0,12.69,2.47,17.8,6.86l-1.15.86c-1,.73-1.9,1.53-2.81,2.35a.45.45,0,0,1-.52.1,27.11,27.11,0,0,1-9-5.23,24.73,24.73,0,0,1-3.82-4.23Z"/><path class="cls-3" d="M55.62,62.72h-.31c-.38,0-.46-.2-.43-.52a16.91,16.91,0,0,1,3.23-4.1,13.57,13.57,0,0,1,8.63-3.55,10.9,10.9,0,0,0,4.81-1.11A12.69,12.69,0,0,1,67,60.74a13.82,13.82,0,0,1-10.5,2.38A13.83,13.83,0,0,1,60.65,59,18.1,18.1,0,0,1,66,56.75a10.14,10.14,0,0,0-3.19.51,12.59,12.59,0,0,0-4.34,2.26A11.21,11.21,0,0,0,56.13,62C56,62.26,55.79,62.49,55.62,62.72Z"/><path class="cls-7" d="M74.14,69.1H68.42a.28.28,0,0,1-.31-.22l-2.25-6c-.06-.13-.16-.27.07-.38A10.72,10.72,0,0,0,70.08,59Z"/><path class="cls-3" d="M56.8,84.9a36.71,36.71,0,0,1,26.49-11c-.18.43-.32.73-.79.84A31.1,31.1,0,0,0,65.42,85.05a1.6,1.6,0,0,1-1.35.62A27.73,27.73,0,0,1,56.8,84.9Z"/><path class="cls-3" d="M61.54,74.26a30.2,30.2,0,0,1,14.09-2.47,32.36,32.36,0,0,1,7.74,1.52c.08,0,.3,0,.21.19s-.11.37-.4.34c-.65,0-1.31-.08-2-.1a34.58,34.58,0,0,0-8.6.83,35.54,35.54,0,0,0-6.81,2.18c-.13,0-.25.13-.4,0A32,32,0,0,0,61.54,74.26Z"/><path class="cls-3" d="M82.7,74.94A15.17,15.17,0,0,1,81,77.27a22,22,0,0,1-9,6.74A21.15,21.15,0,0,1,68,85.21l-.31,0a11.54,11.54,0,0,1,1.2-1.51A31.19,31.19,0,0,1,81.2,75.42a6.06,6.06,0,0,1,1.49-.49Z"/><path class="cls-3" d="M89.49,57.1c-.27.39-.56.78-.82,1.18a22.84,22.84,0,0,0-2.35,5.61,22.44,22.44,0,0,1-2.08,4.92,9,9,0,0,1-2.31,2.69.64.64,0,0,1-.58.12c-.55-.13-1.1-.27-1.65-.36-.31-.05-.35-.16-.26-.44a31.13,31.13,0,0,1,3-6.7,22.42,22.42,0,0,1,3.89-5,11.83,11.83,0,0,1,2.51-1.82c.2-.1.42-.18.63-.27Z"/><path class="cls-3" d="M76.15,54.58a10.52,10.52,0,0,1,1.9,3.52,24,24,0,0,1,1,9.41c-.06,1-.23,2.09-.38,3.12,0,.3-.13.42-.47.37a16.15,16.15,0,0,0-1.72-.18.52.52,0,0,1-.49-.36,10.25,10.25,0,0,1-.81-4.76,45.18,45.18,0,0,1,1-6.25,12.17,12.17,0,0,0,0-4.62A2.4,2.4,0,0,1,76.15,54.58Z"/><path class="cls-3" d="M90.58,64.36a14,14,0,0,0-3.92,4.37,13.79,13.79,0,0,1-2,2.66c-.09.08-.17.17-.26.24-1,.76-.7.68-1.92.21A14.64,14.64,0,0,0,86.23,66a.72.72,0,0,1,.23-.36,7.21,7.21,0,0,1,3.92-1.38C90.44,64.29,90.5,64.26,90.58,64.36Z"/><path class="cls-4" d="M81.86,59.68c0,.69-.24.84-.88.69l-.53-.14c-.48-.14-.57-.29-.44-.77s.28-.61.77-.51a5.23,5.23,0,0,1,.68.18A.5.5,0,0,1,81.86,59.68Z"/><path class="cls-4" d="M82.64,59.46a4,4,0,0,1,1,.24.53.53,0,0,1,.23.84c-.22.31-.46.53-.87.36a1.37,1.37,0,0,0-.35-.08c-.75-.15-.7-.51-.46-1.14C82.28,59.47,82.47,59.47,82.64,59.46Z"/><path class="cls-4" d="M80.09,60.43a3.75,3.75,0,0,1,1,.24c.43.17.52.43.34,1s-.28.45-.76.32l-.16,0c-.68-.19-.82-.37-.83-1.08C79.64,60.52,79.83,60.43,80.09,60.43Z"/><path class="cls-4" d="M81.35,64.11c-.51,1-1,1.91-1.47,3A26.92,26.92,0,0,0,80,64c0-.23.08-.24.26-.17s.16,0,.21.1A.72.72,0,0,0,81.35,64.11Z"/><path class="cls-4" d="M80.43,58.19c0-.65.27-.85.87-.69.15,0,.31.07.46.12.49.14.56.26.46.77s-.26.58-.74.47l-.69-.17A.42.42,0,0,1,80.43,58.19Z"/><path class="cls-4" d="M83,58a2.55,2.55,0,0,1,1,.23c.42.15.29.51.24.81a.41.41,0,0,1-.53.38,6.63,6.63,0,0,1-.88-.21.46.46,0,0,1-.36-.63C82.52,58.28,82.56,57.92,83,58Z"/><path class="cls-4" d="M81.59,56c.15,0,.4.1.65.18s.43.33.37.66c-.11.54-.25.64-.79.5l-.41-.11c-.59-.17-.73-.6-.35-1.1C81.17,56,81.32,56,81.59,56Z"/><path class="cls-4" d="M84.52,57.29c0,.62-.33.82-.91.56a2.72,2.72,0,0,0-.38-.11c-.42-.14-.49-.27-.39-.7s.27-.62.81-.48l.41.12C84.46,56.8,84.52,56.89,84.52,57.29Z"/><path class="cls-4" d="M78.69,57.64c.09-.56.24-.91.81-.67.15.06.31.07.45.13.36.16.41.42.25.9a.45.45,0,0,1-.68.3c-.29-.12-.68-.08-.78-.49C78.73,57.75,78.7,57.69,78.69,57.64Z"/><path class="cls-4" d="M84.77,55.85c0,.54-.26.77-.72.56a1.29,1.29,0,0,0-.38-.08c-.49-.1-.57-.22-.46-.7s.23-.56.71-.47l.42.1C84.71,55.37,84.77,55.47,84.77,55.85Z"/><path class="cls-4" d="M82.05,54.7c.15,0,.42.1.68.18s.31.35.24.62-.14.56-.52.5-.51-.12-.76-.18a.41.41,0,0,1-.33-.57C81.43,55,81.51,54.65,82.05,54.7Z"/><path class="cls-4" d="M80.75,56.15c0,.47-.28.79-.65.78-.54,0-.91-.25-.91-.58s.29-.85.54-.85C80.24,55.49,80.75,55.82,80.75,56.15Z"/><path class="cls-4" d="M86.14,57.72c0,.48-.15.68-.46.63-.76-.14-1-.17-1-.61s.2-.79.56-.74C85.94,57.1,86.18,57.13,86.14,57.72Z"/><path class="cls-4" d="M81.64,61.81c.06-.26,0-.64.37-.78a1.57,1.57,0,0,1,1.13.19c.15.06,0,.14,0,.21-.17.25-.37.48-.52.74s-.35.24-.59.16A.47.47,0,0,1,81.64,61.81Z"/><path class="cls-4" d="M81.06,62.75c0,.7-.33,1-.88.81a.32.32,0,0,1-.25-.34c0-.33-.05-.67-.07-1,0-.08,0-.15.08-.18a2.15,2.15,0,0,1,1,.41A.53.53,0,0,1,81.06,62.75Z"/><path class="cls-4" d="M81.76,53.81a.91.91,0,0,1,1.29-.23c.33.16.33.41.23.7s-.25.46-.58.35l-.23-.05c-.65-.15-.65-.15-.71-.78Z"/><path class="cls-4" d="M81.23,54.79c0,.43-.26.76-.54.74-.53,0-1-.29-1-.56s.3-.76.54-.76C80.85,54.23,81.24,54.46,81.23,54.79Z"/><path class="cls-4" d="M84.05,53.8a4.87,4.87,0,0,1,.68.2c.35.17.28.5.21.79s-.31.31-.56.26l-.57-.15c-.34-.1-.33-.36-.28-.63S83.7,53.77,84.05,53.8Z"/><path class="cls-4" d="M86.28,56.35c0,.17,0,.45-.28.54s-1-.2-1-.38a.85.85,0,0,1,.2-.87c.26-.21.58,0,.86.08S86.3,56.05,86.28,56.35Z"/><path class="cls-4" d="M85.89,51.83c-.13-.23-.45-.14-.44-.42s0-.34.17-.4a.59.59,0,0,1,.54.13.36.36,0,0,1,.08.47c-.14.18-.1.27,0,.44a.54.54,0,0,1,0,.69c-.19.25-.44,0-.65,0s-.23-.24-.23-.43S85.55,51.82,85.89,51.83Z"/><path class="cls-4" d="M81.76,53.8c-.05,0-.09,0-.12,0s-.14.4-.38.4A1.51,1.51,0,0,1,80.4,54c-.23-.18-.05-.44,0-.65A.45.45,0,0,1,81,53a.81.81,0,0,1,.79.8Z"/><path class="cls-4" d="M84,49.23c-.51,0-.57.37-.59.79a.23.23,0,0,0,.21-.18c.12-.37.39-.28.59-.15s.1.45,0,.58-.54,0-.69-.1-.23-.13-.36,0a.33.33,0,0,1-.3.07c-.1,0-.26,0-.29-.17a.31.31,0,0,1,.17-.32,2.35,2.35,0,0,0,.84-.66.33.33,0,0,1,.36-.11c.18,0,0,.2.09.3Z"/><path class="cls-4" d="M86.38,54.92c0,.21,0,.52-.38.53s-.85-.25-.84-.61.13-.63.46-.63C86.16,54.22,86.38,54.41,86.38,54.92Z"/><path class="cls-4" d="M82.76,52.24c.57.11.9.19.88.55s-.19.6-.48.59c-.52,0-.9-.22-.9-.51A.59.59,0,0,1,82.76,52.24Z"/><path class="cls-4" d="M84.75,52.63c.26.22.48.45.35.83a.56.56,0,0,1-.09.21,1.48,1.48,0,0,1-1.11-.15.81.81,0,0,1,0-.78c.1-.12.23-.09.36-.11s.3.14.45,0Z"/><path class="cls-4" d="M82.15,52.46c-.09.21-.08.55-.46.55s-.85-.24-.83-.47.31-.65.53-.65C81.79,51.9,82.16,52.16,82.15,52.46Z"/><path class="cls-4" d="M86.41,53.6c0,.2,0,.48-.33.49s-.79-.22-.76-.52,0-.62.42-.62S86.41,53.14,86.41,53.6Z"/><path class="cls-4" d="M84.76,52.63c-.05-.18-.22-.15-.34-.17s-.4-.17-.34-.45.12-.49.46-.44c.08,0,.16,0,.22,0h0c.08.17.29.12.4.25.24.3,0,.71-.4.85Z"/><path class="cls-4" d="M83.17,51.24c.46,0,.75.19.73.48s-.07.56-.37.48-.75.08-.83-.4A.48.48,0,0,1,83.17,51.24Z"/><path class="cls-4" d="M81.23,63.37c0-.59.36-.91.81-.79.18.05.25.12.12.3s-.32.51-.48.76c-.06.09-.09.25-.24.22a.31.31,0,0,1-.21-.34A.75.75,0,0,1,81.23,63.37Z"/><path class="cls-4" d="M85.71,58.65c-.32.3-.62.6-.94.89s-.25,0-.29-.15c-.19-.58.17-1,.76-.89A.89.89,0,0,1,85.71,58.65Z"/><path class="cls-4" d="M82.59,51.39c-.08.24-.11.5-.42.51s-.73-.23-.7-.42S81.64,51,82,51,82.51,51.05,82.59,51.39Z"/><path class="cls-4" d="M79.44,59.92,79,58.41c.36.1.74.1.83.48A1.19,1.19,0,0,1,79.44,59.92Z"/><path class="cls-4" d="M84.76,51.53c0-.17-.18-.12-.26-.16-.24-.1-.21-.28-.17-.46a.28.28,0,0,1,.34-.23,1.86,1.86,0,0,1,.34.07.38.38,0,0,1,.28.42c0,.36-.34.27-.54.36Z"/><path class="cls-4" d="M83.73,51.17c-.18-.11-.58.07-.61-.33a.36.36,0,0,1,.45-.4c.25,0,.56,0,.57.39S84,51.21,83.73,51.17Z"/><path class="cls-4" d="M84,49.24c.32-.23.62.09.94,0,.1,0,.22.06.36,0s.3.12.3.29-.18.09-.29.1c-.38,0-.72-.17-1.1-.15a.2.2,0,0,1-.21-.29Z"/><path class="cls-4" d="M82.51,50.27c.14.08.47,0,.47.28s-.09.48-.39.42-.53,0-.54-.3A.38.38,0,0,1,82.51,50.27Z"/><path class="cls-4" d="M85.4,50.23c0-.14,0-.26.12-.33a.24.24,0,0,1,.29,0,.43.43,0,0,1,.12.4c0,.08-.16.14,0,.26s.23.07.16.22-.19.07-.28,0-.39-.15-.33-.24S85.31,50.35,85.4,50.23Z"/><path class="cls-4" d="M84.87,49.79c.16,0,.39,0,.34.28s.06.48-.26.49-.44,0-.44-.23S84.44,49.79,84.87,49.79Z"/><path class="cls-4" d="M84.71,49.08c-.16,0-.37,0-.39-.22s.15-.24.31-.23.38.08.39.3S84.83,49.06,84.71,49.08Z"/><path class="cls-3" d="M81.51,44.83l-.4-.55.06-.05c.13.19.34.34.34.6Z"/><path class="cls-3" d="M81,44.16l-.2-.27.08-.06.19.26Z"/><path class="cls-3" d="M81.51,44.83c.06,0,.08,0,.11.06s0,0,0,0a.52.52,0,0,0-.1-.11Z"/><path class="cls-3" d="M81.74,45.1l0,0h0S81.71,45.1,81.74,45.1Z"/><path class="cls-3" d="M81.11,44.28,81,44.16l.07-.07.11.14Z"/><path class="cls-3" d="M82.69,74.93l0-.05,0,0,0,0Z"/><path class="cls-8" d="M353,97.88C278.4,89,203.69,89.49,129,98.22,203.67,86.62,278.38,86.06,353,97.88Z"/></svg>