<svg id="Layer_1" data-name="Layer 1" xmlns="http://www.w3.org/2000/svg" viewBox="0 0 235 55"><defs><style>.cls-1{fill:#fff;stroke:#d8e0db;}.cls-2{isolation:isolate;font-size:24px;fill:#1a1f1c;font-family:NotoSansThai-Bold, Noto Sans Thai;font-weight:700;}.cls-3{fill:#418727;}.cls-4{fill:#f2b11a;}</style></defs><rect class="cls-1" x="0.5" y="0.5" width="234" height="54" rx="14"/><text class="cls-2" transform="translate(19.5 34.5)">KaonA Agri</text><path class="cls-3" d="M173.93,48.49c1.37-.5,1.8-1.83,2.33-2.93a30.74,30.74,0,0,1,13.08-13.93,9.13,9.13,0,0,1,5.75-1.11c.29.79-.4.9-.78,1.21a21.92,21.92,0,0,0-5.66,7.61,66.36,66.36,0,0,1-3.6,6.37c-3.64,5.65-11.7,6.26-15.61,1.24a8.75,8.75,0,0,1-1.55-6.31,28,28,0,0,1,1-5.22c1.22-4.44,2.94-8.81,1.14-13.63,2,.64,3.88,3.64,4.57,6.42a35,35,0,0,1-.19,17.25c-.22.88-.48,1.75-.7,2.62C173.64,48.17,173.8,48.31,173.93,48.49Z" transform="translate(-0.5 -0.5)"/><path class="cls-4" d="M181.66,30.08c-.3,1.53-.83,1.79-2.3,1.24-.41-.15-.83-.29-1.24-.46-1.12-.47-1.28-.82-.84-1.85s.86-1.26,2-.88c.54.17,1.06.39,1.58.61A1.11,1.11,0,0,1,181.66,30.08Z" transform="translate(-0.5 -0.5)"/><path class="cls-4" d="M183.6,29.85a10.23,10.23,0,0,1,2.37.85,1.14,1.14,0,0,1,.29,1.93,1.65,1.65,0,0,1-2.19.51,4.23,4.23,0,0,0-.8-.29c-1.77-.56-1.54-1.35-.78-2.65C182.74,29.77,183.21,29.81,183.6,29.85Z" transform="translate(-0.5 -0.5)"/><path class="cls-4" d="M177.19,31.18a10.22,10.22,0,0,1,2.25.83c1,.51,1.11,1.12.53,2.22-.43.83-.81.92-1.93.47l-.35-.14c-1.59-.62-1.88-1.07-1.68-2.64C176.09,31.24,176.57,31.09,177.19,31.18Z" transform="translate(-0.5 -0.5)"/><path class="cls-4" d="M179.16,39.7c-1.52,2-3,3.91-4.4,6.08a55.65,55.65,0,0,0,1.1-6.77c0-.51.28-.51.67-.29A1.64,1.64,0,0,1,177,39,1.83,1.83,0,0,0,179.16,39.7Z" transform="translate(-0.5 -0.5)"/><path class="cls-4" d="M178.66,26.34c.22-1.43.91-1.78,2.31-1.25.35.13.71.26,1.06.41,1.13.46,1.28.77.89,1.84s-.79,1.21-1.94.81c-.54-.18-1.06-.39-1.6-.59A1,1,0,0,1,178.66,26.34Z" transform="translate(-0.5 -0.5)"/><path class="cls-4" d="M184.93,26.75a6.53,6.53,0,0,1,2.24.81c1,.46.54,1.21.34,1.86a1,1,0,0,1-1.4.68c-.7-.22-1.38-.47-2.05-.74a1,1,0,0,1-.67-1.52C183.67,27.2,183.87,26.41,184.93,26.75Z" transform="translate(-0.5 -0.5)"/><path class="cls-4" d="M182.09,22c.34.13.93.35,1.51.59a1.1,1.1,0,0,1,.69,1.59c-.41,1.15-.8,1.33-2,.85l-1-.38c-1.36-.56-1.56-1.55-.51-2.53C181.08,21.8,181.44,21.84,182.09,22Z" transform="translate(-0.5 -0.5)"/><path class="cls-4" d="M188.76,25.66c-.19,1.37-1,1.7-2.36.94a8.41,8.41,0,0,0-.87-.37c-1-.45-1.11-.73-.74-1.67.45-1.13.83-1.28,2.08-.79l1,.39C188.76,24.56,188.88,24.76,188.76,25.66Z" transform="translate(-0.5 -0.5)"/><path class="cls-4" d="M174.65,24.58c.38-1.21.84-1.94,2.15-1.23.33.17.71.25,1,.44.81.46.87,1,.33,2.05a1.1,1.1,0,0,1-1.71.45c-.66-.35-1.61-.38-1.73-1.32C174.7,24.82,174.67,24.68,174.65,24.58Z" transform="translate(-0.5 -0.5)"/><path class="cls-4" d="M189.78,22.55c-.12,1.19-.84,1.62-1.9,1a3.73,3.73,0,0,0-.89-.3c-1.14-.38-1.29-.67-.9-1.69s.72-1.16,1.84-.8c.33.1.66.22,1,.35C189.77,21.48,189.9,21.71,189.78,22.55Z" transform="translate(-0.5 -0.5)"/><path class="cls-4" d="M183.58,19.16c.34.13,1,.34,1.57.61s.65.87.41,1.43-.5,1.2-1.4.94c-.61-.18-1.2-.41-1.78-.64a.93.93,0,0,1-.63-1.35C182,19.51,182.3,18.86,183.58,19.16Z" transform="translate(-0.5 -0.5)"/><path class="cls-4" d="M180,22a1.59,1.59,0,0,1-1.77,1.5c-1.31-.21-2.13-.84-2-1.56s1-1.79,1.56-1.72C179,20.32,180.13,21.2,180,22Z" transform="translate(-0.5 -0.5)"/><path class="cls-4" d="M192.52,27.12c-.18,1-.56,1.45-1.29,1.23-1.78-.53-2.33-.67-2.16-1.65.2-1.15.7-1.69,1.55-1.46C192.22,25.68,192.81,25.83,192.52,27.12Z" transform="translate(-0.5 -0.5)"/><path class="cls-4" d="M180.53,34.73c.22-.55.26-1.41,1.09-1.61a4,4,0,0,1,2.68.77c.35.18.06.34-.07.47a20.08,20.08,0,0,0-1.45,1.47c-.46.58-.92.41-1.49.17A1.06,1.06,0,0,1,180.53,34.73Z" transform="translate(-0.5 -0.5)"/><path class="cls-4" d="M178.84,36.6c-.22,1.56-1.06,2.06-2.34,1.51a.7.7,0,0,1-.51-.81c.06-.76.09-1.51.13-2.27,0-.17,0-.34.25-.35a5.21,5.21,0,0,1,2.38,1.22A1.05,1.05,0,0,1,178.84,36.6Z" transform="translate(-0.5 -0.5)"/><path class="cls-4" d="M183.13,17.09c1.13-.86,1.87-.87,3.19-.09.73.44.66,1,.34,1.61s-.73.94-1.5.6l-.53-.2c-1.52-.52-1.52-.52-1.48-1.93Z" transform="translate(-0.5 -0.5)"/><path class="cls-4" d="M181.57,19.09c-.15.94-.83,1.59-1.51,1.46-1.24-.24-2.23-.95-2.13-1.53.13-.81.94-1.6,1.52-1.51C180.83,17.73,181.69,18.37,181.57,19.09Z" transform="translate(-0.5 -0.5)"/><path class="cls-4" d="M188.66,17.8a12,12,0,0,1,1.56.66c.8.49.54,1.18.28,1.82s-.85.58-1.42.39-.88-.35-1.32-.52c-.81-.32-.7-.89-.5-1.48S187.82,17.61,188.66,17.8Z" transform="translate(-0.5 -0.5)"/><path class="cls-4" d="M193.27,24.15c-.08.35-.07,1-.85,1.1-.56.08-2.29-.77-2.33-1.16a1.83,1.83,0,0,1,.75-1.87c.67-.38,1.38.17,2,.45S193.4,23.47,193.27,24.15Z" transform="translate(-0.5 -0.5)"/><path class="cls-4" d="M193.64,14c-.23-.54-1-.46-.94-1,.06-.35.12-.76.55-.84a1.45,1.45,0,0,1,1.25.47.74.74,0,0,1,.05,1.05c-.38.37-.32.56,0,1a1.18,1.18,0,0,1-.15,1.54c-.52.48-1.05-.11-1.55-.25s-.48-.6-.43-1C192.47,14.22,192.84,13.91,193.64,14Z" transform="translate(-0.5 -0.5)"/><path class="cls-4" d="M183.15,17.08c-.12-.12-.22-.08-.31,0-.29.32-.45.85-1,.76a3.76,3.76,0,0,1-2-.86c-.51-.47,0-1,.27-1.42a1.08,1.08,0,0,1,1.36-.49c1.1.3,1.74.89,1.66,2Z" transform="translate(-0.5 -0.5)"/><path class="cls-4" d="M190,7.72c-1.24-.15-1.49.63-1.66,1.54a.51.51,0,0,0,.57-.34c.39-.77,1-.48,1.46-.14s.11,1-.24,1.27c-.59.42-1.3-.07-1.62-.43s-.53-.35-.87-.19a.82.82,0,0,1-.73,0c-.24-.12-.61-.15-.65-.45s.21-.55.51-.66a5.72,5.72,0,0,0,2.19-1.2.9.9,0,0,1,.9-.12c.42.15.06.46.14.68Z" transform="translate(-0.5 -0.5)"/><path class="cls-4" d="M193.91,21c-.14.45-.09,1.17-1,1-1.2-.14-2-.82-1.85-1.61.17-1,.49-1.35,1.29-1.24C193.6,19.39,194.08,19.9,193.91,21Z" transform="translate(-0.5 -0.5)"/><path class="cls-4" d="M186,14c1.33.42,2.09.69,1.94,1.48s-.63,1.26-1.33,1.16c-1.24-.2-2.09-.79-2-1.41A1.31,1.31,0,0,1,186,14Z" transform="translate(-0.5 -0.5)"/><path class="cls-4" d="M190.68,15.44c.54.56,1,1.14.6,1.94a1.42,1.42,0,0,1-.29.43,3.75,3.75,0,0,1-2.62-.68,1.63,1.63,0,0,1,.35-1.7c.28-.24.59-.13.9-.13s.68.4,1.07.15Z" transform="translate(-0.5 -0.5)"/><path class="cls-4" d="M184.47,14.25c-.28.42-.35,1.18-1.26,1.06-1.06-.13-2-.8-1.87-1.31a1.7,1.7,0,0,1,1.48-1.25C183.76,12.88,184.59,13.58,184.47,14.25Z" transform="translate(-0.5 -0.5)"/><path class="cls-4" d="M194.38,18.12c-.11.43-.11,1.06-.93,1-1.1-.11-1.84-.74-1.68-1.4s.15-1.37,1.19-1.22S194.51,17.1,194.38,18.12Z" transform="translate(-0.5 -0.5)"/><path class="cls-4" d="M190.69,15.45c-.06-.42-.49-.4-.76-.49-.63-.19-.92-.49-.7-1.1s.44-1,1.26-.83c.17.05.36.14.52,0v0c.13.41.66.36.88.69.49.74-.07,1.58-1.2,1.75Z" transform="translate(-0.5 -0.5)"/><path class="cls-4" d="M187.28,11.88c1.09.15,1.74.65,1.61,1.29s-.33,1.21-1,.94S186,14,186,13A1.1,1.1,0,0,1,187.28,11.88Z" transform="translate(-0.5 -0.5)"/><path class="cls-4" d="M179.07,38c.23-1.28,1.14-1.88,2.18-1.46.42.16.56.33.21.69s-.92,1-1.39,1.52c-.17.18-.27.53-.62.4a.7.7,0,0,1-.43-.8C179,38.25,179.05,38.14,179.07,38Z" transform="translate(-0.5 -0.5)"/><path class="cls-4" d="M191.22,29c-.85.57-1.67,1.13-2.51,1.66-.51.32-.6-.11-.67-.41-.29-1.34.72-2.17,2.1-1.73A2.26,2.26,0,0,1,191.22,29Z" transform="translate(-0.5 -0.5)"/><path class="cls-4" d="M185.84,12c-.26.49-.41,1.06-1.17,1s-1.68-.73-1.53-1.15.55-1.08,1.28-.91S185.76,11.24,185.84,12Z" transform="translate(-0.5 -0.5)"/><path class="cls-4" d="M175.77,29.84l-.62-3.46c.82.33,1.75.45,1.84,1.31A2.46,2.46,0,0,1,175.77,29.84Z" transform="translate(-0.5 -0.5)"/><path class="cls-4" d="M191,13c0-.39-.38-.33-.58-.44-.54-.29-.4-.69-.28-1.07a.7.7,0,0,1,.91-.41,5.28,5.28,0,0,1,.79.28.82.82,0,0,1,.54,1c-.14.79-.88.49-1.39.61Z" transform="translate(-0.5 -0.5)"/><path class="cls-4" d="M188.64,11.9c-.39-.31-1.4,0-1.36-.93a.83.83,0,0,1,1.19-.74c.59.17,1.33.27,1.26,1C189.69,11.72,189.35,12.08,188.64,11.9Z" transform="translate(-0.5 -0.5)"/><path class="cls-4" d="M190,7.72c.82-.39,1.46.41,2.26.35.24,0,.49.2.85.16a.63.63,0,0,1,.63.74c-.07.37-.45.14-.71.13-.93,0-1.69-.61-2.62-.68-.3,0-.65-.28-.41-.7Z" transform="translate(-0.5 -0.5)"/><path class="cls-4" d="M186,9.52c.32.22,1.12.12,1.05.76a.83.83,0,0,1-1.07.81c-.47-.15-1.29-.12-1.22-.83C184.79,9.78,185.19,9.36,186,9.52Z" transform="translate(-0.5 -0.5)"/><path class="cls-4" d="M192.92,10.35a.81.81,0,0,1,.4-.69.59.59,0,0,1,.68.19.85.85,0,0,1,.19.9c-.07.19-.43.28-.16.57s.54.23.33.53-.5.11-.69,0-.9-.45-.74-.64C193.25,10.86,192.68,10.6,192.92,10.35Z" transform="translate(-0.5 -0.5)"/><path class="cls-4" d="M191.79,9.22c.39.06.92.21.75.71s0,1.07-.78,1c-.44,0-1-.24-1-.66S190.77,9.06,191.79,9.22Z" transform="translate(-0.5 -0.5)"/><path class="cls-4" d="M191.6,7.6c-.36-.1-.88-.14-.85-.62s.43-.48.81-.42.89.31.83.8S191.91,7.59,191.6,7.6Z" transform="translate(-0.5 -0.5)"/></svg>