<svg id="Layer_1" data-name="Layer 1" xmlns="http://www.w3.org/2000/svg" viewBox="0 0 96 96"><defs><style>.cls-1{fill:#e8f5e9;}.cls-2{fill:#418727;}.cls-3{fill:#f2b11a;}</style></defs><rect class="cls-1" width="96" height="96" rx="24"/><path class="cls-2" d="M33.74,87.1c2.62-1,3.45-3.49,4.45-5.59a58.78,58.78,0,0,1,25-26.62,17.52,17.52,0,0,1,11-2.1c.56,1.5-.77,1.72-1.5,2.31-4.85,3.91-8.06,9-10.8,14.53A128.74,128.74,0,0,1,55,81.8c-7,10.79-22.34,11.94-29.82,2.36-2.79-3.58-3.29-7.79-3-12.06A53.43,53.43,0,0,1,24,62.15c2.33-8.49,5.62-16.84,2.18-26,3.76,1.21,7.41,7,8.73,12.26a66.83,66.83,0,0,1-.36,32.95c-.42,1.68-.93,3.33-1.34,5C33.18,86.5,33.5,86.76,33.74,87.1Z"/><path class="cls-3" d="M48.51,52c-.57,2.91-1.58,3.42-4.4,2.36-.79-.29-1.58-.56-2.36-.88-2.15-.9-2.44-1.56-1.61-3.52s1.64-2.42,3.84-1.7c1,.34,2,.76,3,1.18A2.11,2.11,0,0,1,48.51,52Z"/><path class="cls-3" d="M52.22,51.51a20,20,0,0,1,4.52,1.61,2.18,2.18,0,0,1,.56,3.68c-1.15,1.17-2.38,2-4.19,1a9.57,9.57,0,0,0-1.53-.55c-3.37-1.07-2.94-2.57-1.49-5.06C50.57,51.34,51.46,51.42,52.22,51.51Z"/><path class="cls-3" d="M40,54a20,20,0,0,1,4.3,1.59c1.86,1,2.13,2.14,1,4.25-.83,1.57-1.55,1.75-3.69.88l-.67-.26c-3-1.18-3.6-2-3.22-5C37.88,54.15,38.8,53.86,40,54Z"/><path class="cls-3" d="M43.73,70.31c-2.9,3.81-5.66,7.46-8.4,11.62A107.19,107.19,0,0,0,37.44,69c.09-1,.53-1,1.27-.56a3.33,3.33,0,0,1,.95.52C40.69,70.14,41.86,70.94,43.73,70.31Z"/><path class="cls-3" d="M42.77,44.8c.44-2.72,1.75-3.41,4.41-2.39.68.26,1.36.5,2,.78,2.17.89,2.44,1.47,1.7,3.53S49.4,49,47.22,48.27c-1-.36-2-.76-3.06-1.14A1.84,1.84,0,0,1,42.77,44.8Z"/><path class="cls-3" d="M54.75,45.58A12.68,12.68,0,0,1,59,47.13c1.85.88,1,2.32.66,3.54A1.94,1.94,0,0,1,57,52c-1.32-.41-2.63-.89-3.92-1.41a2,2,0,0,1-1.27-2.91C52.34,46.45,52.72,44.94,54.75,45.58Z"/><path class="cls-3" d="M49.32,36.44c.66.26,1.78.69,2.89,1.14a2.1,2.1,0,0,1,1.32,3c-.79,2.2-1.52,2.53-3.89,1.63-.62-.24-1.24-.48-1.85-.74-2.61-1.06-3-3-1-4.82C47.4,36.13,48.09,36.2,49.32,36.44Z"/><path class="cls-3" d="M62.06,43.51c-.36,2.61-2,3.24-4.5,1.78a17.57,17.57,0,0,0-1.66-.7c-1.87-.85-2.11-1.4-1.4-3.19.85-2.17,1.57-2.44,4-1.5.61.24,1.23.48,1.83.74C62.07,41.4,62.3,41.79,62.06,43.51Z"/><path class="cls-3" d="M35.12,41.45c.72-2.32,1.61-3.71,4.11-2.37.62.34,1.36.49,2,.84,1.54.89,1.66,2,.62,3.93-.75,1.42-1.85,1.6-3.27.86-1.26-.67-3.06-.73-3.3-2.54C35.21,41.9,35.15,41.63,35.12,41.45Z"/><path class="cls-3" d="M64,37.57c-.22,2.27-1.59,3.09-3.62,1.91a9.17,9.17,0,0,0-1.7-.57c-2.17-.72-2.47-1.27-1.73-3.23s1.37-2.21,3.53-1.52c.63.2,1.25.43,1.86.68C64,35.52,64.25,36,64,37.57Z"/><path class="cls-3" d="M52.18,31.09c.64.25,1.85.64,3,1.17,1.35.62,1.24,1.65.78,2.73s-1,2.29-2.67,1.79c-1.16-.34-2.28-.78-3.4-1.22A1.78,1.78,0,0,1,48.68,33C49.2,31.75,49.73,30.51,52.18,31.09Z"/><path class="cls-3" d="M45.37,36.41c-.29,1.94-1.7,3.14-3.37,2.87-2.5-.4-4.06-1.6-3.9-3,.2-1.63,1.83-3.41,3-3.28C43.44,33.3,45.59,35,45.37,36.41Z"/><path class="cls-3" d="M69.25,46.3c-.34,2-1.06,2.77-2.46,2.35-3.41-1-4.45-1.29-4.13-3.17.38-2.18,1.34-3.21,3-2.77C68.68,43.54,69.8,43.82,69.25,46.3Z"/><path class="cls-3" d="M46.35,60.82c.41-1.06.5-2.69,2.09-3.07,1.85-.43,3.5.65,5.1,1.47.68.34.13.64-.12.89a38.89,38.89,0,0,0-2.78,2.82c-.88,1.09-1.76.77-2.83.32A2,2,0,0,1,46.35,60.82Z"/><path class="cls-3" d="M43.13,64.39c-.42,3-2,3.94-4.47,2.89a1.35,1.35,0,0,1-1-1.56c.11-1.43.18-2.88.24-4.32,0-.33-.07-.66.49-.68A10.13,10.13,0,0,1,43,63.06,2.1,2.1,0,0,1,43.13,64.39Z"/><path class="cls-3" d="M51.33,27.13c2.15-1.63,3.56-1.66,6.08-.16,1.4.84,1.27,1.91.65,3.06s-1.39,1.81-2.86,1.16c-.33-.15-.67-.27-1-.39-2.91-1-2.91-1-2.83-3.68Z"/><path class="cls-3" d="M48.34,31c-.3,1.8-1.58,3-2.88,2.78-2.38-.46-4.26-1.81-4.08-2.93.26-1.53,1.8-3,2.92-2.87C46.93,28.36,48.57,29.58,48.34,31Z"/><path class="cls-3" d="M61.88,28.49a23.85,23.85,0,0,1,3,1.26c1.53.94,1,2.26.54,3.47s-1.61,1.12-2.72.74c-.85-.28-1.67-.65-2.51-1-1.54-.61-1.35-1.71-1-2.82S60.26,28.13,61.88,28.49Z"/><path class="cls-3" d="M70.68,40.61c-.16.68-.14,1.88-1.62,2.1-1.07.17-4.38-1.46-4.45-2.21A3.48,3.48,0,0,1,66,36.93c1.29-.72,2.65.33,3.88.85S70.92,39.32,70.68,40.61Z"/><path class="cls-3" d="M71.4,21.3c-.45-1-2-.88-1.8-2,.1-.66.23-1.45,1-1.61a2.82,2.82,0,0,1,2.4.91,1.39,1.39,0,0,1,.09,2c-.72.7-.61,1.08-.07,1.87a2.28,2.28,0,0,1-.28,2.95c-1,.92-2-.22-3-.49s-.91-1.14-.81-2C69.14,21.66,69.86,21.06,71.4,21.3Z"/><path class="cls-3" d="M51.35,27.12a.35.35,0,0,0-.58,0c-.55.62-.86,1.64-2,1.46A7.22,7.22,0,0,1,45,27c-1-.91,0-1.89.51-2.72a2.1,2.1,0,0,1,2.61-.94c2.09.59,3.32,1.71,3.17,3.82Z"/><path class="cls-3" d="M64.36,9.24C62,9,61.52,10.43,61.19,12.18a1,1,0,0,0,1.08-.64c.76-1.49,2-.92,2.8-.27,1.07.85.21,2-.45,2.43-1.13.79-2.5-.14-3.11-.83s-1-.67-1.66-.37a1.5,1.5,0,0,1-1.38.08c-.47-.22-1.18-.29-1.26-.86a1.27,1.27,0,0,1,1-1.27,10.67,10.67,0,0,0,4.18-2.28,1.73,1.73,0,0,1,1.72-.24c.8.3.12.88.26,1.31Z"/><path class="cls-3" d="M71.91,34.61c-.28.87-.18,2.24-2,2-2.29-.26-3.77-1.58-3.53-3.08.32-2,.94-2.57,2.46-2.37C71.31,31.52,72.23,32.49,71.91,34.61Z"/><path class="cls-3" d="M56.82,21.15c2.54.81,4,1.32,3.7,2.83S59.31,26.4,58,26.19c-2.38-.36-4-1.51-3.83-2.69A2.51,2.51,0,0,1,56.82,21.15Z"/><path class="cls-3" d="M65.73,24c1,1.08,2,2.19,1.16,3.71a2.52,2.52,0,0,1-.57.82c-.64.51-4.31-.48-5-1.31-.52-.62-.09-2.58.68-3.24.52-.45,1.11-.25,1.71-.24s1.29.76,2,.28Z"/><path class="cls-3" d="M53.88,21.71c-.55.8-.67,2.25-2.41,2-2-.25-3.76-1.54-3.56-2.51.24-1.22,1.78-2.52,2.81-2.38C52.53,19.1,54.1,20.43,53.88,21.71Z"/><path class="cls-3" d="M72.8,29.1c-.21.82-.22,2-1.78,1.86-2.09-.22-3.52-1.41-3.21-2.68s.28-2.61,2.28-2.34S73,27.16,72.8,29.1Z"/><path class="cls-3" d="M65.75,24c-.11-.8-.92-.76-1.45-.93C63.11,22.7,62.55,22.12,63,21s.84-2,2.4-1.58c.33.09.68.28,1,0l0,0c.24.77,1.25.68,1.67,1.31.94,1.42-.13,3-2.29,3.34Z"/><path class="cls-3" d="M59.24,17.18c2.09.29,3.33,1.24,3.08,2.47-.19,1-.64,2.32-2,1.8s-3.48-.15-3.57-2.19A2.1,2.1,0,0,1,59.24,17.18Z"/><path class="cls-3" d="M43.56,67.11c.44-2.45,2.17-3.6,4.17-2.8.8.32,1.06.64.39,1.32-.92.93-1.76,1.93-2.64,2.9-.33.35-.53,1-1.19.78a1.32,1.32,0,0,1-.82-1.54Z"/><path class="cls-3" d="M66.76,49.94C65.14,51,63.57,52.1,62,53.11c-1,.61-1.14-.21-1.26-.78-.56-2.56,1.36-4.14,4-3.31A4.32,4.32,0,0,1,66.76,49.94Z"/><path class="cls-3" d="M56.49,17.45c-.49.94-.78,2-2.22,1.89s-3.22-1.4-2.94-2.2c.37-1.05,1.06-2.06,2.44-1.74C54.92,15.67,56.34,16,56.49,17.45Z"/><path class="cls-3" d="M37.26,51.47c-.42-2.36-.78-4.37-1.19-6.6,1.58.64,3.35.87,3.52,2.5S38.88,50.2,37.26,51.47Z"/><path class="cls-3" d="M66.37,19.35c0-.74-.72-.62-1.11-.84-1-.55-.77-1.31-.53-2a1.32,1.32,0,0,1,1.73-.78,10.17,10.17,0,0,1,1.52.54,1.59,1.59,0,0,1,1,1.92c-.28,1.51-1.69.94-2.66,1.17Z"/><path class="cls-3" d="M61.83,17.22c-.73-.59-2.67-.07-2.59-1.76A1.58,1.58,0,0,1,61.51,14c1.12.33,2.55.52,2.41,2C63.84,16.89,63.2,17.57,61.83,17.22Z"/><path class="cls-3" d="M64.35,9.24c1.58-.74,2.81.78,4.33.68.46,0,.93.37,1.62.29a1.19,1.19,0,0,1,1.19,1.41c-.13.71-.85.27-1.35.26-1.78,0-3.23-1.17-5-1.31-.58-.05-1.25-.54-.79-1.33Z"/><path class="cls-3" d="M56.75,12.69c.63.4,2.15.21,2,1.44-.09.79-.7,2-2.05,1.55-.9-.28-2.46-.23-2.32-1.58C54.49,13.18,55.25,12.38,56.75,12.69Z"/><path class="cls-3" d="M70,14.27c.09-.59.24-1.09.77-1.32a1.11,1.11,0,0,1,1.29.35A1.65,1.65,0,0,1,72.44,15c-.13.35-.82.53-.3,1.09.27.29,1,.44.61,1s-.93.2-1.31.05c-.62-.25-1.71-.87-1.41-1.23C70.65,15.24,69.56,14.73,70,14.27Z"/><path class="cls-3" d="M67.86,12.1c.74.12,1.76.41,1.42,1.36-.24.69,0,2-1.49,1.92-.84-.07-2-.44-1.88-1.26S65.9,11.81,67.86,12.1Z"/><path class="cls-3" d="M67.5,9c-.7-.2-1.69-.27-1.63-1.19,0-.67.82-.9,1.55-.79.92.15,1.69.59,1.58,1.53S68.09,9,67.5,9Z"/></svg>