<svg id="Layer_1" data-name="Layer 1" xmlns="http://www.w3.org/2000/svg" viewBox="0 0 236 56"><defs><style>.cls-1{fill:#fff;stroke:#d8e0db;}.cls-2{isolation:isolate;font-size:24px;fill:#1a1f1c;font-family:NotoSansThai-Bold, Noto Sans Thai;font-weight:700;}.cls-3{fill:#519028;}.cls-4{fill:#fcc600;}</style></defs><rect class="cls-1" x="1" y="1" width="234" height="54" rx="14"/><text class="cls-2" transform="translate(20 35)">KaonA Agri</text><path class="cls-3" d="M205.42,29.74c-1,.29-2,.55-3,.88a52.68,52.68,0,0,0-11.85,6.18,51.83,51.83,0,0,1-10.42,5.41,19.24,19.24,0,0,1-7.53,1.37,1.23,1.23,0,0,1-1.07-.58c-.65-1-1.3-2-2-2.85-.41-.51-.3-.73.24-1.08a72.54,72.54,0,0,1,14.44-7.18,49.17,49.17,0,0,1,13.31-3.06,24,24,0,0,1,6.57.36c.46.1.92.26,1.37.38Z"/><path class="cls-3" d="M188.36,7.42a24.18,24.18,0,0,1-2.19,8.48C183.3,22.43,179,27.93,174,33c-1.64,1.66-3.4,3.18-5.16,4.7-.5.43-.81.52-1.25,0A33.5,33.5,0,0,0,165.14,35a1.08,1.08,0,0,1-.24-1.27,24.4,24.4,0,0,1,5.69-9.08c3.24-3.43,7-6.15,10.68-9.1A29.68,29.68,0,0,0,188,7.87C188.08,7.77,188.16,7.68,188.36,7.42Z"/><path class="cls-3" d="M196.51,43.38c-4.28-.44-8.38.67-12.48,2a30.63,30.63,0,0,1-6.92,1.78,6.3,6.3,0,0,1-.75.05c-2.62,0-2.09.19-3.29-2.23,5.1-.22,9.72-2.28,14.24-4.72a1.56,1.56,0,0,1,.88-.28,14.19,14.19,0,0,1,8.11,3C196.39,43.06,196.54,43.11,196.51,43.38Z"/><path class="cls-4" d="M189.78,23.7c-1.08,1.11-1.61,1.09-2.36,0-.21-.31-.43-.62-.63-.94-.55-.9-.46-1.25.43-1.9s1.34-.64,2,.19c.28.39.54.81.79,1.23A1.08,1.08,0,0,1,189.78,23.7Z"/><path class="cls-4" d="M191.32,24.4a8,8,0,0,1,1.23,1.77,1.22,1.22,0,0,1-.88,1.71c-.79.22-1.49.28-1.88-.58a3.53,3.53,0,0,0-.41-.6c-1-1.27-.35-1.81.93-2.53C190.74,23.93,191.05,24.18,191.32,24.4Z"/><path class="cls-4" d="M185.93,22.55a7.89,7.89,0,0,1,1.15,1.71c.42.86.17,1.43-.87,2.07-.78.47-1.1.37-1.65-.51l-.18-.27c-.8-1.23-.75-1.74.28-2.93A.78.78,0,0,1,185.93,22.55Z"/><path class="cls-4" d="M182.53,30.42c-2.22.94-4.35,1.85-6.62,3a66.43,66.43,0,0,0,4.63-5c.33-.4.49-.29.65.06.07.15.2.29.2.45C181.43,29.63,181.64,30.25,182.53,30.42Z"/><path class="cls-4" d="M189.73,19.27c1-1.07,1.67-1.05,2.38,0,.18.28.36.54.53.82.56.9.49,1.22-.4,1.92s-1.25.62-1.86-.22c-.28-.4-.54-.81-.82-1.22A.94.94,0,0,1,189.73,19.27Z"/><path class="cls-4" d="M194,22.46a5,5,0,0,1,1.15,1.68c.44.83-.29,1.25-.8,1.68a.88.88,0,0,1-1.39-.08c-.38-.5-.74-1-1.07-1.54a1.05,1.05,0,0,1,.38-1.55C192.86,22.26,193.45,21.7,194,22.46Z"/><path class="cls-4" d="M194.69,17.25l.75,1.17c.4.64.19,1.15-.4,1.62-.95.76-1.33.72-2-.23l-.48-.76c-.67-1.07-.25-2,1.06-2.3C194.05,16.65,194.29,16.85,194.69,17.25Z"/><path class="cls-4" d="M197.4,23.32c-.91,1-1.7.91-2.22-.31-.11-.25-.29-.46-.42-.7-.46-.81-.39-1.1.41-1.7,1-.73,1.32-.67,2,.3l.47.76C198,22.42,198,22.64,197.4,23.32Z"/><path class="cls-4" d="M187.83,16c1-.83,1.71-1.21,2.26,0,.13.29.37.53.49.83.32.74,0,1.25-.93,1.83a.91.91,0,0,1-1.49-.42c-.28-.58-.94-1-.49-1.87Z"/><path class="cls-4" d="M199.91,21.24c-.76.92-1.52.94-1.94,0a3.31,3.31,0,0,0-.47-.66c-.61-.82-.56-1.13.3-1.79s1.17-.62,1.78.19c.18.24.35.48.51.73C200.5,20.36,200.47,20.6,199.91,21.24Z"/><path class="cls-4" d="M197.35,15.64c.17.26.51.72.79,1.21s0,1-.52,1.36-1,.75-1.54.13a13.8,13.8,0,0,1-.92-1.34.93.93,0,0,1,.31-1.39C196,15.21,196.6,14.8,197.35,15.64Z"/><path class="cls-4" d="M193.2,16.29c-.69.76-1.57.94-2.13.42-.82-.76-1.06-1.65-.58-2.21s1.7-1,2.09-.69C193.4,14.5,193.71,15.73,193.2,16.29Z"/><path class="cls-4" d="M199.3,26.23c-.72.77-1.23.94-1.63.42-1-1.25-1.3-1.61-.62-2.34s1.46-1.06,1.94-.48C199.9,24.92,200.24,25.3,199.3,26.23Z"/><path class="cls-4" d="M186.34,27c.46-.35,1-1,1.69-.81s1.14,1.11,1.5,1.85c.15.31-.14.3-.31.35-.63.18-1.28.3-1.89.54s-.89-.08-1.16-.54A1,1,0,0,1,186.34,27Z"/><path class="cls-4" d="M184.06,27.75c-1,1.17-1.94,1.2-2.55.17a.71.71,0,0,1,.09-.91c.47-.59.92-1.19,1.38-1.79.1-.14.17-.3.38-.18a4.09,4.09,0,0,1,1,2.09A1.36,1.36,0,0,1,184.06,27.75Z"/><path class="cls-4" d="M198.2,13.73a1.83,1.83,0,0,1,2.35,1.39c.28.7-.09,1.12-.66,1.47s-1.06.44-1.43-.19a4.81,4.81,0,0,0-.27-.41c-.8-1.12-.8-1.12,0-2.26Z"/><path class="cls-4" d="M195.94,14.66c-.65.7-1.5.93-1.91.51-.77-.77-1.08-1.8-.68-2.23.56-.6,1.58-.88,2-.54C196.18,13.21,196.43,14.13,195.94,14.66Z"/><path class="cls-4" d="M201.79,16.84a9.4,9.4,0,0,1,.75,1.25c.3.77-.28,1.21-.82,1.62s-.95.09-1.25-.33-.44-.68-.66-1c-.4-.63,0-1.05.47-1.44S201.28,16.3,201.79,16.84Z"/><path class="cls-4" d="M201.52,24.14c-.26.25-.61.77-1.23.51-.46-.18-1.23-1.67-1-2a2,2,0,0,1,1.6-1.19c.7,0,.9.77,1.21,1.29S202,23.65,201.52,24.14Z"/><path class="cls-4" d="M207.52,16c.14-.55-.49-.85-.08-1.29.23-.26.51-.57.87-.44a1.12,1.12,0,0,1,.63,1,.81.81,0,0,1-.56.88c-.48.13-.55.32-.58.78a1.35,1.35,0,0,1-1,1.2c-.64.15-.69-.57-1-.92s0-.71.27-1C206.56,15.65,207,15.56,207.52,16Z"/><path class="cls-4" d="M198.22,13.73c0-.14-.11-.16-.23-.12-.39.13-.81.49-1.18.15a2.9,2.9,0,0,1-.94-1.6c-.1-.62.56-.81,1-1a.9.9,0,0,1,1.26.22,1.71,1.71,0,0,1,.07,2.39Z"/><path class="cls-4" d="M208.43,9.18c-.81-.68-1.42-.16-2.06.51a.45.45,0,0,0,.59,0c.73-.46,1,.07,1.14.55s-.5.89-.89.93c-.66.08-.9-.65-.93-1.09s-.18-.53-.52-.55a.63.63,0,0,1-.55-.3c-.1-.21-.35-.41-.21-.67a.67.67,0,0,1,.74-.31,4.93,4.93,0,0,0,2.26,0,.71.71,0,0,1,.72.31c.21.32-.22.4-.29.62Z"/><path class="cls-4" d="M203.76,21.86c-.36.31-.72.92-1.35.39a1.49,1.49,0,0,1-.42-2.17c.7-.77,1.11-.88,1.63-.42A1.32,1.32,0,0,1,203.76,21.86Z"/><path class="cls-4" d="M202.05,12.49c.72.95,1.12,1.51.56,2.09s-1.17.75-1.61.35c-.79-.73-1.07-1.61-.65-2.07S201.64,12.1,202.05,12.49Z"/><path class="cls-4" d="M204.58,15.83c.08.71.1,1.41-.66,1.87a1.46,1.46,0,0,1-.46.21c-.39.06-1.49-1.23-1.5-1.76s.73-1.12,1.22-1.22c.33-.07.49.16.71.3s.27.64.69.61Z"/><path class="cls-4" d="M200.78,12c-.45.22-.93.81-1.52.3s-1-1.56-.6-1.93a1.62,1.62,0,0,1,1.77-.35A1.48,1.48,0,0,1,200.78,12Z"/><path class="cls-4" d="M205.74,19.71c-.33.3-.69.82-1.23.38-.72-.6-.91-1.45-.42-1.92s.88-1.05,1.56-.46A1.22,1.22,0,0,1,205.74,19.71Z"/><path class="cls-4" d="M204.58,15.84c.2-.37-.12-.55-.27-.74-.34-.45-.38-.83.12-1.22s.91-.67,1.38-.11c.1.12.18.28.39.23v0c-.13.39.28.59.25,1a1.24,1.24,0,0,1-1.86.89Z"/><path class="cls-4" d="M204.15,11.36c.7.63.89,1.33.43,1.8s-.93.84-1.28.3-1.27-.9-.7-1.79A1.05,1.05,0,0,1,204.15,11.36Z"/><path class="cls-4" d="M183.41,29c.9-.94,1.89-1,2.41-.2.21.33.22.53-.24.66-.63.18-1.24.41-1.86.61-.23.07-.5.31-.68.05a.69.69,0,0,1,.15-.86Z"/><path class="cls-4" d="M197.27,27.2c-.93.07-1.84.16-2.75.21-.54,0-.37-.36-.24-.64.54-1.22,1.74-1.45,2.49-.45A1.59,1.59,0,0,1,197.27,27.2Z"/><path class="cls-4" d="M203,10.82c-.47.29-.9.68-1.41.28s-.8-1.37-.45-1.65,1-.62,1.44-.15S203.41,10.15,203,10.82Z"/><path class="cls-4" d="M185.67,20.81l1.51-3.12c.4.65,1,1.17.59,1.91A2.71,2.71,0,0,1,185.67,20.81Z"/><path class="cls-4" d="M206.2,14c.24-.31-.09-.44-.18-.63-.22-.48.1-.74.41-1a.58.58,0,0,1,.88.08,3.68,3.68,0,0,1,.42.59.84.84,0,0,1-.18,1.07c-.56.58-.92,0-1.36-.14Z"/><path class="cls-4" d="M205.11,12c-.1-.43-1-.67-.45-1.38a.75.75,0,0,1,1.28-.07c.32.42.8.84.31,1.44A.67.67,0,0,1,205.11,12Z"/><path class="cls-4" d="M208.43,9.18c.82.06.83,1,1.43,1.33.19.09.25.38.53.51s.29.62,0,.89-.4-.09-.59-.21c-.65-.45-.87-1.27-1.49-1.76a.44.44,0,0,1,.09-.76Z"/><path class="cls-4" d="M204.54,8.84c.11.32.74.61.33,1.1-.27.32-.85.68-1.23.18-.26-.34-.86-.69-.41-1.24A.82.82,0,0,1,204.54,8.84Z"/><path class="cls-4" d="M209.08,12.69c.21-.23.41-.41.68-.38a.46.46,0,0,1,.39.46,1,1,0,0,1-.38.83c-.15.12-.46,0-.44.39,0,.19.26.44-.06.58s-.42-.13-.52-.28-.39-.79-.16-.87C209,13.26,208.77,12.78,209.08,12.69Z"/><path class="cls-4" d="M208.91,11.24c.24.23.54.6.13.93s-.6.88-1.13.47c-.3-.23-.62-.67-.34-1S208.25,10.65,208.91,11.24Z"/><path class="cls-4" d="M209.69,9.84c-.21-.26-.56-.52-.27-.9a.54.54,0,0,1,.82,0,.69.69,0,0,1,.15,1C210.11,10.33,209.92,10,209.69,9.84Z"/></svg>