<svg width="64" height="64" viewBox="0 0 64 64" fill="none" xmlns="http://www.w3.org/2000/svg" role="img" aria-label="reward">
  <rect width="64" height="64" rx="18" fill="#E8F5E9"/>
  <path d="M24 18h16v10a8 8 0 0 1-16 0V18Z" fill="#fff" stroke="#2E7D32" stroke-width="3" stroke-linejoin="round"/>
  <path d="M24 22h-6v4c0 5 3 8 8 8M40 22h6v4c0 5-3 8-8 8" stroke="#2E7D32" stroke-width="3" stroke-linecap="round" stroke-linejoin="round"/>
  <path d="M32 36v8M26 46h12" stroke="#2E7D32" stroke-width="3" stroke-linecap="round"/>
  <path d="M32 22l2 4 4 .5-3 3 .8 4-3.8-2-3.8 2 .8-4-3-3 4-.5 2-4Z" fill="#F9A825"/>
</svg>
